<?xml version="1.0" encoding="utf-8" standalone="no"?>
<!DOCTYPE svg PUBLIC "-//W3C//DTD SVG 1.1//EN"
  "http://www.w3.org/Graphics/SVG/1.1/DTD/svg11.dtd">
<!-- Created with matplotlib (https://matplotlib.org/) -->
<svg height="330.939269pt" version="1.1" viewBox="0 0 573.357623 330.939269" width="573.357623pt" xmlns="http://www.w3.org/2000/svg" xmlns:xlink="http://www.w3.org/1999/xlink">
 <metadata>
  <rdf:RDF xmlns:cc="http://creativecommons.org/ns#" xmlns:dc="http://purl.org/dc/elements/1.1/" xmlns:rdf="http://www.w3.org/1999/02/22-rdf-syntax-ns#">
   <cc:Work>
    <dc:type rdf:resource="http://purl.org/dc/dcmitype/StillImage"/>
    <dc:date>2021-02-15T02:29:55.268861</dc:date>
    <dc:format>image/svg+xml</dc:format>
    <dc:creator>
     <cc:Agent>
      <dc:title>Matplotlib v3.3.4, https://matplotlib.org/</dc:title>
     </cc:Agent>
    </dc:creator>
   </cc:Work>
  </rdf:RDF>
 </metadata>
 <defs>
  <style type="text/css">*{stroke-linecap:butt;stroke-linejoin:round;}</style>
 </defs>
 <g id="figure_1">
  <g id="patch_1">
   <path d="M 0 330.939269 
L 573.357623 330.939269 
L 573.357623 0 
L 0 0 
z
" style="fill:#ffffff;"/>
  </g>
  <g id="axes_1">
   <g id="patch_2">
    <path d="M 51.818088 284.4 
L 554.018088 284.4 
L 554.018088 7.2 
L 51.818088 7.2 
z
" style="fill:#ffffff;"/>
   </g>
   <g id="PolyCollection_1">
    <path clip-path="url(#p1053ff86bf)" d="M 51.818088 -687.888856 
L 51.818088 1076.627511 
L 54.341706 1043.931507 
L 56.865324 1010.053118 
L 59.388942 975.016809 
L 61.91256 938.852003 
L 64.436179 901.593101 
L 66.959797 863.279485 
L 69.483415 823.955501 
L 72.007033 783.670431 
L 74.530651 742.478452 
L 77.054269 700.438617 
L 79.577887 657.61486 
L 82.101505 614.076095 
L 84.625123 569.896495 
L 87.148741 525.156185 
L 89.672359 479.942842 
L 92.195978 434.355617 
L 94.719596 388.515626 
L 97.243214 342.599522 
L 99.766832 296.984479 
L 102.29045 253.386864 
L 104.814068 237.402589 
L 107.337686 277.003752 
L 109.861304 322.816492 
L 112.384922 369.109533 
L 114.90854 415.198665 
L 117.432158 460.840839 
L 119.955776 505.88772 
L 122.479395 550.221662 
L 125.003013 593.737978 
L 127.526631 636.33879 
L 130.050249 677.930615 
L 132.573867 718.423347 
L 135.097485 757.729864 
L 137.621103 795.765892 
L 140.144721 832.450023 
L 142.668339 867.703791 
L 145.191957 901.451793 
L 147.715575 933.621819 
L 150.239194 964.144998 
L 152.762812 992.955941 
L 155.28643 1019.992886 
L 157.810048 1045.197845 
L 160.333666 1068.516748 
L 162.857284 1089.899589 
L 165.380902 1109.300566 
L 167.90452 1126.67823 
L 170.428138 1141.995629 
L 172.951756 1155.22046 
L 175.475374 1166.325214 
L 177.998993 1175.287336 
L 180.522611 1182.089376 
L 183.046229 1186.719151 
L 185.569847 1189.169901 
L 188.093465 1189.440455 
L 190.617083 1187.535384 
L 193.140701 1183.465164 
L 195.664319 1177.246325 
L 198.187937 1168.901599 
L 200.711555 1158.460055 
L 203.235173 1145.957222 
L 205.758792 1131.435202 
L 208.28241 1114.942754 
L 210.806028 1096.535362 
L 213.329646 1076.275279 
L 215.853264 1054.231535 
L 218.376882 1030.479918 
L 220.9005 1005.102912 
L 223.424118 978.189605 
L 225.947736 949.835543 
L 228.471354 920.142548 
L 230.994972 889.218483 
L 233.518591 857.176973 
L 236.042209 824.137071 
L 238.565827 790.22288 
L 241.089445 755.563119 
L 243.613063 720.290648 
L 246.136681 684.541947 
L 248.660299 648.456555 
L 251.183917 612.176483 
L 253.707535 575.845603 
L 256.231153 539.609045 
L 258.754771 503.612625 
L 261.27839 468.002364 
L 263.802008 432.924185 
L 266.325626 398.523993 
L 268.849244 364.948525 
L 271.372862 332.347864 
L 273.89648 300.881922 
L 276.420098 270.73745 
L 278.943716 242.178165 
L 281.467334 215.725409 
L 283.990952 193.031849 
L 286.51457 181.135694 
L 289.038189 187.036957 
L 291.561807 199.110372 
L 294.085425 211.369047 
L 296.609043 222.541889 
L 299.132661 232.272599 
L 301.656279 240.436424 
L 304.179897 246.992506 
L 306.703515 251.940783 
L 309.227133 255.306313 
L 311.750751 257.13251 
L 314.274369 257.477736 
L 316.797988 256.413293 
L 319.321606 254.022038 
L 321.845224 250.397287 
L 324.368842 245.641857 
L 326.89246 239.867194 
L 329.416078 233.192563 
L 331.939696 225.74435 
L 334.463314 217.655545 
L 336.986932 209.065554 
L 339.51055 200.120645 
L 342.034168 190.975591 
L 344.557787 181.797691 
L 347.081405 172.775756 
L 349.605023 164.140043 
L 352.128641 156.207351 
L 354.652259 149.482405 
L 357.175877 144.844265 
L 359.699495 147.052554 
L 362.223113 146.27532 
L 364.746731 151.843588 
L 367.270349 158.688036 
L 369.793967 165.809033 
L 372.317586 172.681547 
L 374.841204 179.016201 
L 377.364822 184.637716 
L 379.88844 189.432313 
L 382.412058 193.324701 
L 384.935676 196.26766 
L 387.459294 198.23743 
L 389.982912 199.2322 
L 392.50653 199.272874 
L 395.030148 198.406428 
L 397.553766 196.713594 
L 400.077385 194.325287 
L 402.601003 191.458287 
L 405.124621 188.49367 
L 407.648239 186.132671 
L 410.171857 185.55101 
L 412.695475 187.949254 
L 415.219093 193.331076 
L 417.742711 200.636157 
L 420.266329 208.873569 
L 422.789947 217.421163 
L 425.313565 225.891643 
L 427.837184 234.015736 
L 430.360802 241.583838 
L 432.88442 248.419211 
L 435.408038 254.365613 
L 437.931656 259.281554 
L 440.455274 263.037701 
L 442.978892 265.515876 
L 445.50251 266.608883 
L 448.026128 266.22082 
L 450.549746 264.267715 
L 453.073364 260.678477 
L 455.596983 255.396315 
L 458.120601 248.381018 
L 460.644219 239.613108 
L 463.167837 229.102453 
L 465.691455 216.90877 
L 468.215073 203.199157 
L 470.738691 188.447187 
L 473.262309 174.319506 
L 475.785927 167.219559 
L 478.309545 174.424661 
L 480.833163 189.686378 
L 483.356782 208.423977 
L 485.8804 229.403876 
L 488.404018 252.208998 
L 490.927636 276.634536 
L 493.451254 302.542884 
L 495.974872 329.819773 
L 498.49849 358.35855 
L 501.022108 388.053951 
L 503.545726 418.799592 
L 506.069344 450.487098 
L 508.592962 483.006017 
L 511.116581 516.244126 
L 513.640199 550.087952 
L 516.163817 584.423407 
L 518.687435 619.136472 
L 521.211053 654.113909 
L 523.734671 689.243961 
L 526.258289 724.417045 
L 528.781907 759.526399 
L 531.305525 794.468711 
L 533.829143 829.144683 
L 536.352761 863.459555 
L 538.87638 897.323578 
L 541.399998 930.652417 
L 543.923616 963.367508 
L 546.447234 995.396349 
L 548.970852 1026.672728 
L 551.49447 1057.136893 
L 554.018088 1086.735668 
L 554.018088 -883.269998 
L 554.018088 -883.269998 
L 551.49447 -854.169575 
L 548.970852 -823.988723 
L 546.447234 -792.770482 
L 543.923616 -760.565267 
L 541.399998 -727.430866 
L 538.87638 -693.432376 
L 536.352761 -658.642073 
L 533.829143 -623.139222 
L 531.305525 -587.00982 
L 528.781907 -550.346276 
L 526.258289 -513.24702 
L 523.734671 -475.816062 
L 521.211053 -438.162482 
L 518.687435 -400.399865 
L 516.163817 -362.645691 
L 513.640199 -325.020683 
L 511.116581 -287.648115 
L 508.592962 -250.653118 
L 506.069344 -214.161978 
L 503.545726 -178.301481 
L 501.022108 -143.198356 
L 498.49849 -108.978908 
L 495.974872 -75.769041 
L 493.451254 -43.695041 
L 490.927636 -12.88598 
L 488.404018 16.52017 
L 485.8804 44.360944 
L 483.356782 70.405675 
L 480.833163 94.210573 
L 478.309545 114.514668 
L 475.785927 126.709347 
L 473.262309 124.51799 
L 470.738691 115.189627 
L 468.215073 105.099519 
L 465.691455 95.886454 
L 463.167837 87.996675 
L 460.644219 81.570707 
L 458.120601 76.642664 
L 455.596983 73.197993 
L 453.073364 71.194193 
L 450.549746 70.569629 
L 448.026128 71.247884 
L 445.50251 73.14022 
L 442.978892 76.147171 
L 440.455274 80.159654 
L 437.931656 85.059748 
L 435.408038 90.721129 
L 432.88442 97.009005 
L 430.360802 103.779193 
L 427.837184 110.875599 
L 425.313565 118.124505 
L 422.789947 125.32222 
L 420.266329 132.208275 
L 417.742711 138.407031 
L 415.219093 143.310802 
L 412.695475 145.945847 
L 410.171857 145.271654 
L 407.648239 141.314206 
L 405.124621 135.298727 
L 402.601003 128.427776 
L 400.077385 121.431428 
L 397.553766 114.721386 
L 395.030148 108.546628 
L 392.50653 103.071598 
L 389.982912 98.411645 
L 387.459294 94.649187 
L 384.935676 91.841135 
L 382.412058 90.021974 
L 379.88844 89.204253 
L 377.364822 89.376808 
L 374.841204 90.49987 
L 372.317586 92.494389 
L 369.793967 95.218753 
L 367.270349 98.415942 
L 364.746731 101.591735 
L 362.223113 103.775534 
L 359.699495 99.925068 
L 357.175877 99.396236 
L 354.652259 92.379605 
L 352.128641 83.65482 
L 349.605023 74.118326 
L 347.081405 64.289494 
L 344.557787 54.496944 
L 342.034168 44.979867 
L 339.51055 35.93309 
L 336.986932 27.526996 
L 334.463314 19.916527 
L 331.939696 13.245237 
L 329.416078 7.647001 
L 326.89246 3.246541 
L 324.368842 0.159343 
L 321.845224 -1.508737 
L 319.321606 -1.662027 
L 316.797988 -0.215691 
L 314.274369 2.903575 
L 311.750751 7.756771 
L 309.227133 14.391698 
L 306.703515 22.841779 
L 304.179897 33.124266 
L 301.656279 45.237057 
L 299.132661 59.152149 
L 296.609043 74.800192 
L 294.085425 92.027606 
L 291.561807 110.449158 
L 289.038189 128.764924 
L 286.51457 140.959492 
L 283.990952 135.379586 
L 281.467334 118.997913 
L 278.943716 98.82625 
L 276.420098 76.491877 
L 273.89648 52.491944 
L 271.372862 27.067302 
L 268.849244 0.383291 
L 266.325626 -27.420038 
L 263.802008 -56.210814 
L 261.27839 -85.858804 
L 258.754771 -116.232838 
L 256.231153 -147.199921 
L 253.707535 -178.62514 
L 251.183917 -210.371952 
L 248.660299 -242.302686 
L 246.136681 -274.279131 
L 243.613063 -306.163192 
L 241.089445 -337.817542 
L 238.565827 -369.106283 
L 236.042209 -399.89558 
L 233.518591 -430.054267 
L 230.994972 -459.454427 
L 228.471354 -487.971917 
L 225.947736 -515.486866 
L 223.424118 -541.884115 
L 220.9005 -567.053623 
L 218.376882 -590.890817 
L 215.853264 -613.296901 
L 213.329646 -634.179118 
L 210.806028 -653.450972 
L 208.28241 -671.032407 
L 205.758792 -686.849939 
L 203.235173 -700.836765 
L 200.711555 -712.932825 
L 198.187937 -723.084839 
L 195.664319 -731.246316 
L 193.140701 -737.377531 
L 190.617083 -741.445484 
L 188.093465 -743.423841 
L 185.569847 -743.29285 
L 183.046229 -741.039247 
L 180.522611 -736.65615 
L 177.998993 -730.142934 
L 175.475374 -721.505112 
L 172.951756 -710.754187 
L 170.428138 -697.90752 
L 167.90452 -682.988171 
L 165.380902 -666.024754 
L 162.857284 -647.05127 
L 160.333666 -626.106949 
L 157.810048 -603.23608 
L 155.28643 -578.487839 
L 152.762812 -551.916112 
L 150.239194 -523.579312 
L 147.715575 -493.540192 
L 145.191957 -461.865657 
L 142.668339 -428.626564 
L 140.144721 -393.897531 
L 137.621103 -357.756735 
L 135.097485 -320.285729 
L 132.573867 -281.569264 
L 130.050249 -241.695157 
L 127.526631 -200.754222 
L 125.003013 -158.84034 
L 122.479395 -116.050811 
L 119.955776 -72.48731 
L 117.432158 -28.258258 
L 114.90854 16.51508 
L 112.384922 61.680903 
L 109.861304 106.992904 
L 107.337686 151.763843 
L 104.814068 190.259691 
L 102.29045 173.104135 
L 99.766832 128.267153 
L 97.243214 81.342885 
L 94.719596 34.046303 
L 92.195978 -13.246433 
L 89.672359 -60.359283 
L 87.148741 -107.171338 
L 84.625123 -153.583252 
L 82.101505 -199.506737 
L 79.577887 -244.860664 
L 77.054269 -289.56945 
L 74.530651 -333.562394 
L 72.007033 -376.773399 
L 69.483415 -419.140896 
L 66.959797 -460.607853 
L 64.436179 -501.121824 
L 61.91256 -540.635002 
L 59.388942 -579.104279 
L 56.865324 -616.491287 
L 54.341706 -652.762423 
L 51.818088 -687.888856 
z
" style="fill:#f5deb3;fill-opacity:0.5;stroke:#f5deb3;stroke-opacity:0.5;"/>
   </g>
   <g id="PolyCollection_2">
    <defs>
     <path d="M 51.818088 -188.021949 
L 51.818088 -84.590925 
L 52.824501 -84.871751 
L 53.830914 -85.166065 
L 54.837327 -85.473914 
L 55.843739 -85.795332 
L 56.850152 -86.13034 
L 57.856565 -86.478949 
L 58.862978 -86.841159 
L 59.869391 -87.216955 
L 60.875803 -87.606311 
L 61.882216 -88.009184 
L 62.888629 -88.425521 
L 63.895042 -88.85525 
L 64.901455 -89.298286 
L 65.907868 -89.754527 
L 66.91428 -90.223851 
L 67.920693 -90.706121 
L 68.927106 -91.201179 
L 69.933519 -91.708844 
L 70.939932 -92.228917 
L 71.946345 -92.761169 
L 72.952757 -93.30535 
L 73.95917 -93.861176 
L 74.965583 -94.428336 
L 75.971996 -95.006479 
L 76.978409 -95.595219 
L 77.984822 -96.194122 
L 78.991234 -96.802707 
L 79.997647 -97.420433 
L 81.00406 -98.046693 
L 82.010473 -98.680804 
L 83.016886 -99.321993 
L 84.023298 -99.969379 
L 85.029711 -100.621954 
L 86.036124 -101.278557 
L 87.042537 -101.937841 
L 88.04895 -102.598231 
L 89.055363 -103.257874 
L 90.061775 -103.91457 
L 91.068188 -104.565684 
L 92.074601 -105.208043 
L 93.081014 -105.83779 
L 94.087427 -106.450212 
L 95.09384 -107.039524 
L 96.100252 -107.598617 
L 97.106665 -108.118774 
L 98.113078 -108.589409 
L 99.119491 -108.997897 
L 100.125904 -109.329667 
L 101.132317 -109.568759 
L 102.138729 -109.699085 
L 103.145142 -109.706461 
L 104.151555 -109.581071 
L 105.157968 -109.319564 
L 106.164381 -108.925866 
L 107.170793 -108.410276 
L 108.177206 -107.787312 
L 109.183619 -107.073249 
L 110.190032 -106.284112 
L 111.196445 -105.434458 
L 112.202858 -104.536848 
L 113.20927 -103.601782 
L 114.215683 -102.637882 
L 115.222096 -101.652162 
L 116.228509 -100.650315 
L 117.234922 -99.636967 
L 118.241335 -98.615897 
L 119.247747 -97.590208 
L 120.25416 -96.562468 
L 121.260573 -95.534821 
L 122.266986 -94.509069 
L 123.273399 -93.486746 
L 124.279812 -92.469162 
L 125.286224 -91.45745 
L 126.292637 -90.452597 
L 127.29905 -89.455469 
L 128.305463 -88.466834 
L 129.311876 -87.487378 
L 130.318288 -86.517713 
L 131.324701 -85.558398 
L 132.331114 -84.609939 
L 133.337527 -83.672801 
L 134.34394 -82.747412 
L 135.350353 -81.834169 
L 136.356765 -80.933442 
L 137.363178 -80.045578 
L 138.369591 -79.170903 
L 139.376004 -78.309725 
L 140.382417 -77.462338 
L 141.38883 -76.629018 
L 142.395242 -75.810035 
L 143.401655 -75.005642 
L 144.408068 -74.216087 
L 145.414481 -73.441607 
L 146.420894 -72.682432 
L 147.427306 -71.938787 
L 148.433719 -71.21089 
L 149.440132 -70.498952 
L 150.446545 -69.803182 
L 151.452958 -69.123785 
L 152.459371 -68.460961 
L 153.465783 -67.814908 
L 154.472196 -67.18582 
L 155.478609 -66.573891 
L 156.485022 -65.97931 
L 157.491435 -65.402268 
L 158.497848 -64.842951 
L 159.50426 -64.301547 
L 160.510673 -63.778242 
L 161.517086 -63.27322 
L 162.523499 -62.786666 
L 163.529912 -62.318765 
L 164.536325 -61.869701 
L 165.542737 -61.439658 
L 166.54915 -61.02882 
L 167.555563 -60.637373 
L 168.561976 -60.265501 
L 169.568389 -59.913389 
L 170.574801 -59.581223 
L 171.581214 -59.269188 
L 172.587627 -58.977471 
L 173.59404 -58.706258 
L 174.600453 -58.455737 
L 175.606866 -58.226095 
L 176.613278 -58.017519 
L 177.619691 -57.830199 
L 178.626104 -57.66432 
L 179.632517 -57.520072 
L 180.63893 -57.397642 
L 181.645343 -57.297218 
L 182.651755 -57.218987 
L 183.658168 -57.163136 
L 184.664581 -57.12985 
L 185.670994 -57.119314 
L 186.677407 -57.131713 
L 187.68382 -57.167227 
L 188.690232 -57.226038 
L 189.696645 -57.308324 
L 190.703058 -57.414261 
L 191.709471 -57.544025 
L 192.715884 -57.697784 
L 193.722296 -57.875709 
L 194.728709 -58.077962 
L 195.735122 -58.304705 
L 196.741535 -58.556095 
L 197.747948 -58.832282 
L 198.754361 -59.133415 
L 199.760773 -59.459635 
L 200.767186 -59.811077 
L 201.773599 -60.187872 
L 202.780012 -60.590143 
L 203.786425 -61.018007 
L 204.792838 -61.471571 
L 205.79925 -61.950937 
L 206.805663 -62.456198 
L 207.812076 -62.987437 
L 208.818489 -63.544729 
L 209.824902 -64.128138 
L 210.831315 -64.737719 
L 211.837727 -65.373516 
L 212.84414 -66.03556 
L 213.850553 -66.723873 
L 214.856966 -67.438464 
L 215.863379 -68.179327 
L 216.869791 -68.946447 
L 217.876204 -69.739791 
L 218.882617 -70.559315 
L 219.88903 -71.404958 
L 220.895443 -72.276647 
L 221.901856 -73.174289 
L 222.908268 -74.097779 
L 223.914681 -75.046992 
L 224.921094 -76.021789 
L 225.927507 -77.022012 
L 226.93392 -78.047483 
L 227.940333 -79.09801 
L 228.946745 -80.173378 
L 229.953158 -81.273355 
L 230.959571 -82.397688 
L 231.965984 -83.546104 
L 232.972397 -84.718309 
L 233.978809 -85.913988 
L 234.985222 -87.132806 
L 235.991635 -88.374404 
L 236.998048 -89.638401 
L 238.004461 -90.924393 
L 239.010874 -92.231953 
L 240.017286 -93.56063 
L 241.023699 -94.90995 
L 242.030112 -96.279413 
L 243.036525 -97.668494 
L 244.042938 -99.076641 
L 245.049351 -100.50328 
L 246.055763 -101.947805 
L 247.062176 -103.409586 
L 248.068589 -104.887963 
L 249.075002 -106.38225 
L 250.081415 -107.891729 
L 251.087828 -109.415651 
L 252.09424 -110.953238 
L 253.100653 -112.503678 
L 254.107066 -114.066126 
L 255.113479 -115.6397 
L 256.119892 -117.223484 
L 257.126304 -118.816521 
L 258.132717 -120.417817 
L 259.13913 -122.026333 
L 260.145543 -123.640985 
L 261.151956 -125.260641 
L 262.158369 -126.88412 
L 263.164781 -128.510183 
L 264.171194 -130.137537 
L 265.177607 -131.764822 
L 266.18402 -133.390613 
L 267.190433 -135.013413 
L 268.196846 -136.631648 
L 269.203258 -138.243662 
L 270.209671 -139.847712 
L 271.216084 -141.441965 
L 272.222497 -143.024496 
L 273.22891 -144.593288 
L 274.235323 -146.146234 
L 275.241735 -147.681147 
L 276.248148 -149.19577 
L 277.254561 -150.687804 
L 278.260974 -152.154936 
L 279.267387 -153.594882 
L 280.273799 -155.005444 
L 281.280212 -156.384575 
L 282.286625 -157.730454 
L 283.293038 -159.041565 
L 284.299451 -160.316771 
L 285.305864 -161.555381 
L 286.312276 -162.757195 
L 287.318689 -163.922518 
L 288.325102 -165.052144 
L 289.331515 -166.147316 
L 290.337928 -167.209647 
L 291.344341 -168.241035 
L 292.350753 -169.243561 
L 293.357166 -170.219397 
L 294.363579 -171.170715 
L 295.369992 -172.099621 
L 296.376405 -173.00809 
L 297.382818 -173.897936 
L 298.38923 -174.770784 
L 299.395643 -175.628057 
L 300.402056 -176.470977 
L 301.408469 -177.300566 
L 302.414882 -178.117658 
L 303.421294 -178.922914 
L 304.427707 -179.716829 
L 305.43412 -180.499754 
L 306.440533 -181.271905 
L 307.446946 -182.03338 
L 308.453359 -182.784173 
L 309.459771 -183.52418 
L 310.466184 -184.253218 
L 311.472597 -184.97103 
L 312.47901 -185.677294 
L 313.485423 -186.371632 
L 314.491836 -187.053621 
L 315.498248 -187.722793 
L 316.504661 -188.378645 
L 317.511074 -189.020644 
L 318.517487 -189.64823 
L 319.5239 -190.260823 
L 320.530313 -190.857826 
L 321.536725 -191.438627 
L 322.543138 -192.002605 
L 323.549551 -192.549131 
L 324.555964 -193.077572 
L 325.562377 -193.587294 
L 326.568789 -194.077661 
L 327.575202 -194.548043 
L 328.581615 -194.997815 
L 329.588028 -195.426358 
L 330.594441 -195.833063 
L 331.600854 -196.217333 
L 332.607266 -196.578582 
L 333.613679 -196.916242 
L 334.620092 -197.229758 
L 335.626505 -197.518596 
L 336.632918 -197.782241 
L 337.639331 -198.020199 
L 338.645743 -198.232001 
L 339.652156 -198.4172 
L 340.658569 -198.575378 
L 341.664982 -198.706144 
L 342.671395 -198.809138 
L 343.677807 -198.884032 
L 344.68422 -198.930529 
L 345.690633 -198.948369 
L 346.697046 -198.937331 
L 347.703459 -198.897229 
L 348.709872 -198.827922 
L 349.716284 -198.72931 
L 350.722697 -198.601337 
L 351.72911 -198.443996 
L 352.735523 -198.257327 
L 353.741936 -198.041421 
L 354.748349 -197.796421 
L 355.754761 -197.522524 
L 356.761174 -197.219982 
L 357.767587 -196.889102 
L 358.774 -196.53025 
L 359.780413 -196.143846 
L 360.786826 -195.730372 
L 361.793238 -195.290364 
L 362.799651 -194.824415 
L 363.806064 -194.333175 
L 364.812477 -193.817346 
L 365.81889 -193.277683 
L 366.825302 -192.714991 
L 367.831715 -192.130118 
L 368.838128 -191.523959 
L 369.844541 -190.897446 
L 370.850954 -190.251549 
L 371.857367 -189.587267 
L 372.863779 -188.905629 
L 373.870192 -188.207684 
L 374.876605 -187.494504 
L 375.883018 -186.767171 
L 376.889431 -186.026781 
L 377.895844 -185.274434 
L 378.902256 -184.511234 
L 379.908669 -183.738283 
L 380.915082 -182.95668 
L 381.921495 -182.167514 
L 382.927908 -181.371867 
L 383.934321 -180.570808 
L 384.940733 -179.765389 
L 385.947146 -178.956647 
L 386.953559 -178.145604 
L 387.959972 -177.333258 
L 388.966385 -176.520591 
L 389.972797 -175.708564 
L 390.97921 -174.898117 
L 391.985623 -174.090169 
L 392.992036 -173.285619 
L 393.998449 -172.485349 
L 395.004862 -171.690219 
L 396.011274 -170.901072 
L 397.017687 -170.118734 
L 398.0241 -169.344018 
L 399.030513 -168.57772 
L 400.036926 -167.820623 
L 401.043339 -167.073503 
L 402.049751 -166.337122 
L 403.056164 -165.612235 
L 404.062577 -164.899593 
L 405.06899 -164.199937 
L 406.075403 -163.514009 
L 407.081816 -162.842543 
L 408.088228 -162.186273 
L 409.094641 -161.545932 
L 410.101054 -160.922249 
L 411.107467 -160.315953 
L 412.11388 -159.727773 
L 413.120292 -159.158431 
L 414.126705 -158.608653 
L 415.133118 -158.079155 
L 416.139531 -157.570653 
L 417.145944 -157.083854 
L 418.152357 -156.619459 
L 419.158769 -156.178159 
L 420.165182 -155.760634 
L 421.171595 -155.367551 
L 422.178008 -154.999563 
L 423.184421 -154.657305 
L 424.190834 -154.341393 
L 425.197246 -154.052421 
L 426.203659 -153.790964 
L 427.210072 -153.557566 
L 428.216485 -153.352748 
L 429.222898 -153.177001 
L 430.22931 -153.030783 
L 431.235723 -152.914522 
L 432.242136 -152.828609 
L 433.248549 -152.773398 
L 434.254962 -152.749206 
L 435.261375 -152.75631 
L 436.267787 -152.794943 
L 437.2742 -152.865295 
L 438.280613 -152.967513 
L 439.287026 -153.101693 
L 440.293439 -153.267884 
L 441.299852 -153.466083 
L 442.306264 -153.696235 
L 443.312677 -153.958228 
L 444.31909 -154.251895 
L 445.325503 -154.577005 
L 446.331916 -154.933268 
L 447.338329 -155.320326 
L 448.344741 -155.737751 
L 449.351154 -156.185045 
L 450.357567 -156.661631 
L 451.36398 -157.166849 
L 452.370393 -157.699954 
L 453.376805 -158.260109 
L 454.383218 -158.846377 
L 455.389631 -159.457717 
L 456.396044 -160.092974 
L 457.402457 -160.750874 
L 458.40887 -161.430013 
L 459.415282 -162.12885 
L 460.421695 -162.845699 
L 461.428108 -163.578723 
L 462.434521 -164.325924 
L 463.440934 -165.08514 
L 464.447347 -165.854046 
L 465.453759 -166.630157 
L 466.460172 -167.410834 
L 467.466585 -168.193301 
L 468.472998 -168.974674 
L 469.479411 -169.751987 
L 470.485824 -170.522243 
L 471.492236 -171.282459 
L 472.498649 -172.029731 
L 473.505062 -172.761291 
L 474.511475 -173.474571 
L 475.517888 -174.167254 
L 476.5243 -174.837324 
L 477.530713 -175.483089 
L 478.537126 -176.103199 
L 479.543539 -176.696637 
L 480.549952 -177.262702 
L 481.556365 -177.800976 
L 482.562777 -178.311285 
L 483.56919 -178.793655 
L 484.575603 -179.248268 
L 485.582016 -179.675421 
L 486.588429 -180.075491 
L 487.594842 -180.448905 
L 488.601254 -180.796115 
L 489.607667 -181.117577 
L 490.61408 -181.413741 
L 491.620493 -181.685042 
L 492.626906 -181.931888 
L 493.633319 -182.154665 
L 494.639731 -182.353729 
L 495.646144 -182.529411 
L 496.652557 -182.682016 
L 497.65897 -182.811827 
L 498.665383 -182.919105 
L 499.671795 -183.004094 
L 500.678208 -183.067024 
L 501.684621 -183.10811 
L 502.691034 -183.127561 
L 503.697447 -183.125575 
L 504.70386 -183.102349 
L 505.710272 -183.058074 
L 506.716685 -182.992942 
L 507.723098 -182.907145 
L 508.729511 -182.800879 
L 509.735924 -182.674341 
L 510.742337 -182.527735 
L 511.748749 -182.36127 
L 512.755162 -182.175161 
L 513.761575 -181.969631 
L 514.767988 -181.744911 
L 515.774401 -181.50124 
L 516.780814 -181.238866 
L 517.787226 -180.958046 
L 518.793639 -180.659046 
L 519.800052 -180.342141 
L 520.806465 -180.007616 
L 521.812878 -179.655765 
L 522.81929 -179.28689 
L 523.825703 -178.901305 
L 524.832116 -178.499331 
L 525.838529 -178.081297 
L 526.844942 -177.647541 
L 527.851355 -177.198412 
L 528.857767 -176.734262 
L 529.86418 -176.255454 
L 530.870593 -175.762357 
L 531.877006 -175.255347 
L 532.883419 -174.734807 
L 533.889832 -174.201125 
L 534.896244 -173.654694 
L 535.902657 -173.095914 
L 536.90907 -172.525189 
L 537.915483 -171.942926 
L 538.921896 -171.349537 
L 539.928308 -170.745438 
L 540.934721 -170.131046 
L 541.941134 -169.506782 
L 542.947547 -168.873068 
L 543.95396 -168.230327 
L 544.960373 -167.578985 
L 545.966785 -166.919466 
L 546.973198 -166.252197 
L 547.979611 -165.577603 
L 548.986024 -164.896108 
L 549.992437 -164.208135 
L 550.99885 -163.514106 
L 552.005262 -162.814441 
L 553.011675 -162.109557 
L 554.018088 -161.399869 
L 554.018088 -279.626588 
L 554.018088 -279.626588 
L 553.011675 -279.071879 
L 552.005262 -278.494548 
L 550.99885 -277.894458 
L 549.992437 -277.271489 
L 548.986024 -276.62554 
L 547.979611 -275.956525 
L 546.973198 -275.26438 
L 545.966785 -274.549057 
L 544.960373 -273.810531 
L 543.95396 -273.048794 
L 542.947547 -272.263861 
L 541.941134 -271.455765 
L 540.934721 -270.624563 
L 539.928308 -269.770333 
L 538.921896 -268.893173 
L 537.915483 -267.993207 
L 536.90907 -267.070578 
L 535.902657 -266.125455 
L 534.896244 -265.15803 
L 533.889832 -264.168518 
L 532.883419 -263.157158 
L 531.877006 -262.124214 
L 530.870593 -261.069974 
L 529.86418 -259.994751 
L 528.857767 -258.898883 
L 527.851355 -257.782734 
L 526.844942 -256.646692 
L 525.838529 -255.491173 
L 524.832116 -254.316617 
L 523.825703 -253.12349 
L 522.81929 -251.912285 
L 521.812878 -250.683523 
L 520.806465 -249.437748 
L 519.800052 -248.175533 
L 518.793639 -246.897478 
L 517.787226 -245.60421 
L 516.780814 -244.296384 
L 515.774401 -242.974679 
L 514.767988 -241.639808 
L 513.761575 -240.292506 
L 512.755162 -238.933541 
L 511.748749 -237.563707 
L 510.742337 -236.183828 
L 509.735924 -234.794759 
L 508.729511 -233.397382 
L 507.723098 -231.992615 
L 506.716685 -230.581403 
L 505.710272 -229.164725 
L 504.70386 -227.743594 
L 503.697447 -226.319057 
L 502.691034 -224.892198 
L 501.684621 -223.464136 
L 500.678208 -222.036031 
L 499.671795 -220.609082 
L 498.665383 -219.18453 
L 497.65897 -217.763662 
L 496.652557 -216.347809 
L 495.646144 -214.938351 
L 494.639731 -213.536719 
L 493.633319 -212.144393 
L 492.626906 -210.76291 
L 491.620493 -209.393856 
L 490.61408 -208.038872 
L 489.607667 -206.699649 
L 488.601254 -205.377923 
L 487.594842 -204.075469 
L 486.588429 -202.794093 
L 485.582016 -201.535611 
L 484.575603 -200.301833 
L 483.56919 -199.094538 
L 482.562777 -197.915439 
L 481.556365 -196.766149 
L 480.549952 -195.648134 
L 479.543539 -194.562675 
L 478.537126 -193.510815 
L 477.530713 -192.493323 
L 476.5243 -191.510659 
L 475.517888 -190.562953 
L 474.511475 -189.649996 
L 473.505062 -188.771254 
L 472.498649 -187.925896 
L 471.492236 -187.112833 
L 470.485824 -186.330774 
L 469.479411 -185.578283 
L 468.472998 -184.853841 
L 467.466585 -184.155903 
L 466.460172 -183.482946 
L 465.453759 -182.833509 
L 464.447347 -182.206233 
L 463.440934 -181.599873 
L 462.434521 -181.01332 
L 461.428108 -180.445604 
L 460.421695 -179.895899 
L 459.415282 -179.363515 
L 458.40887 -178.847899 
L 457.402457 -178.348619 
L 456.396044 -177.865361 
L 455.389631 -177.397916 
L 454.383218 -176.94617 
L 453.376805 -176.510098 
L 452.370393 -176.089746 
L 451.36398 -175.685233 
L 450.357567 -175.296733 
L 449.351154 -174.924474 
L 448.344741 -174.568727 
L 447.338329 -174.2298 
L 446.331916 -173.908034 
L 445.325503 -173.603795 
L 444.31909 -173.317471 
L 443.312677 -173.049467 
L 442.306264 -172.8002 
L 441.299852 -172.570093 
L 440.293439 -172.359578 
L 439.287026 -172.169085 
L 438.280613 -171.999043 
L 437.2742 -171.849878 
L 436.267787 -171.722008 
L 435.261375 -171.615839 
L 434.254962 -171.531766 
L 433.248549 -171.470169 
L 432.242136 -171.431411 
L 431.235723 -171.415835 
L 430.22931 -171.423763 
L 429.222898 -171.455492 
L 428.216485 -171.511294 
L 427.210072 -171.591412 
L 426.203659 -171.696062 
L 425.197246 -171.825425 
L 424.190834 -171.97965 
L 423.184421 -172.15885 
L 422.178008 -172.3631 
L 421.171595 -172.592437 
L 420.165182 -172.846855 
L 419.158769 -173.126309 
L 418.152357 -173.430707 
L 417.145944 -173.759913 
L 416.139531 -174.113744 
L 415.133118 -174.491971 
L 414.126705 -174.894315 
L 413.120292 -175.32045 
L 412.11388 -175.769998 
L 411.107467 -176.242535 
L 410.101054 -176.737587 
L 409.094641 -177.254631 
L 408.088228 -177.793097 
L 407.081816 -178.352369 
L 406.075403 -178.931786 
L 405.06899 -179.530645 
L 404.062577 -180.148201 
L 403.056164 -180.783673 
L 402.049751 -181.436241 
L 401.043339 -182.105055 
L 400.036926 -182.789235 
L 399.030513 -183.487875 
L 398.0241 -184.200046 
L 397.017687 -184.924799 
L 396.011274 -185.661171 
L 395.004862 -186.408184 
L 393.998449 -187.164855 
L 392.992036 -187.930191 
L 391.985623 -188.703201 
L 390.97921 -189.482894 
L 389.972797 -190.268281 
L 388.966385 -191.058382 
L 387.959972 -191.852225 
L 386.953559 -192.648852 
L 385.947146 -193.447316 
L 384.940733 -194.246687 
L 383.934321 -195.046053 
L 382.927908 -195.844517 
L 381.921495 -196.641205 
L 380.915082 -197.435261 
L 379.908669 -198.225847 
L 378.902256 -199.012149 
L 377.895844 -199.793367 
L 376.889431 -200.568725 
L 375.883018 -201.33746 
L 374.876605 -202.098829 
L 373.870192 -202.852099 
L 372.863779 -203.596555 
L 371.857367 -204.331488 
L 370.850954 -205.0562 
L 369.844541 -205.769999 
L 368.838128 -206.472196 
L 367.831715 -207.162105 
L 366.825302 -207.839039 
L 365.81889 -208.502309 
L 364.812477 -209.151221 
L 363.806064 -209.785076 
L 362.799651 -210.403168 
L 361.793238 -211.004784 
L 360.786826 -211.589201 
L 359.780413 -212.155691 
L 358.774 -212.703515 
L 357.767587 -213.231929 
L 356.761174 -213.740182 
L 355.754761 -214.227519 
L 354.748349 -214.69318 
L 353.741936 -215.136406 
L 352.735523 -215.556438 
L 351.72911 -215.952521 
L 350.722697 -216.323906 
L 349.716284 -216.66985 
L 348.709872 -216.989624 
L 347.703459 -217.282509 
L 346.697046 -217.547804 
L 345.690633 -217.784826 
L 344.68422 -217.992909 
L 343.677807 -218.171415 
L 342.671395 -218.319726 
L 341.664982 -218.437254 
L 340.658569 -218.523437 
L 339.652156 -218.577745 
L 338.645743 -218.59968 
L 337.639331 -218.588776 
L 336.632918 -218.544605 
L 335.626505 -218.466772 
L 334.620092 -218.35492 
L 333.613679 -218.208734 
L 332.607266 -218.027934 
L 331.600854 -217.812283 
L 330.594441 -217.561587 
L 329.588028 -217.275692 
L 328.581615 -216.954489 
L 327.575202 -216.597914 
L 326.568789 -216.205945 
L 325.562377 -215.778611 
L 324.555964 -215.315984 
L 323.549551 -214.818187 
L 322.543138 -214.285391 
L 321.536725 -213.717815 
L 320.530313 -213.115735 
L 319.5239 -212.479475 
L 318.517487 -211.809415 
L 317.511074 -211.105994 
L 316.504661 -210.369707 
L 315.498248 -209.60111 
L 314.491836 -208.800823 
L 313.485423 -207.969534 
L 312.47901 -207.108001 
L 311.472597 -206.217055 
L 310.466184 -205.297608 
L 309.459771 -204.350658 
L 308.453359 -203.377293 
L 307.446946 -202.378699 
L 306.440533 -201.356169 
L 305.43412 -200.311113 
L 304.427707 -199.245065 
L 303.421294 -198.159699 
L 302.414882 -197.056834 
L 301.408469 -195.938454 
L 300.402056 -194.806716 
L 299.395643 -193.663963 
L 298.38923 -192.512736 
L 297.382818 -191.35578 
L 296.376405 -190.196047 
L 295.369992 -189.036694 
L 294.363579 -187.881068 
L 293.357166 -186.73268 
L 292.350753 -185.595163 
L 291.344341 -184.472217 
L 290.337928 -183.367532 
L 289.331515 -182.284705 
L 288.325102 -181.227135 
L 287.318689 -180.197928 
L 286.312276 -179.199806 
L 285.305864 -178.23503 
L 284.299451 -177.305353 
L 283.293038 -176.412007 
L 282.286625 -175.555715 
L 281.280212 -174.736735 
L 280.273799 -173.95492 
L 279.267387 -173.2098 
L 278.260974 -172.500651 
L 277.254561 -171.826575 
L 276.248148 -171.18656 
L 275.241735 -170.579539 
L 274.235323 -170.004427 
L 273.22891 -169.460155 
L 272.222497 -168.94569 
L 271.216084 -168.460049 
L 270.209671 -168.002304 
L 269.203258 -167.57159 
L 268.196846 -167.167095 
L 267.190433 -166.788065 
L 266.18402 -166.433798 
L 265.177607 -166.103636 
L 264.171194 -165.79696 
L 263.164781 -165.51319 
L 262.158369 -165.251771 
L 261.151956 -165.012177 
L 260.145543 -164.7939 
L 259.13913 -164.596448 
L 258.132717 -164.419343 
L 257.126304 -164.262115 
L 256.119892 -164.1243 
L 255.113479 -164.005439 
L 254.107066 -163.905075 
L 253.100653 -163.822748 
L 252.09424 -163.758 
L 251.087828 -163.710367 
L 250.081415 -163.679382 
L 249.075002 -163.664572 
L 248.068589 -163.665458 
L 247.062176 -163.681556 
L 246.055763 -163.712374 
L 245.049351 -163.757412 
L 244.042938 -163.816162 
L 243.036525 -163.888112 
L 242.030112 -163.972738 
L 241.023699 -164.069512 
L 240.017286 -164.177895 
L 239.010874 -164.297345 
L 238.004461 -164.42731 
L 236.998048 -164.567232 
L 235.991635 -164.716547 
L 234.985222 -164.874686 
L 233.978809 -165.041073 
L 232.972397 -165.215129 
L 231.965984 -165.396267 
L 230.959571 -165.583901 
L 229.953158 -165.777437 
L 228.946745 -165.97628 
L 227.940333 -166.179834 
L 226.93392 -166.387497 
L 225.927507 -166.598671 
L 224.921094 -166.812752 
L 223.914681 -167.029141 
L 222.908268 -167.247236 
L 221.901856 -167.466437 
L 220.895443 -167.686146 
L 219.88903 -167.905766 
L 218.882617 -168.124706 
L 217.876204 -168.342374 
L 216.869791 -168.558185 
L 215.863379 -168.771558 
L 214.856966 -168.981916 
L 213.850553 -169.188689 
L 212.84414 -169.391313 
L 211.837727 -169.589229 
L 210.831315 -169.781887 
L 209.824902 -169.968745 
L 208.818489 -170.149268 
L 207.812076 -170.322931 
L 206.805663 -170.489216 
L 205.79925 -170.647617 
L 204.792838 -170.797638 
L 203.786425 -170.938792 
L 202.780012 -171.070603 
L 201.773599 -171.192609 
L 200.767186 -171.304356 
L 199.760773 -171.405406 
L 198.754361 -171.49533 
L 197.747948 -171.573715 
L 196.741535 -171.640159 
L 195.735122 -171.694273 
L 194.728709 -171.735684 
L 193.722296 -171.764033 
L 192.715884 -171.778972 
L 191.709471 -171.780172 
L 190.703058 -171.767316 
L 189.696645 -171.740102 
L 188.690232 -171.698245 
L 187.68382 -171.641475 
L 186.677407 -171.569536 
L 185.670994 -171.482189 
L 184.664581 -171.379211 
L 183.658168 -171.260395 
L 182.651755 -171.125549 
L 181.645343 -170.974499 
L 180.63893 -170.807085 
L 179.632517 -170.623167 
L 178.626104 -170.422617 
L 177.619691 -170.205326 
L 176.613278 -169.971202 
L 175.606866 -169.720168 
L 174.600453 -169.452163 
L 173.59404 -169.167145 
L 172.587627 -168.865087 
L 171.581214 -168.545977 
L 170.574801 -168.209821 
L 169.568389 -167.856641 
L 168.561976 -167.486476 
L 167.555563 -167.099378 
L 166.54915 -166.69542 
L 165.542737 -166.274686 
L 164.536325 -165.837279 
L 163.529912 -165.383316 
L 162.523499 -164.912931 
L 161.517086 -164.426273 
L 160.510673 -163.923506 
L 159.50426 -163.404809 
L 158.497848 -162.870376 
L 157.491435 -162.320418 
L 156.485022 -161.755157 
L 155.478609 -161.174835 
L 154.472196 -160.579703 
L 153.465783 -159.970031 
L 152.459371 -159.346101 
L 151.452958 -158.70821 
L 150.446545 -158.056669 
L 149.440132 -157.391803 
L 148.433719 -156.713954 
L 147.427306 -156.023474 
L 146.420894 -155.320733 
L 145.414481 -154.606114 
L 144.408068 -153.880014 
L 143.401655 -153.142846 
L 142.395242 -152.39504 
L 141.38883 -151.637038 
L 140.382417 -150.869301 
L 139.376004 -150.092307 
L 138.369591 -149.306552 
L 137.363178 -148.512549 
L 136.356765 -147.710835 
L 135.350353 -146.901967 
L 134.34394 -146.086527 
L 133.337527 -145.265121 
L 132.331114 -144.43839 
L 131.324701 -143.607003 
L 130.318288 -142.771671 
L 129.311876 -141.933146 
L 128.305463 -141.092231 
L 127.29905 -140.249789 
L 126.292637 -139.406749 
L 125.286224 -138.564125 
L 124.279812 -137.723028 
L 123.273399 -136.884687 
L 122.266986 -136.050475 
L 121.260573 -135.221941 
L 120.25416 -134.400851 
L 119.247747 -133.589239 
L 118.241335 -132.789476 
L 117.234922 -132.004351 
L 116.228509 -131.237187 
L 115.222096 -130.491972 
L 114.215683 -129.773541 
L 113.20927 -129.087786 
L 112.202858 -128.441917 
L 111.196445 -127.844741 
L 110.190032 -127.306941 
L 109.183619 -126.84125 
L 108.177206 -126.462392 
L 107.170793 -126.186549 
L 106.164381 -126.030145 
L 105.157968 -126.007839 
L 104.151555 -126.130065 
L 103.145142 -126.400869 
L 102.138729 -126.817016 
L 101.132317 -127.368796 
L 100.125904 -128.042119 
L 99.119491 -128.820985 
L 98.113078 -129.689509 
L 97.106665 -130.633186 
L 96.100252 -131.639448 
L 95.09384 -132.697755 
L 94.087427 -133.799425 
L 93.081014 -134.937374 
L 92.074601 -136.105833 
L 91.068188 -137.300095 
L 90.061775 -138.516296 
L 89.055363 -139.751245 
L 88.04895 -141.002282 
L 87.042537 -142.26717 
L 86.036124 -143.544008 
L 85.029711 -144.831162 
L 84.023298 -146.127218 
L 83.016886 -147.430936 
L 82.010473 -148.741218 
L 81.00406 -150.057087 
L 79.997647 -151.377658 
L 78.991234 -152.702129 
L 77.984822 -154.029767 
L 76.978409 -155.359892 
L 75.971996 -156.691875 
L 74.965583 -158.025126 
L 73.95917 -159.359092 
L 72.952757 -160.693248 
L 71.946345 -162.027098 
L 70.939932 -163.360169 
L 69.933519 -164.692007 
L 68.927106 -166.022178 
L 67.920693 -167.350263 
L 66.91428 -168.675861 
L 65.907868 -169.99858 
L 64.901455 -171.318044 
L 63.895042 -172.633888 
L 62.888629 -173.945757 
L 61.882216 -175.253308 
L 60.875803 -176.556204 
L 59.869391 -177.854122 
L 58.862978 -179.146744 
L 57.856565 -180.433762 
L 56.850152 -181.714876 
L 55.843739 -182.989795 
L 54.837327 -184.258234 
L 53.830914 -185.519918 
L 52.824501 -186.774576 
L 51.818088 -188.021949 
z
" id="m6761e10ccb" style="stroke:#b0c4de;stroke-opacity:0.5;"/>
    </defs>
    <g clip-path="url(#p1053ff86bf)">
     <use style="fill:#b0c4de;fill-opacity:0.5;stroke:#b0c4de;stroke-opacity:0.5;" x="0" xlink:href="#m6761e10ccb" y="330.939269"/>
    </g>
   </g>
   <g id="matplotlib.axis_1">
    <g id="xtick_1">
     <g id="line2d_1">
      <defs>
       <path d="M 0 0 
L 0 3.5 
" id="m813d711288" style="stroke:#000000;stroke-width:0.8;"/>
      </defs>
      <g>
       <use style="stroke:#000000;stroke-width:0.8;" x="51.818088" xlink:href="#m813d711288" y="284.4"/>
      </g>
     </g>
     <g id="text_1">
      <!-- $\mathdefault{−10.0}$ -->
      <g transform="translate(34.254435 301.085876)scale(0.14 -0.14)">
       <defs>
        <path d="M 65.90625 23 
C 67.59375 23 69.40625 23 69.40625 25 
C 69.40625 27 67.59375 27 65.90625 27 
L 11.796875 27 
C 10.09375 27 8.296875 27 8.296875 25 
C 8.296875 23 10.09375 23 11.796875 23 
z
" id="CMSY10-0"/>
        <path d="M 26.59375 63.40625 
C 26.59375 65.5 26.5 65.5 25.09375 65.5 
C 21.203125 61.1875 15.296875 59.796875 9.703125 59.796875 
C 9.40625 59.796875 8.90625 59.796875 8.796875 59.5 
C 8.703125 59.296875 8.703125 59.09375 8.703125 57 
C 11.796875 57 17 57.59375 21 59.984375 
L 21 7.203125 
C 21 3.6875 20.796875 2.5 12.203125 2.5 
L 9.203125 2.5 
L 9.203125 0 
C 14 0 19 0 23.796875 0 
C 28.59375 0 33.59375 0 38.40625 0 
L 38.40625 2.5 
L 35.40625 2.5 
C 26.796875 2.5 26.59375 3.59375 26.59375 7.15625 
z
" id="CMR17-49"/>
        <path d="M 42 31.640625 
C 42 37.75 41.90625 48.125 37.703125 56.109375 
C 34 63.109375 28.09375 65.59375 22.90625 65.59375 
C 18.09375 65.59375 12 63.40625 8.203125 56.203125 
C 4.203125 48.71875 3.796875 39.4375 3.796875 31.640625 
C 3.796875 25.953125 3.90625 17.28125 7 9.671875 
C 11.296875 -0.609375 19 -2 22.90625 -2 
C 27.5 -2 34.5 -0.109375 38.59375 9.375 
C 41.59375 16.28125 42 24.359375 42 31.640625 
z
M 22.90625 -0.40625 
C 16.5 -0.40625 12.703125 5.078125 11.296875 12.6875 
C 10.203125 18.5625 10.203125 27.15625 10.203125 32.75 
C 10.203125 40.4375 10.203125 46.828125 11.5 52.921875 
C 13.40625 61.390625 19 64 22.90625 64 
C 27 64 32.296875 61.296875 34.203125 53.125 
C 35.5 47.4375 35.59375 40.734375 35.59375 32.75 
C 35.59375 26.25 35.59375 18.265625 34.40625 12.375 
C 32.296875 1.484375 26.40625 -0.40625 22.90625 -0.40625 
z
" id="CMR17-48"/>
        <path d="M 18.40625 4.796875 
C 18.40625 7.6875 16 9.671875 13.59375 9.671875 
C 10.703125 9.671875 8.703125 7.28125 8.703125 4.890625 
C 8.703125 2 11.09375 0 13.5 0 
C 16.40625 0 18.40625 2.390625 18.40625 4.796875 
z
" id="CMMI12-58"/>
       </defs>
       <use transform="scale(0.996264)" xlink:href="#CMSY10-0"/>
       <use transform="translate(77.487468 0)scale(0.996264)" xlink:href="#CMR17-49"/>
       <use transform="translate(123.177945 0)scale(0.996264)" xlink:href="#CMR17-48"/>
       <use transform="translate(168.868422 0)scale(0.996264)" xlink:href="#CMMI12-58"/>
       <use transform="translate(195.965599 0)scale(0.996264)" xlink:href="#CMR17-48"/>
      </g>
     </g>
    </g>
    <g id="xtick_2">
     <g id="line2d_2">
      <g>
       <use style="stroke:#000000;stroke-width:0.8;" x="114.593088" xlink:href="#m813d711288" y="284.4"/>
      </g>
     </g>
     <g id="text_2">
      <!-- $\mathdefault{−7.5}$ -->
      <g transform="translate(100.443679 301.085876)scale(0.14 -0.14)">
       <defs>
        <path d="M 45.09375 61.578125 
L 45.09375 63.765625 
L 21.59375 63.765625 
C 9.90625 63.765625 9.703125 65.078125 9.296875 67 
L 7.5 67 
L 4.59375 48.34375 
L 6.40625 48.34375 
C 6.703125 50.234375 7.40625 55.3125 8.59375 57.203125 
C 9.203125 58 16.59375 58 18.296875 58 
L 40.296875 58 
L 29.203125 41.578125 
C 21.796875 30.53125 16.703125 15.609375 16.703125 2.578125 
C 16.703125 1.390625 16.703125 -2 20.296875 -2 
C 23.90625 -2 23.90625 1.390625 23.90625 2.671875 
L 23.90625 7.265625 
C 23.90625 23.5625 26.703125 34.3125 31.296875 41.1875 
z
" id="CMR17-55"/>
        <path d="M 11.40625 57.6875 
C 12.40625 57.28125 16.5 56 20.703125 56 
C 30 56 35.09375 61.109375 38 64.0625 
C 38 64.953125 38 65.5 37.40625 65.5 
C 37.296875 65.5 37.09375 65.5 36.296875 65.046875 
C 32.796875 63.40625 28.703125 62.078125 23.703125 62.078125 
C 20.703125 62.078125 16.203125 62.484375 11.296875 64.671875 
C 10.203125 65.171875 10 65.171875 9.90625 65.171875 
C 9.40625 65.171875 9.296875 65.0625 9.296875 63.078125 
L 9.296875 34.421875 
C 9.296875 32.640625 9.296875 32.140625 10.296875 32.140625 
C 10.796875 32.140625 11 32.34375 11.5 33.03125 
C 14.703125 37.515625 19.09375 39.40625 24.09375 39.40625 
C 27.59375 39.40625 35.09375 37.21875 35.09375 20.140625 
C 35.09375 16.953125 35.09375 11.171875 32.09375 6.578125 
C 29.59375 2.484375 25.703125 0.390625 21.40625 0.390625 
C 14.796875 0.390625 8.09375 5 6.296875 12.71875 
C 6.703125 12.609375 7.5 12.421875 7.90625 12.421875 
C 9.203125 12.421875 11.703125 13.125 11.703125 16.21875 
C 11.703125 18.90625 9.796875 20 7.90625 20 
C 5.59375 20 4.09375 18.59375 4.09375 15.796875 
C 4.09375 7.09375 11 -2 21.59375 -2 
C 31.90625 -2 41.703125 6.875 41.703125 19.75 
C 41.703125 31.71875 33.90625 41 24.203125 41 
C 19.09375 41 14.796875 39.109375 11.40625 35.53125 
z
" id="CMR17-53"/>
       </defs>
       <use transform="scale(0.996264)" xlink:href="#CMSY10-0"/>
       <use transform="translate(77.487468 0)scale(0.996264)" xlink:href="#CMR17-55"/>
       <use transform="translate(123.177945 0)scale(0.996264)" xlink:href="#CMMI12-58"/>
       <use transform="translate(150.275122 0)scale(0.996264)" xlink:href="#CMR17-53"/>
      </g>
     </g>
    </g>
    <g id="xtick_3">
     <g id="line2d_3">
      <g>
       <use style="stroke:#000000;stroke-width:0.8;" x="177.368088" xlink:href="#m813d711288" y="284.4"/>
      </g>
     </g>
     <g id="text_3">
      <!-- $\mathdefault{−5.0}$ -->
      <g transform="translate(163.218679 301.085876)scale(0.14 -0.14)">
       <use transform="scale(0.996264)" xlink:href="#CMSY10-0"/>
       <use transform="translate(77.487468 0)scale(0.996264)" xlink:href="#CMR17-53"/>
       <use transform="translate(123.177945 0)scale(0.996264)" xlink:href="#CMMI12-58"/>
       <use transform="translate(150.275122 0)scale(0.996264)" xlink:href="#CMR17-48"/>
      </g>
     </g>
    </g>
    <g id="xtick_4">
     <g id="line2d_4">
      <g>
       <use style="stroke:#000000;stroke-width:0.8;" x="240.143088" xlink:href="#m813d711288" y="284.4"/>
      </g>
     </g>
     <g id="text_4">
      <!-- $\mathdefault{−2.5}$ -->
      <g transform="translate(225.993679 301.085876)scale(0.14 -0.14)">
       <defs>
        <path d="M 41.703125 15.453125 
L 39.90625 15.453125 
C 38.90625 8.375 38.09375 7.171875 37.703125 6.5625 
C 37.203125 5.765625 30 5.765625 28.59375 5.765625 
L 9.40625 5.765625 
C 13 9.671875 20 16.75 28.5 24.953125 
C 34.59375 30.734375 41.703125 37.53125 41.703125 47.421875 
C 41.703125 59.21875 32.296875 66 21.796875 66 
C 10.796875 66 4.09375 56.3125 4.09375 47.34375 
C 4.09375 43.4375 7 42.9375 8.203125 42.9375 
C 9.203125 42.9375 12.203125 43.546875 12.203125 47.03125 
C 12.203125 50.109375 9.59375 51 8.203125 51 
C 7.59375 51 7 50.90625 6.59375 50.703125 
C 8.5 59.21875 14.296875 63.40625 20.40625 63.40625 
C 29.09375 63.40625 34.796875 56.515625 34.796875 47.421875 
C 34.796875 38.734375 29.703125 31.25 24 24.75 
L 4.09375 2.28125 
L 4.09375 0 
L 39.296875 0 
z
" id="CMR17-50"/>
       </defs>
       <use transform="scale(0.996264)" xlink:href="#CMSY10-0"/>
       <use transform="translate(77.487468 0)scale(0.996264)" xlink:href="#CMR17-50"/>
       <use transform="translate(123.177945 0)scale(0.996264)" xlink:href="#CMMI12-58"/>
       <use transform="translate(150.275122 0)scale(0.996264)" xlink:href="#CMR17-53"/>
      </g>
     </g>
    </g>
    <g id="xtick_5">
     <g id="line2d_5">
      <g>
       <use style="stroke:#000000;stroke-width:0.8;" x="302.918088" xlink:href="#m813d711288" y="284.4"/>
      </g>
     </g>
     <g id="text_5">
      <!-- $\mathdefault{0.0}$ -->
      <g transform="translate(294.192797 301.085876)scale(0.14 -0.14)">
       <use transform="scale(0.996264)" xlink:href="#CMR17-48"/>
       <use transform="translate(45.690477 0)scale(0.996264)" xlink:href="#CMMI12-58"/>
       <use transform="translate(72.787654 0)scale(0.996264)" xlink:href="#CMR17-48"/>
      </g>
     </g>
    </g>
    <g id="xtick_6">
     <g id="line2d_6">
      <g>
       <use style="stroke:#000000;stroke-width:0.8;" x="365.693088" xlink:href="#m813d711288" y="284.4"/>
      </g>
     </g>
     <g id="text_6">
      <!-- $\mathdefault{2.5}$ -->
      <g transform="translate(356.967797 301.085876)scale(0.14 -0.14)">
       <use transform="scale(0.996264)" xlink:href="#CMR17-50"/>
       <use transform="translate(45.690477 0)scale(0.996264)" xlink:href="#CMMI12-58"/>
       <use transform="translate(72.787654 0)scale(0.996264)" xlink:href="#CMR17-53"/>
      </g>
     </g>
    </g>
    <g id="xtick_7">
     <g id="line2d_7">
      <g>
       <use style="stroke:#000000;stroke-width:0.8;" x="428.468088" xlink:href="#m813d711288" y="284.4"/>
      </g>
     </g>
     <g id="text_7">
      <!-- $\mathdefault{5.0}$ -->
      <g transform="translate(419.742797 301.085876)scale(0.14 -0.14)">
       <use transform="scale(0.996264)" xlink:href="#CMR17-53"/>
       <use transform="translate(45.690477 0)scale(0.996264)" xlink:href="#CMMI12-58"/>
       <use transform="translate(72.787654 0)scale(0.996264)" xlink:href="#CMR17-48"/>
      </g>
     </g>
    </g>
    <g id="xtick_8">
     <g id="line2d_8">
      <g>
       <use style="stroke:#000000;stroke-width:0.8;" x="491.243088" xlink:href="#m813d711288" y="284.4"/>
      </g>
     </g>
     <g id="text_8">
      <!-- $\mathdefault{7.5}$ -->
      <g transform="translate(482.517797 301.085876)scale(0.14 -0.14)">
       <use transform="scale(0.996264)" xlink:href="#CMR17-55"/>
       <use transform="translate(45.690477 0)scale(0.996264)" xlink:href="#CMMI12-58"/>
       <use transform="translate(72.787654 0)scale(0.996264)" xlink:href="#CMR17-53"/>
      </g>
     </g>
    </g>
    <g id="xtick_9">
     <g id="line2d_9">
      <g>
       <use style="stroke:#000000;stroke-width:0.8;" x="554.018088" xlink:href="#m813d711288" y="284.4"/>
      </g>
     </g>
     <g id="text_9">
      <!-- $\mathdefault{10.0}$ -->
      <g transform="translate(541.878553 301.085876)scale(0.14 -0.14)">
       <use transform="scale(0.996264)" xlink:href="#CMR17-49"/>
       <use transform="translate(45.690477 0)scale(0.996264)" xlink:href="#CMR17-48"/>
       <use transform="translate(91.380954 0)scale(0.996264)" xlink:href="#CMMI12-58"/>
       <use transform="translate(118.478131 0)scale(0.996264)" xlink:href="#CMR17-48"/>
      </g>
     </g>
    </g>
    <g id="text_10">
     <!-- $x$ -->
     <g transform="translate(297.929023 320.251205)scale(0.18 -0.18)">
      <defs>
       <path d="M 47.40625 40.71875 
C 44.203125 40.109375 43 37.71875 43 35.828125 
C 43 33.421875 44.90625 32.625 46.296875 32.625 
C 49.296875 32.625 51.40625 35.21875 51.40625 37.921875 
C 51.40625 42.109375 46.59375 44 42.40625 44 
C 36.296875 44 32.90625 38.015625 32 36.125 
C 29.703125 44 23.5 44 21.703125 44 
C 11.5 44 6.09375 30.9375 6.09375 28.734375 
C 6.09375 28.34375 6.5 27.84375 7.203125 27.84375 
C 8 27.84375 8.203125 28.4375 8.40625 28.84375 
C 11.796875 39.921875 18.5 42.015625 21.40625 42.015625 
C 25.90625 42.015625 26.796875 37.8125 26.796875 35.421875 
C 26.796875 33.234375 26.203125 30.9375 25 26.140625 
L 21.59375 12.46875 
C 20.09375 6.484375 17.203125 1 11.90625 1 
C 11.40625 1 8.90625 1 6.796875 2.296875 
C 10.40625 3 11.203125 5.984375 11.203125 7.1875 
C 11.203125 9.1875 9.703125 10.375 7.796875 10.375 
C 5.40625 10.375 2.796875 8.28125 2.796875 5.09375 
C 2.796875 0.890625 7.5 -1 11.796875 -1 
C 16.59375 -1 20 2.796875 22.09375 6.890625 
C 23.703125 1 28.703125 -1 32.40625 -1 
C 42.59375 -1 48 12.078125 48 14.265625 
C 48 14.765625 47.59375 15.171875 47 15.171875 
C 46.09375 15.171875 46 14.671875 45.703125 13.875 
C 43 5.09375 37.203125 1 32.703125 1 
C 29.203125 1 27.296875 3.59375 27.296875 7.6875 
C 27.296875 9.875 27.703125 11.46875 29.296875 18.0625 
L 32.796875 31.625 
C 34.296875 37.625 37.703125 42.015625 42.296875 42.015625 
C 42.5 42.015625 45.296875 42.015625 47.40625 40.71875 
z
" id="CMMI12-120"/>
      </defs>
      <use transform="scale(0.996264)" xlink:href="#CMMI12-120"/>
     </g>
    </g>
   </g>
   <g id="matplotlib.axis_2">
    <g id="ytick_1">
     <g id="line2d_10">
      <defs>
       <path d="M 0 0 
L -3.5 0 
" id="mad13d1ba80" style="stroke:#000000;stroke-width:0.8;"/>
      </defs>
      <g>
       <use style="stroke:#000000;stroke-width:0.8;" x="51.818088" xlink:href="#mad13d1ba80" y="256.68"/>
      </g>
     </g>
     <g id="text_11">
      <!-- $\mathdefault{−4}$ -->
      <g transform="translate(27.141364 261.522938)scale(0.14 -0.14)">
       <defs>
        <path d="M 33.59375 64.40625 
C 33.59375 66.5 33.5 66.5 31.703125 66.5 
L 2 19.59375 
L 2 17 
L 27.796875 17 
L 27.796875 7.140625 
C 27.796875 3.5 27.59375 2.5 20.59375 2.5 
L 18.703125 2.5 
L 18.703125 0 
C 21.90625 0 27.296875 0 30.703125 0 
C 34.09375 0 39.5 0 42.703125 0 
L 42.703125 2.5 
L 40.796875 2.5 
C 33.796875 2.5 33.59375 3.5 33.59375 7.140625 
L 33.59375 17 
L 43.796875 17 
L 43.796875 19.59375 
L 33.59375 19.59375 
z
M 28.09375 57.859375 
L 28.09375 19.59375 
L 4 19.59375 
z
" id="CMR17-52"/>
       </defs>
       <use transform="scale(0.996264)" xlink:href="#CMSY10-0"/>
       <use transform="translate(77.487468 0)scale(0.996264)" xlink:href="#CMR17-52"/>
      </g>
     </g>
    </g>
    <g id="ytick_2">
     <g id="line2d_11">
      <g>
       <use style="stroke:#000000;stroke-width:0.8;" x="51.818088" xlink:href="#mad13d1ba80" y="201.24"/>
      </g>
     </g>
     <g id="text_12">
      <!-- $\mathdefault{−2}$ -->
      <g transform="translate(27.141364 206.082938)scale(0.14 -0.14)">
       <use transform="scale(0.996264)" xlink:href="#CMSY10-0"/>
       <use transform="translate(77.487468 0)scale(0.996264)" xlink:href="#CMR17-50"/>
      </g>
     </g>
    </g>
    <g id="ytick_3">
     <g id="line2d_12">
      <g>
       <use style="stroke:#000000;stroke-width:0.8;" x="51.818088" xlink:href="#mad13d1ba80" y="145.8"/>
      </g>
     </g>
     <g id="text_13">
      <!-- $\mathdefault{0}$ -->
      <g transform="translate(37.989599 150.642938)scale(0.14 -0.14)">
       <use transform="scale(0.996264)" xlink:href="#CMR17-48"/>
      </g>
     </g>
    </g>
    <g id="ytick_4">
     <g id="line2d_13">
      <g>
       <use style="stroke:#000000;stroke-width:0.8;" x="51.818088" xlink:href="#mad13d1ba80" y="90.36"/>
      </g>
     </g>
     <g id="text_14">
      <!-- $\mathdefault{2}$ -->
      <g transform="translate(37.989599 95.202938)scale(0.14 -0.14)">
       <use transform="scale(0.996264)" xlink:href="#CMR17-50"/>
      </g>
     </g>
    </g>
    <g id="ytick_5">
     <g id="line2d_14">
      <g>
       <use style="stroke:#000000;stroke-width:0.8;" x="51.818088" xlink:href="#mad13d1ba80" y="34.92"/>
      </g>
     </g>
     <g id="text_15">
      <!-- $\mathdefault{4}$ -->
      <g transform="translate(37.989599 39.762938)scale(0.14 -0.14)">
       <use transform="scale(0.996264)" xlink:href="#CMR17-52"/>
      </g>
     </g>
    </g>
    <g id="text_16">
     <!-- $y$ -->
     <g transform="translate(19.6533 150.080776)rotate(-90)scale(0.18 -0.18)">
      <defs>
       <path d="M 26.296875 -10.9375 
C 23.59375 -14.671875 19.703125 -18 14.796875 -18 
C 13.59375 -18 8.796875 -18 7.296875 -13.890625 
C 7.59375 -13.984375 8.09375 -13.984375 8.296875 -13.984375 
C 11.296875 -13.984375 13.296875 -11.390625 13.296875 -9.09375 
C 13.296875 -6.796875 11.40625 -6 9.90625 -6 
C 8.296875 -6 4.796875 -7.15625 4.796875 -11.859375 
C 4.796875 -16.734375 9.09375 -20.09375 14.796875 -20.09375 
C 24.796875 -20.09375 34.90625 -10.9375 37.703125 0.09375 
L 47.5 38.828125 
C 47.59375 39.328125 47.796875 39.9375 47.796875 40.53125 
C 47.796875 42.015625 46.59375 43.015625 45.09375 43.015625 
C 44.203125 43.015625 42.09375 42.609375 41.296875 39.609375 
L 33.90625 10.28125 
C 33.40625 8.484375 33.40625 8.28125 32.59375 7.1875 
C 30.59375 4.390625 27.296875 1 22.5 1 
C 16.90625 1 16.40625 6.484375 16.40625 9.1875 
C 16.40625 14.875 19.09375 22.546875 21.796875 29.734375 
C 22.90625 32.625 23.5 34.03125 23.5 36.015625 
C 23.5 40.21875 20.5 44 15.59375 44 
C 6.40625 44 2.703125 29.53125 2.703125 28.734375 
C 2.703125 28.34375 3.09375 27.84375 3.796875 27.84375 
C 4.703125 27.84375 4.796875 28.234375 5.203125 29.640625 
C 7.59375 38.015625 11.40625 42.015625 15.296875 42.015625 
C 16.203125 42.015625 17.90625 42.015625 17.90625 38.71875 
C 17.90625 36.125 16.796875 33.234375 15.296875 29.4375 
C 10.40625 16.359375 10.40625 13.078125 10.40625 10.671875 
C 10.40625 1.203125 17.203125 -1 22.203125 -1 
C 25.09375 -1 28.703125 -0.09375 32.203125 3.59375 
L 32.296875 3.5 
C 30.796875 -2.296875 29.796875 -6.125 26.296875 -10.9375 
z
" id="CMMI12-121"/>
      </defs>
      <use transform="scale(0.996264)" xlink:href="#CMMI12-121"/>
     </g>
    </g>
   </g>
   <g id="line2d_15">
    <path clip-path="url(#p1053ff86bf)" d="M 97.832984 331.939269 
L 99.766832 296.984479 
L 102.29045 253.386864 
L 104.814068 237.402589 
L 107.337686 277.003752 
L 110.358623 331.939269 
M 271.405632 331.939269 
L 276.420098 270.73745 
L 278.943716 242.178165 
L 281.467334 215.725409 
L 283.990952 193.031849 
L 286.51457 181.135694 
L 289.038189 187.036957 
L 294.085425 211.369047 
L 296.609043 222.541889 
L 299.132661 232.272599 
L 301.656279 240.436424 
L 304.179897 246.992506 
L 306.703515 251.940783 
L 309.227133 255.306313 
L 311.750751 257.13251 
L 314.274369 257.477736 
L 316.797988 256.413293 
L 319.321606 254.022038 
L 321.845224 250.397287 
L 324.368842 245.641857 
L 326.89246 239.867194 
L 329.416078 233.192563 
L 331.939696 225.74435 
L 334.463314 217.655545 
L 339.51055 200.120645 
L 347.081405 172.775756 
L 349.605023 164.140043 
L 352.128641 156.207351 
L 354.652259 149.482405 
L 357.175877 144.844265 
L 359.699495 147.052554 
L 362.223113 146.27532 
L 364.746731 151.843588 
L 374.841204 179.016201 
L 377.364822 184.637716 
L 379.88844 189.432313 
L 382.412058 193.324701 
L 384.935676 196.26766 
L 387.459294 198.23743 
L 389.982912 199.2322 
L 392.50653 199.272874 
L 395.030148 198.406428 
L 397.553766 196.713594 
L 400.077385 194.325287 
L 405.124621 188.49367 
L 407.648239 186.132671 
L 410.171857 185.55101 
L 412.695475 187.949254 
L 415.219093 193.331076 
L 417.742711 200.636157 
L 422.789947 217.421163 
L 427.837184 234.015736 
L 430.360802 241.583838 
L 432.88442 248.419211 
L 435.408038 254.365613 
L 437.931656 259.281554 
L 440.455274 263.037701 
L 442.978892 265.515876 
L 445.50251 266.608883 
L 448.026128 266.22082 
L 450.549746 264.267715 
L 453.073364 260.678477 
L 455.596983 255.396315 
L 458.120601 248.381018 
L 460.644219 239.613108 
L 463.167837 229.102453 
L 465.691455 216.90877 
L 468.215073 203.199157 
L 473.262309 174.319506 
L 475.785927 167.219559 
L 478.309545 174.424661 
L 480.833163 189.686378 
L 483.356782 208.423977 
L 485.8804 229.403876 
L 488.404018 252.208998 
L 490.927636 276.634536 
L 493.451254 302.542884 
L 496.162294 331.939269 
L 496.162294 331.939269 
" style="fill:none;stroke:#008000;stroke-dasharray:5.55,2.4;stroke-dashoffset:0;stroke-width:1.5;"/>
   </g>
   <g id="line2d_16">
    <path clip-path="url(#p1053ff86bf)" d="M 92.849467 -1 
L 99.766832 128.267153 
L 102.29045 173.104135 
L 104.814068 190.259691 
L 107.337686 151.763843 
L 115.895766 -1 
M 268.723687 -1 
L 271.372862 27.067302 
L 273.89648 52.491944 
L 276.420098 76.491877 
L 278.943716 98.82625 
L 281.467334 118.997913 
L 283.990952 135.379586 
L 286.51457 140.959492 
L 289.038189 128.764924 
L 294.085425 92.027606 
L 296.609043 74.800192 
L 299.132661 59.152149 
L 301.656279 45.237057 
L 304.179897 33.124266 
L 306.703515 22.841779 
L 309.227133 14.391698 
L 311.750751 7.756771 
L 314.274369 2.903575 
L 316.797988 -0.215691 
L 318.166477 -1 
M 322.614885 -1 
L 324.368842 0.159343 
L 326.89246 3.246541 
L 329.416078 7.647001 
L 331.939696 13.245237 
L 334.463314 19.916527 
L 336.986932 27.526996 
L 339.51055 35.93309 
L 342.034168 44.979867 
L 347.081405 64.289494 
L 352.128641 83.65482 
L 354.652259 92.379605 
L 357.175877 99.396236 
L 359.699495 99.925068 
L 362.223113 103.775534 
L 364.746731 101.591735 
L 369.793967 95.218753 
L 372.317586 92.494389 
L 374.841204 90.49987 
L 377.364822 89.376808 
L 379.88844 89.204253 
L 382.412058 90.021974 
L 384.935676 91.841135 
L 387.459294 94.649187 
L 389.982912 98.411645 
L 392.50653 103.071598 
L 395.030148 108.546628 
L 397.553766 114.721386 
L 402.601003 128.427776 
L 405.124621 135.298727 
L 407.648239 141.314206 
L 410.171857 145.271654 
L 412.695475 145.945847 
L 415.219093 143.310802 
L 417.742711 138.407031 
L 420.266329 132.208275 
L 425.313565 118.124505 
L 430.360802 103.779193 
L 432.88442 97.009005 
L 435.408038 90.721129 
L 437.931656 85.059748 
L 440.455274 80.159654 
L 442.978892 76.147171 
L 445.50251 73.14022 
L 448.026128 71.247884 
L 450.549746 70.569629 
L 453.073364 71.194193 
L 455.596983 73.197993 
L 458.120601 76.642664 
L 460.644219 81.570707 
L 463.167837 87.996675 
L 465.691455 95.886454 
L 468.215073 105.099519 
L 470.738691 115.189627 
L 473.262309 124.51799 
L 475.785927 126.709347 
L 478.309545 114.514668 
L 480.833163 94.210573 
L 483.356782 70.405675 
L 485.8804 44.360944 
L 489.907588 -1 
L 489.907588 -1 
" style="fill:none;stroke:#008000;stroke-dasharray:5.55,2.4;stroke-dashoffset:0;stroke-width:1.5;"/>
   </g>
   <g id="line2d_17">
    <path clip-path="url(#p1053ff86bf)" d="M 51.818088 194.632832 
L 59.869391 198.403731 
L 66.91428 201.489413 
L 73.95917 204.329135 
L 79.997647 206.540224 
L 86.036124 208.527987 
L 92.074601 210.282331 
L 98.113078 211.79981 
L 104.151555 213.083702 
L 110.190032 214.143743 
L 116.228509 214.995518 
L 123.273399 215.753553 
L 130.318288 216.294577 
L 138.369591 216.700542 
L 148.433719 216.976847 
L 161.517086 217.089523 
L 174.600453 216.985319 
L 184.664581 216.684738 
L 191.709471 216.277171 
L 197.747948 215.73627 
L 203.786425 214.96087 
L 208.818489 214.09227 
L 213.850553 212.982988 
L 217.876204 211.898187 
L 221.901856 210.618906 
L 225.927507 209.128928 
L 229.953158 207.413873 
L 233.978809 205.461738 
L 238.004461 203.263418 
L 242.030112 200.813193 
L 246.055763 198.10918 
L 250.081415 195.153714 
L 254.107066 191.953669 
L 259.13913 187.627878 
L 264.171194 182.972021 
L 269.203258 178.031643 
L 275.241735 171.808926 
L 285.305864 161.044064 
L 295.369992 150.371112 
L 301.408469 144.319759 
L 306.440533 139.625232 
L 310.466184 136.163856 
L 314.491836 133.012047 
L 318.517487 130.210447 
L 321.536725 128.361048 
L 324.555964 126.742491 
L 327.575202 125.366291 
L 330.594441 124.241944 
L 333.613679 123.376781 
L 336.632918 122.775846 
L 339.652156 122.441797 
L 342.671395 122.374837 
L 345.690633 122.572672 
L 348.709872 123.030496 
L 351.72911 123.741011 
L 354.748349 124.694469 
L 357.767587 125.878753 
L 360.786826 127.279483 
L 363.806064 128.880144 
L 367.831715 131.293158 
L 371.857367 133.979892 
L 376.889431 137.641516 
L 382.927908 142.331077 
L 397.017687 153.417502 
L 402.049751 157.052588 
L 406.075403 159.716372 
L 410.101054 162.109351 
L 414.126705 164.187785 
L 417.145944 165.517386 
L 420.165182 166.635524 
L 423.184421 167.531192 
L 426.203659 168.195756 
L 429.222898 168.623023 
L 432.242136 168.809259 
L 435.261375 168.753195 
L 438.280613 168.455991 
L 441.299852 167.921181 
L 444.31909 167.154586 
L 447.338329 166.164206 
L 450.357567 164.960087 
L 453.376805 163.554166 
L 457.402457 161.389523 
L 461.428108 158.927105 
L 465.453759 156.207436 
L 470.485824 152.512761 
L 476.5243 147.765277 
L 488.601254 137.852251 
L 495.646144 132.205388 
L 501.684621 127.653146 
L 506.716685 124.152097 
L 510.742337 121.583488 
L 514.767988 119.24691 
L 518.793639 117.161007 
L 522.81929 115.339681 
L 526.844942 113.792152 
L 530.870593 112.523104 
L 534.896244 111.532907 
L 538.921896 110.817914 
L 542.947547 110.370805 
L 546.973198 110.180981 
L 550.99885 110.234987 
L 554.018088 110.42604 
L 554.018088 110.42604 
" style="fill:none;stroke:#000000;stroke-dasharray:7.4,3.2;stroke-dashoffset:0;stroke-width:2;"/>
   </g>
   <g id="line2d_18">
    <path clip-path="url(#p1053ff86bf)" d="M 51.818088 246.348344 
L 55.843739 245.143938 
L 59.869391 243.722314 
L 63.895042 242.084019 
L 67.920693 240.233148 
L 71.946345 238.1781 
L 76.978409 235.34405 
L 82.010473 232.258465 
L 96.100252 223.340653 
L 98.113078 222.349861 
L 100.125904 221.609602 
L 102.138729 221.240184 
L 103.145142 221.232808 
L 104.151555 221.358199 
L 105.157968 221.619705 
L 106.164381 222.013403 
L 108.177206 223.151957 
L 110.190032 224.655157 
L 113.20927 227.337487 
L 117.234922 231.302302 
L 130.318288 244.421556 
L 135.350353 249.1051 
L 140.382417 253.476932 
L 144.408068 256.723182 
L 148.433719 259.72838 
L 152.459371 262.478308 
L 156.485022 264.959959 
L 160.510673 267.161027 
L 164.536325 269.069568 
L 168.561976 270.673768 
L 171.581214 271.670081 
L 174.600453 272.483532 
L 177.619691 273.109071 
L 180.63893 273.541627 
L 183.658168 273.776133 
L 186.677407 273.807557 
L 189.696645 273.630945 
L 192.715884 273.241485 
L 195.735122 272.634564 
L 198.754361 271.805854 
L 201.773599 270.751397 
L 204.792838 269.467698 
L 207.812076 267.951832 
L 210.831315 266.20155 
L 213.850553 264.215396 
L 216.869791 261.992823 
L 219.88903 259.534311 
L 222.908268 256.841491 
L 225.927507 253.917257 
L 229.953158 249.665914 
L 233.978809 245.025281 
L 238.004461 240.014876 
L 242.030112 234.659856 
L 247.062176 227.529684 
L 252.09424 219.986031 
L 258.132717 210.521452 
L 276.248148 181.743499 
L 280.273799 175.933825 
L 283.293038 171.897704 
L 286.312276 168.182074 
L 289.331515 164.791953 
L 292.350753 161.695708 
L 296.376405 157.931179 
L 300.402056 154.468292 
L 305.43412 150.439516 
L 310.466184 146.686051 
L 315.498248 143.216476 
L 319.5239 140.678446 
L 323.549551 138.390138 
L 327.575202 136.391226 
L 330.594441 135.106206 
L 333.613679 134.023027 
L 336.632918 133.157028 
L 339.652156 132.522069 
L 342.671395 132.130131 
L 345.690633 131.9909 
L 348.709872 132.111347 
L 351.72911 132.495273 
L 354.748349 133.142848 
L 357.767587 134.050167 
L 360.786826 135.208897 
L 363.806064 136.606094 
L 366.825302 138.224279 
L 370.850954 140.68772 
L 374.876605 143.444765 
L 379.908669 147.200986 
L 386.953559 152.793665 
L 398.0241 161.595251 
L 403.056164 165.327034 
L 407.081816 168.096726 
L 411.107467 170.623316 
L 415.133118 172.860114 
L 418.152357 174.31981 
L 421.171595 175.571718 
L 424.190834 176.597877 
L 427.210072 177.381703 
L 430.22931 177.908486 
L 433.248549 178.165871 
L 436.267787 178.144327 
L 439.287026 177.837576 
L 442.306264 177.243034 
L 445.325503 176.362264 
L 448.344741 175.201518 
L 451.36398 173.772421 
L 454.383218 172.092892 
L 457.402457 170.188395 
L 461.428108 167.360546 
L 467.466585 162.745968 
L 473.505062 158.177978 
L 477.530713 155.45618 
L 480.549952 153.676567 
L 483.56919 152.145614 
L 486.588429 150.863778 
L 489.607667 149.821692 
L 492.626906 149.007381 
L 495.646144 148.409859 
L 498.665383 148.020164 
L 501.684621 147.831159 
L 504.70386 147.83692 
L 507.723098 148.032124 
L 510.742337 148.411534 
L 513.761575 148.969638 
L 517.787226 149.981223 
L 521.812878 151.283504 
L 525.838529 152.857973 
L 529.86418 154.683815 
L 533.889832 156.738144 
L 538.921896 159.589732 
L 543.95396 162.708942 
L 549.992437 166.731134 
L 554.018088 169.5394 
L 554.018088 169.5394 
" style="fill:none;stroke:#000000;stroke-dasharray:5.55,2.4;stroke-dashoffset:0;stroke-width:1.5;"/>
   </g>
   <g id="line2d_19">
    <path clip-path="url(#p1053ff86bf)" d="M 51.818088 142.91732 
L 58.862978 151.792525 
L 67.920693 163.589006 
L 87.042537 188.672099 
L 92.074601 194.833436 
L 95.09384 198.241514 
L 97.106665 200.306083 
L 99.119491 202.118284 
L 101.132317 203.570473 
L 102.138729 204.122253 
L 103.145142 204.538401 
L 104.151555 204.809204 
L 105.157968 204.93143 
L 106.164381 204.909125 
L 107.170793 204.75272 
L 109.183619 204.098019 
L 111.196445 203.094528 
L 113.20927 201.851483 
L 116.228509 199.702082 
L 120.25416 196.538418 
L 129.311876 189.006123 
L 137.363178 182.42672 
L 143.401655 177.796423 
L 148.433719 174.225315 
L 153.465783 170.969238 
L 157.491435 168.618852 
L 161.517086 166.512996 
L 165.542737 164.664583 
L 169.568389 163.082628 
L 173.59404 161.772124 
L 177.619691 160.733943 
L 181.645343 159.96477 
L 185.670994 159.45708 
L 189.696645 159.199167 
L 193.722296 159.175236 
L 197.747948 159.365554 
L 202.780012 159.868666 
L 207.812076 160.616338 
L 213.850553 161.75058 
L 226.93392 164.551772 
L 233.978809 165.898196 
L 239.010874 166.641924 
L 243.036525 167.051157 
L 247.062176 167.257713 
L 251.087828 167.228902 
L 255.113479 166.93383 
L 258.132717 166.519926 
L 261.151956 165.927092 
L 264.171194 165.142309 
L 267.190433 164.151204 
L 270.209671 162.936965 
L 273.22891 161.479114 
L 276.248148 159.752709 
L 279.267387 157.729469 
L 282.286625 155.383554 
L 285.305864 152.70424 
L 288.325102 149.712134 
L 292.350753 145.344106 
L 306.440533 129.5831 
L 310.466184 125.641661 
L 313.485423 122.969735 
L 316.504661 120.569562 
L 319.5239 118.459795 
L 322.543138 116.653879 
L 325.562377 115.160658 
L 328.581615 113.98478 
L 331.600854 113.126986 
L 334.620092 112.584349 
L 337.639331 112.350493 
L 340.658569 112.415832 
L 343.677807 112.767854 
L 346.697046 113.391465 
L 349.716284 114.269419 
L 352.735523 115.382831 
L 355.754761 116.71175 
L 359.780413 118.783578 
L 363.806064 121.154193 
L 367.831715 123.777164 
L 372.863779 127.342714 
L 378.902256 131.927121 
L 398.0241 146.739223 
L 402.049751 149.503029 
L 406.075403 152.007483 
L 410.101054 154.201682 
L 413.120292 155.618819 
L 416.139531 156.825525 
L 419.158769 157.81296 
L 422.178008 158.576169 
L 425.197246 159.113844 
L 428.216485 159.427976 
L 431.235723 159.523434 
L 434.254962 159.407503 
L 437.2742 159.089391 
L 440.293439 158.579691 
L 443.312677 157.889802 
L 447.338329 156.709469 
L 451.36398 155.254036 
L 455.389631 153.541353 
L 459.415282 151.575754 
L 463.440934 149.339396 
L 466.460172 147.456324 
L 469.479411 145.360986 
L 472.498649 143.013373 
L 475.517888 140.376316 
L 478.537126 137.428454 
L 481.556365 134.17312 
L 484.575603 130.637436 
L 488.601254 125.561347 
L 493.633319 118.794876 
L 501.684621 107.475133 
L 511.748749 93.375562 
L 517.787226 85.335059 
L 522.81929 79.026984 
L 526.844942 74.292577 
L 530.870593 69.869295 
L 534.896244 65.781239 
L 538.921896 62.046096 
L 542.947547 58.675408 
L 546.973198 55.67489 
L 549.992437 53.66778 
L 553.011675 51.86739 
L 554.018088 51.312681 
L 554.018088 51.312681 
" style="fill:none;stroke:#000000;stroke-dasharray:5.55,2.4;stroke-dashoffset:0;stroke-width:1.5;"/>
   </g>
   <g id="line2d_20">
    <defs>
     <path d="M 0 5 
C 1.326016 5 2.597899 4.473168 3.535534 3.535534 
C 4.473168 2.597899 5 1.326016 5 0 
C 5 -1.326016 4.473168 -2.597899 3.535534 -3.535534 
C 2.597899 -4.473168 1.326016 -5 0 -5 
C -1.326016 -5 -2.597899 -4.473168 -3.535534 -3.535534 
C -4.473168 -2.597899 -5 -1.326016 -5 0 
C -5 1.326016 -4.473168 2.597899 -3.535534 3.535534 
C -2.597899 4.473168 -1.326016 5 0 5 
z
" id="m332a94dc83" style="stroke:#ffffff;stroke-width:2;"/>
    </defs>
    <g clip-path="url(#p1053ff86bf)">
     <use style="fill:#ffffff;stroke:#ffffff;stroke-width:2;" x="359.780413" xlink:href="#m332a94dc83" y="123.457156"/>
     <use style="fill:#ffffff;stroke:#ffffff;stroke-width:2;" x="286.312276" xlink:href="#m332a94dc83" y="161.3325"/>
     <use style="fill:#ffffff;stroke:#ffffff;stroke-width:2;" x="411.107467" xlink:href="#m332a94dc83" y="166.080278"/>
     <use style="fill:#ffffff;stroke:#ffffff;stroke-width:2;" x="104.151555" xlink:href="#m332a94dc83" y="213.692518"/>
     <use style="fill:#ffffff;stroke:#ffffff;stroke-width:2;" x="475.517888" xlink:href="#m332a94dc83" y="147.19403"/>
    </g>
   </g>
   <g id="line2d_21">
    <defs>
     <path d="M 0 3 
C 0.795609 3 1.55874 2.683901 2.12132 2.12132 
C 2.683901 1.55874 3 0.795609 3 0 
C 3 -0.795609 2.683901 -1.55874 2.12132 -2.12132 
C 1.55874 -2.683901 0.795609 -3 0 -3 
C -0.795609 -3 -1.55874 -2.683901 -2.12132 -2.12132 
C -2.683901 -1.55874 -3 -0.795609 -3 0 
C -3 0.795609 -2.683901 1.55874 -2.12132 2.12132 
C -1.55874 2.683901 -0.795609 3 0 3 
z
" id="madd100f6fe" style="stroke:#ff1493;stroke-width:2;"/>
    </defs>
    <g clip-path="url(#p1053ff86bf)">
     <use style="fill:#ff1493;stroke:#ff1493;stroke-width:2;" x="359.780413" xlink:href="#madd100f6fe" y="123.457156"/>
     <use style="fill:#ff1493;stroke:#ff1493;stroke-width:2;" x="286.312276" xlink:href="#madd100f6fe" y="161.3325"/>
     <use style="fill:#ff1493;stroke:#ff1493;stroke-width:2;" x="411.107467" xlink:href="#madd100f6fe" y="166.080278"/>
     <use style="fill:#ff1493;stroke:#ff1493;stroke-width:2;" x="104.151555" xlink:href="#madd100f6fe" y="213.692518"/>
     <use style="fill:#ff1493;stroke:#ff1493;stroke-width:2;" x="475.517888" xlink:href="#madd100f6fe" y="147.19403"/>
    </g>
   </g>
   <g id="line2d_22">
    <path clip-path="url(#p1053ff86bf)" d="M 51.818088 73.057672 
L 52.824501 73.592634 
L 53.830914 74.288312 
L 54.837327 75.158677 
L 55.843739 76.216285 
L 56.850152 77.472757 
L 57.856565 78.938462 
L 58.862978 80.621634 
L 60.875803 84.665423 
L 62.888629 89.635942 
L 64.901455 95.530641 
L 66.91428 102.315009 
L 68.927106 109.918645 
L 70.939932 118.240573 
L 73.95917 131.775708 
L 84.023298 178.794857 
L 86.036124 187.068714 
L 88.04895 194.520905 
L 90.061775 200.992481 
L 92.074601 206.351408 
L 93.081014 208.581749 
L 94.087427 210.499429 
L 95.09384 212.097917 
L 96.100252 213.372572 
L 97.106665 214.322352 
L 98.113078 214.947153 
L 99.119491 215.250474 
L 100.125904 215.23846 
L 101.132317 214.918872 
L 102.138729 214.301867 
L 103.145142 213.400339 
L 104.151555 212.228727 
L 105.157968 210.803751 
L 106.164381 209.143533 
L 108.177206 205.197276 
L 110.190032 200.561778 
L 113.20927 192.71822 
L 121.260573 170.860441 
L 123.273399 166.001326 
L 125.286224 161.594471 
L 127.29905 157.691102 
L 129.311876 154.311864 
L 131.324701 151.448309 
L 133.337527 149.065576 
L 135.350353 147.107391 
L 137.363178 145.503708 
L 139.376004 144.17293 
L 142.395242 142.507039 
L 150.446545 138.325435 
L 153.465783 136.455504 
L 158.497848 132.989596 
L 162.523499 130.255456 
L 165.542737 128.503362 
L 167.555563 127.570365 
L 169.568389 126.868595 
L 171.581214 126.41879 
L 173.59404 126.225962 
L 175.606866 126.275432 
L 177.619691 126.537236 
L 180.63893 127.222801 
L 187.68382 129.076668 
L 189.696645 129.371066 
L 191.709471 129.456218 
L 193.722296 129.294276 
L 195.735122 128.86206 
L 197.747948 128.154239 
L 199.760773 127.180225 
L 201.773599 125.965966 
L 204.792838 123.780593 
L 208.818489 120.468077 
L 212.84414 117.154837 
L 215.863379 114.980417 
L 217.876204 113.79267 
L 219.88903 112.877022 
L 221.901856 112.279257 
L 223.914681 112.035583 
L 225.927507 112.171847 
L 227.940333 112.701271 
L 229.953158 113.623249 
L 231.965984 114.922836 
L 233.978809 116.569056 
L 235.991635 118.515289 
L 239.010874 121.86087 
L 248.068589 132.431621 
L 250.081415 134.365312 
L 252.09424 136.01145 
L 254.107066 137.340645 
L 256.119892 138.351153 
L 258.132717 139.064382 
L 260.145543 139.529167 
L 263.164781 139.920099 
L 267.190433 140.358226 
L 269.203258 140.771407 
L 271.216084 141.443834 
L 273.22891 142.458249 
L 275.241735 143.878534 
L 277.254561 145.744677 
L 279.267387 148.073257 
L 281.280212 150.855686 
L 283.293038 154.061402 
L 285.305864 157.640092 
L 288.325102 163.560973 
L 292.350753 172.079407 
L 298.38923 184.901106 
L 301.408469 190.819245 
L 304.427707 196.15857 
L 306.440533 199.3247 
L 308.453359 202.1337 
L 310.466184 204.554901 
L 312.47901 206.560827 
L 314.491836 208.127043 
L 316.504661 209.231688 
L 317.511074 209.605198 
L 318.517487 209.85671 
L 319.5239 209.984152 
L 320.530313 209.986405 
L 321.536725 209.861623 
L 322.543138 209.60864 
L 323.549551 209.226459 
L 324.555964 208.714401 
L 326.568789 207.299354 
L 328.581615 205.360505 
L 330.594441 202.900778 
L 332.607266 199.925607 
L 334.620092 196.444701 
L 336.632918 192.473255 
L 338.645743 188.032457 
L 340.658569 183.150894 
L 343.677807 175.087609 
L 346.697046 166.292567 
L 351.72911 150.671505 
L 356.761174 135.127252 
L 359.780413 126.5438 
L 361.793238 121.359319 
L 363.806064 116.720776 
L 365.81889 112.713209 
L 367.831715 109.405736 
L 368.838128 108.030884 
L 369.844541 106.848426 
L 370.850954 105.861221 
L 371.857367 105.071661 
L 372.863779 104.479761 
L 373.870192 104.085353 
L 374.876605 103.887686 
L 375.883018 103.883001 
L 376.889431 104.068653 
L 377.895844 104.439475 
L 378.902256 104.990678 
L 379.908669 105.715885 
L 380.915082 106.608779 
L 382.927908 108.867786 
L 384.940733 111.706891 
L 386.953559 115.059118 
L 388.966385 118.855913 
L 391.985623 125.23231 
L 395.004862 132.217175 
L 400.036926 144.591458 
L 406.075403 159.396071 
L 409.094641 166.296525 
L 412.11388 172.611025 
L 414.126705 176.414119 
L 416.139531 179.843458 
L 418.152357 182.863128 
L 420.165182 185.445811 
L 422.178008 187.570665 
L 424.190834 189.223731 
L 426.203659 190.400546 
L 428.216485 191.101632 
L 429.222898 191.276498 
L 430.22931 191.336087 
L 432.242136 191.120289 
L 434.254962 190.475343 
L 436.267787 189.429082 
L 438.280613 188.014927 
L 440.293439 186.270594 
L 442.306264 184.237902 
L 445.325503 180.747304 
L 448.344741 176.871176 
L 455.389631 167.242882 
L 459.415282 161.927234 
L 462.434521 158.222425 
L 465.453759 154.815276 
L 468.472998 151.704329 
L 472.498649 147.943092 
L 477.530713 143.627512 
L 484.575603 137.91075 
L 487.594842 135.67235 
L 489.607667 134.357628 
L 491.620493 133.267667 
L 493.633319 132.488247 
L 495.646144 132.115123 
L 496.652557 132.111992 
L 497.65897 132.248031 
L 498.665383 132.53488 
L 499.671795 132.984503 
L 500.678208 133.607749 
L 501.684621 134.415231 
L 502.691034 135.415598 
L 503.697447 136.616773 
L 504.70386 138.025225 
L 505.710272 139.645392 
L 507.723098 143.53237 
L 509.735924 148.279787 
L 511.748749 153.85509 
L 513.761575 160.192861 
L 515.774401 167.193461 
L 518.793639 178.639922 
L 527.851355 214.095197 
L 529.86418 220.918127 
L 531.877006 226.948811 
L 533.889832 232.038678 
L 534.896244 234.193106 
L 535.902657 236.072068 
L 536.90907 237.666534 
L 537.915483 238.971354 
L 538.921896 239.982797 
L 539.928308 240.700021 
L 540.934721 241.125178 
L 541.941134 241.262081 
L 542.947547 241.117909 
L 543.95396 240.701299 
L 544.960373 240.022947 
L 545.966785 239.095851 
L 546.973198 237.933973 
L 547.979611 236.553419 
L 549.992437 233.204226 
L 552.005262 229.192111 
L 554.018088 224.666999 
L 554.018088 224.666999 
" style="fill:none;stroke:#0000ff;stroke-linecap:square;stroke-width:3;"/>
   </g>
   <g id="line2d_23">
    <g clip-path="url(#p1053ff86bf)">
     <use style="fill:#ffffff;stroke:#ffffff;stroke-width:2;" x="359.780413" xlink:href="#m332a94dc83" y="123.457156"/>
     <use style="fill:#ffffff;stroke:#ffffff;stroke-width:2;" x="286.312276" xlink:href="#m332a94dc83" y="161.3325"/>
     <use style="fill:#ffffff;stroke:#ffffff;stroke-width:2;" x="411.107467" xlink:href="#m332a94dc83" y="166.080278"/>
     <use style="fill:#ffffff;stroke:#ffffff;stroke-width:2;" x="104.151555" xlink:href="#m332a94dc83" y="213.692518"/>
     <use style="fill:#ffffff;stroke:#ffffff;stroke-width:2;" x="475.517888" xlink:href="#m332a94dc83" y="147.19403"/>
    </g>
   </g>
   <g id="line2d_24">
    <g clip-path="url(#p1053ff86bf)">
     <use style="fill:#ff1493;stroke:#ff1493;stroke-width:2;" x="359.780413" xlink:href="#madd100f6fe" y="123.457156"/>
     <use style="fill:#ff1493;stroke:#ff1493;stroke-width:2;" x="286.312276" xlink:href="#madd100f6fe" y="161.3325"/>
     <use style="fill:#ff1493;stroke:#ff1493;stroke-width:2;" x="411.107467" xlink:href="#madd100f6fe" y="166.080278"/>
     <use style="fill:#ff1493;stroke:#ff1493;stroke-width:2;" x="104.151555" xlink:href="#madd100f6fe" y="213.692518"/>
     <use style="fill:#ff1493;stroke:#ff1493;stroke-width:2;" x="475.517888" xlink:href="#madd100f6fe" y="147.19403"/>
    </g>
   </g>
   <g id="patch_3">
    <path d="M 51.818088 284.4 
L 51.818088 7.2 
" style="fill:none;stroke:#000000;stroke-linecap:square;stroke-linejoin:miter;stroke-width:0.8;"/>
   </g>
   <g id="patch_4">
    <path d="M 554.018088 284.4 
L 554.018088 7.2 
" style="fill:none;stroke:#000000;stroke-linecap:square;stroke-linejoin:miter;stroke-width:0.8;"/>
   </g>
   <g id="patch_5">
    <path d="M 51.818088 284.4 
L 554.018088 284.4 
" style="fill:none;stroke:#000000;stroke-linecap:square;stroke-linejoin:miter;stroke-width:0.8;"/>
   </g>
   <g id="patch_6">
    <path d="M 51.818088 7.2 
L 554.018088 7.2 
" style="fill:none;stroke:#000000;stroke-linecap:square;stroke-linejoin:miter;stroke-width:0.8;"/>
   </g>
  </g>
 </g>
 <defs>
  <clipPath id="p1053ff86bf">
   <rect height="277.2" width="502.2" x="51.818088" y="7.2"/>
  </clipPath>
 </defs>
</svg>
