<?xml version="1.0" encoding="utf-8" standalone="no"?>
<!DOCTYPE svg PUBLIC "-//W3C//DTD SVG 1.1//EN"
  "http://www.w3.org/Graphics/SVG/1.1/DTD/svg11.dtd">
<!-- Created with matplotlib (https://matplotlib.org/) -->
<svg height="330.939269pt" version="1.1" viewBox="0 0 573.357623 330.939269" width="573.357623pt" xmlns="http://www.w3.org/2000/svg" xmlns:xlink="http://www.w3.org/1999/xlink">
 <metadata>
  <rdf:RDF xmlns:cc="http://creativecommons.org/ns#" xmlns:dc="http://purl.org/dc/elements/1.1/" xmlns:rdf="http://www.w3.org/1999/02/22-rdf-syntax-ns#">
   <cc:Work>
    <dc:type rdf:resource="http://purl.org/dc/dcmitype/StillImage"/>
    <dc:date>2021-02-15T02:29:56.267078</dc:date>
    <dc:format>image/svg+xml</dc:format>
    <dc:creator>
     <cc:Agent>
      <dc:title>Matplotlib v3.3.4, https://matplotlib.org/</dc:title>
     </cc:Agent>
    </dc:creator>
   </cc:Work>
  </rdf:RDF>
 </metadata>
 <defs>
  <style type="text/css">*{stroke-linecap:butt;stroke-linejoin:round;}</style>
 </defs>
 <g id="figure_1">
  <g id="patch_1">
   <path d="M 0 330.939269 
L 573.357623 330.939269 
L 573.357623 0 
L 0 0 
z
" style="fill:#ffffff;"/>
  </g>
  <g id="axes_1">
   <g id="patch_2">
    <path d="M 51.818088 284.4 
L 554.018088 284.4 
L 554.018088 7.2 
L 51.818088 7.2 
z
" style="fill:#ffffff;"/>
   </g>
   <g id="PolyCollection_1">
    <path clip-path="url(#pc8178af052)" d="M 51.818088 -227.663933 
L 51.818088 867.911319 
L 54.341706 823.603463 
L 56.865324 780.104759 
L 59.388942 737.542506 
L 61.91256 696.038285 
L 64.436179 655.707062 
L 66.959797 616.656386 
L 69.483415 578.985716 
L 72.007033 542.785913 
L 74.530651 508.13895 
L 77.054269 475.117904 
L 79.577887 443.787367 
L 82.101505 414.204435 
L 84.625123 386.420607 
L 87.148741 360.48511 
L 89.672359 336.450579 
L 92.195978 314.382623 
L 94.719596 294.375551 
L 97.243214 276.575864 
L 99.766832 261.206449 
L 102.29045 248.548443 
L 104.814068 238.774974 
L 107.337686 231.629272 
L 109.861304 226.345352 
L 112.384922 222.039502 
L 114.90854 218.067576 
L 117.432158 214.070648 
L 119.955776 209.886118 
L 122.479395 205.464511 
L 125.003013 200.81765 
L 127.526631 195.98952 
L 130.050249 191.040169 
L 132.573867 186.036897 
L 135.097485 181.049732 
L 137.621103 176.149751 
L 140.144721 171.40952 
L 142.668339 166.905195 
L 145.191957 162.719645 
L 147.715575 158.945221 
L 150.239194 155.683576 
L 152.762812 153.038951 
L 155.28643 151.10275 
L 157.810048 149.933115 
L 160.333666 149.540071 
L 162.857284 149.88561 
L 165.380902 150.897328 
L 167.90452 152.485833 
L 170.428138 154.557831 
L 172.951756 157.022914 
L 175.475374 159.795826 
L 177.998993 162.796531 
L 180.522611 165.949592 
L 183.046229 169.183593 
L 185.569847 172.430869 
L 188.093465 175.627533 
L 190.617083 178.713772 
L 193.140701 181.634305 
L 195.664319 184.338933 
L 198.187937 186.783117 
L 200.711555 188.928539 
L 203.235173 190.743591 
L 205.758792 192.203784 
L 208.28241 193.292034 
L 210.806028 193.998836 
L 213.329646 194.322287 
L 215.853264 194.267986 
L 218.376882 193.848785 
L 220.9005 193.084417 
L 223.424118 192.000992 
L 225.947736 190.630388 
L 228.471354 189.009545 
L 230.994972 187.179683 
L 233.518591 185.185475 
L 236.042209 183.074199 
L 238.565827 180.894907 
L 241.089445 178.697658 
L 243.613063 176.532868 
L 246.136681 174.450849 
L 248.660299 172.501615 
L 251.183917 170.735066 
L 253.707535 169.201637 
L 256.231153 167.953486 
L 258.754771 167.046127 
L 261.27839 166.540017 
L 263.802008 166.500784 
L 266.325626 166.99555 
L 268.849244 168.082122 
L 271.372862 169.790296 
L 273.89648 172.10201 
L 276.420098 174.943755 
L 278.943716 178.199021 
L 281.467334 181.733007 
L 283.990952 185.414782 
L 286.51457 189.129085 
L 289.038189 192.778981 
L 291.561807 196.283718 
L 294.085425 199.575202 
L 296.609043 202.594759 
L 299.132661 205.290762 
L 301.656279 207.617164 
L 304.179897 209.532768 
L 306.703515 211.001066 
L 309.227133 211.990466 
L 311.750751 212.474773 
L 314.274369 212.433795 
L 316.797988 211.854019 
L 319.321606 210.729267 
L 321.845224 209.061294 
L 324.368842 206.860309 
L 326.89246 204.145382 
L 329.416078 200.944732 
L 331.939696 197.295895 
L 334.463314 193.245772 
L 336.986932 188.850563 
L 339.51055 184.175592 
L 342.034168 179.295024 
L 344.557787 174.291472 
L 347.081405 169.255432 
L 349.605023 164.284456 
L 352.128641 159.481855 
L 354.652259 154.954569 
L 357.175877 150.809699 
L 359.699495 147.149113 
L 362.223113 144.061859 
L 364.746731 141.615049 
L 367.270349 139.845344 
L 369.793967 138.754259 
L 372.317586 138.309795 
L 374.841204 138.454243 
L 377.364822 139.115321 
L 379.88844 140.217153 
L 382.412058 141.689068 
L 384.935676 143.472108 
L 387.459294 145.524466 
L 389.982912 147.827556 
L 392.50653 150.394519 
L 395.030148 153.282388 
L 397.553766 156.606477 
L 400.077385 160.547361 
L 402.601003 165.326838 
L 405.124621 171.131923 
L 407.648239 178.02139 
L 410.171857 185.899089 
L 412.695475 194.5697 
L 415.219093 203.807517 
L 417.742711 213.392978 
L 420.266329 223.121849 
L 422.789947 232.803235 
L 425.313565 242.255472 
L 427.837184 251.302879 
L 430.360802 259.773829 
L 432.88442 267.499929 
L 435.408038 274.315975 
L 437.931656 280.060451 
L 440.455274 284.576386 
L 442.978892 287.71249 
L 445.50251 289.324498 
L 448.026128 289.276744 
L 450.549746 287.444028 
L 453.073364 283.713946 
L 455.596983 277.990085 
L 458.120601 270.196885 
L 460.644219 260.288041 
L 463.167837 248.262967 
L 465.691455 234.203353 
L 468.215073 218.365604 
L 470.738691 201.445493 
L 473.262309 185.35804 
L 475.785927 174.473918 
L 478.309545 172.434725 
L 480.833163 177.092528 
L 483.356782 185.579723 
L 485.8804 196.636948 
L 488.404018 209.787435 
L 490.927636 224.840166 
L 493.451254 241.712458 
L 495.974872 260.364357 
L 498.49849 280.771629 
L 501.022108 302.913459 
L 503.545726 326.766372 
L 506.069344 352.301064 
L 508.592962 379.480727 
L 511.116581 408.260204 
L 513.640199 438.585646 
L 516.163817 470.394501 
L 518.687435 503.615735 
L 521.211053 538.170228 
L 523.734671 573.971293 
L 526.258289 610.925317 
L 528.781907 648.93247 
L 531.305525 687.887491 
L 533.829143 727.680522 
L 536.352761 768.197977 
L 538.87638 809.32344 
L 541.399998 850.93857 
L 543.923616 892.924012 
L 546.447234 935.160294 
L 548.970852 977.528706 
L 551.49447 1019.912145 
L 554.018088 1062.195932 
L 554.018088 -1322.787602 
L 554.018088 -1322.787602 
L 551.49447 -1277.872206 
L 548.970852 -1231.417783 
L 546.447234 -1183.520542 
L 543.923616 -1134.287625 
L 541.399998 -1083.836716 
L 538.87638 -1032.295547 
L 536.352761 -979.801307 
L 533.829143 -926.499952 
L 531.305525 -872.545426 
L 528.781907 -818.098789 
L 526.258289 -763.327276 
L 523.734671 -708.403275 
L 521.211053 -653.503252 
L 518.687435 -598.806624 
L 516.163817 -544.494608 
L 513.640199 -490.749042 
L 511.116581 -437.75123 
L 508.592962 -385.680819 
L 506.069344 -334.714765 
L 503.545726 -285.026442 
L 501.022108 -236.785016 
L 498.49849 -190.155248 
L 495.974872 -145.298076 
L 493.451254 -102.372634 
L 490.927636 -61.541151 
L 488.404018 -22.980051 
L 485.8804 13.094257 
L 483.356782 46.36099 
L 480.833163 76.21877 
L 478.309545 101.289949 
L 475.785927 118.596098 
L 473.262309 125.886972 
L 470.738691 126.711386 
L 468.215073 125.357665 
L 465.691455 123.669739 
L 463.167837 122.284265 
L 460.644219 121.411107 
L 458.120601 121.098456 
L 455.596983 121.325611 
L 453.073364 122.039742 
L 450.549746 123.172407 
L 448.026128 124.647868 
L 445.50251 126.387727 
L 442.978892 128.31373 
L 440.455274 130.349589 
L 437.931656 132.422183 
L 435.408038 134.462348 
L 432.88442 136.405308 
L 430.360802 138.19079 
L 427.837184 139.762755 
L 425.313565 141.068689 
L 422.789947 142.058277 
L 420.266329 142.681231 
L 417.742711 142.88399 
L 415.219093 142.605058 
L 412.695475 141.769483 
L 410.171857 140.285464 
L 407.648239 138.052155 
L 405.124621 134.994865 
L 402.601003 131.132572 
L 400.077385 126.63248 
L 397.553766 121.782236 
L 395.030148 116.895469 
L 392.50653 112.23491 
L 389.982912 107.987597 
L 387.459294 104.271237 
L 384.935676 101.148123 
L 382.412058 98.636974 
L 379.88844 96.721258 
L 377.364822 95.355247 
L 374.841204 94.469572 
L 372.317586 93.978006 
L 369.793967 93.786675 
L 367.270349 93.805584 
L 364.746731 93.960425 
L 362.223113 94.201163 
L 359.699495 94.50456 
L 357.175877 94.870448 
L 354.652259 95.314269 
L 352.128641 95.859063 
L 349.605023 96.52903 
L 347.081405 97.345314 
L 344.557787 98.323717 
L 342.034168 99.473753 
L 339.51055 100.798499 
L 336.986932 102.294894 
L 334.463314 103.954233 
L 331.939696 105.762779 
L 329.416078 107.702395 
L 326.89246 109.751206 
L 324.368842 111.884264 
L 321.845224 114.074221 
L 319.321606 116.29201 
L 316.797988 118.507535 
L 314.274369 120.690351 
L 311.750751 122.810342 
L 309.227133 124.838361 
L 306.703515 126.746806 
L 304.179897 128.510104 
L 301.656279 130.10503 
L 299.132661 131.510788 
L 296.609043 132.708755 
L 294.085425 133.681761 
L 291.561807 134.412731 
L 289.038189 134.882524 
L 286.51457 135.066826 
L 283.990952 134.932154 
L 281.467334 134.431535 
L 278.943716 133.501575 
L 276.420098 132.064322 
L 273.89648 130.038298 
L 271.372862 127.359907 
L 268.849244 124.007446 
L 266.325626 120.012883 
L 263.802008 115.453676 
L 261.27839 110.432376 
L 258.754771 105.057467 
L 256.231153 99.432165 
L 253.707535 93.650422 
L 251.183917 87.796919 
L 248.660299 81.948502 
L 246.136681 76.175741 
L 243.613063 70.544129 
L 241.089445 65.114814 
L 238.565827 59.944936 
L 236.042209 55.087665 
L 233.518591 50.592021 
L 230.994972 46.502568 
L 228.471354 42.85903 
L 225.947736 39.695891 
L 223.424118 37.042006 
L 220.9005 34.920248 
L 218.376882 33.34722 
L 215.853264 32.333049 
L 213.329646 31.881263 
L 210.806028 31.988769 
L 208.28241 32.64594 
L 205.758792 33.836794 
L 203.235173 35.539283 
L 200.711555 37.725683 
L 198.187937 40.36306 
L 195.664319 43.413822 
L 193.140701 46.836327 
L 190.617083 50.585516 
L 188.093465 54.613563 
L 185.569847 58.870479 
L 183.046229 63.304631 
L 180.522611 67.863116 
L 177.998993 72.491904 
L 175.475374 77.135681 
L 172.951756 81.737324 
L 170.428138 86.237038 
L 167.90452 90.57141 
L 165.380902 94.673107 
L 162.857284 98.472757 
L 160.333666 101.905327 
L 157.810048 104.922775 
L 155.28643 107.511029 
L 152.762812 109.703182 
L 150.239194 111.579147 
L 147.715575 113.250375 
L 145.191957 114.839026 
L 142.668339 116.462165 
L 140.144721 118.224692 
L 137.621103 120.218839 
L 135.097485 122.526659 
L 132.573867 125.222904 
L 130.050249 128.376929 
L 127.526631 132.052982 
L 125.003013 136.308422 
L 122.479395 141.189143 
L 119.955776 146.720758 
L 117.432158 152.892552 
L 114.90854 159.628441 
L 112.384922 166.735291 
L 109.861304 173.819899 
L 107.337686 180.200347 
L 104.814068 184.951912 
L 102.29045 187.264679 
L 99.766832 186.835363 
L 97.243214 183.788366 
L 94.719596 178.354273 
L 92.195978 170.704004 
L 89.672359 160.931109 
L 87.148741 149.07638 
L 84.625123 135.151793 
L 82.101505 119.156657 
L 79.577887 101.087612 
L 77.054269 80.94473 
L 74.530651 58.735238 
L 72.007033 34.475801 
L 69.483415 8.193877 
L 66.959797 -20.071542 
L 64.436179 -50.269629 
L 61.91256 -82.337735 
L 59.388942 -116.201659 
L 56.865324 -151.776112 
L 54.341706 -188.965349 
L 51.818088 -227.663933 
z
" style="fill:#f5deb3;fill-opacity:0.5;stroke:#f5deb3;stroke-opacity:0.5;"/>
   </g>
   <g id="PolyCollection_2">
    <defs>
     <path d="M 51.818088 -116.362108 
L 51.818088 -40.751809 
L 52.824501 -41.530918 
L 53.830914 -42.341782 
L 54.837327 -43.184276 
L 55.843739 -44.058249 
L 56.850152 -44.963529 
L 57.856565 -45.899917 
L 58.862978 -46.867188 
L 59.869391 -47.865094 
L 60.875803 -48.89336 
L 61.882216 -49.951688 
L 62.888629 -51.039751 
L 63.895042 -52.157199 
L 64.901455 -53.303656 
L 65.907868 -54.478717 
L 66.91428 -55.681956 
L 67.920693 -56.912916 
L 68.927106 -58.171117 
L 69.933519 -59.45605 
L 70.939932 -60.767181 
L 71.946345 -62.103949 
L 72.952757 -63.465766 
L 73.95917 -64.852016 
L 74.965583 -66.262057 
L 75.971996 -67.695218 
L 76.978409 -69.150803 
L 77.984822 -70.628087 
L 78.991234 -72.126314 
L 79.997647 -73.644706 
L 81.00406 -75.182451 
L 82.010473 -76.738713 
L 83.016886 -78.312625 
L 84.023298 -79.903294 
L 85.029711 -81.509798 
L 86.036124 -83.131189 
L 87.042537 -84.766492 
L 88.04895 -86.414706 
L 89.055363 -88.074808 
L 90.061775 -89.745752 
L 91.068188 -91.426475 
L 92.074601 -93.115897 
L 93.081014 -94.812931 
L 94.087427 -96.516481 
L 95.09384 -98.225456 
L 96.100252 -99.938777 
L 97.106665 -101.655384 
L 98.113078 -103.374248 
L 99.119491 -105.094386 
L 100.125904 -106.814873 
L 101.132317 -108.534854 
L 102.138729 -110.253564 
L 103.145142 -111.970334 
L 104.151555 -113.68461 
L 105.157968 -115.395959 
L 106.164381 -117.104074 
L 107.170793 -118.80878 
L 108.177206 -120.510029 
L 109.183619 -122.207891 
L 110.190032 -123.902546 
L 111.196445 -125.594264 
L 112.202858 -127.283385 
L 113.20927 -128.970301 
L 114.215683 -130.655431 
L 115.222096 -132.339197 
L 116.228509 -134.022006 
L 117.234922 -135.704228 
L 118.241335 -137.38618 
L 119.247747 -139.068116 
L 120.25416 -140.750209 
L 121.260573 -142.432552 
L 122.266986 -144.115143 
L 123.273399 -145.797891 
L 124.279812 -147.48061 
L 125.286224 -149.163017 
L 126.292637 -150.844741 
L 127.29905 -152.525316 
L 128.305463 -154.204192 
L 129.311876 -155.880733 
L 130.318288 -157.554221 
L 131.324701 -159.223863 
L 132.331114 -160.888788 
L 133.337527 -162.548056 
L 134.34394 -164.200661 
L 135.350353 -165.84553 
L 136.356765 -167.481528 
L 137.363178 -169.107465 
L 138.369591 -170.722094 
L 139.376004 -172.324118 
L 140.382417 -173.912195 
L 141.38883 -175.484938 
L 142.395242 -177.040926 
L 143.401655 -178.578706 
L 144.408068 -180.096802 
L 145.414481 -181.593724 
L 146.420894 -183.067975 
L 147.427306 -184.518063 
L 148.433719 -185.942512 
L 149.440132 -187.339877 
L 150.446545 -188.708749 
L 151.452958 -190.047779 
L 152.459371 -191.355683 
L 153.465783 -192.631257 
L 154.472196 -193.873387 
L 155.478609 -195.081061 
L 156.485022 -196.253372 
L 157.491435 -197.389527 
L 158.497848 -198.488846 
L 159.50426 -199.550763 
L 160.510673 -200.574825 
L 161.517086 -201.560682 
L 162.523499 -202.508087 
L 163.529912 -203.416884 
L 164.536325 -204.287 
L 165.542737 -205.118437 
L 166.54915 -205.911263 
L 167.555563 -206.665603 
L 168.561976 -207.38163 
L 169.568389 -208.059562 
L 170.574801 -208.699649 
L 171.581214 -209.302173 
L 172.587627 -209.867441 
L 173.59404 -210.395781 
L 174.600453 -210.887539 
L 175.606866 -211.343077 
L 176.613278 -211.76277 
L 177.619691 -212.147005 
L 178.626104 -212.496182 
L 179.632517 -212.810708 
L 180.63893 -213.091002 
L 181.645343 -213.337492 
L 182.651755 -213.550615 
L 183.658168 -213.730817 
L 184.664581 -213.878555 
L 185.670994 -213.994294 
L 186.677407 -214.07851 
L 187.68382 -214.131688 
L 188.690232 -214.154322 
L 189.696645 -214.14692 
L 190.703058 -214.109998 
L 191.709471 -214.044083 
L 192.715884 -213.949712 
L 193.722296 -213.827436 
L 194.728709 -213.677815 
L 195.735122 -213.50142 
L 196.741535 -213.298835 
L 197.747948 -213.070654 
L 198.754361 -212.817481 
L 199.760773 -212.539934 
L 200.767186 -212.238641 
L 201.773599 -211.914241 
L 202.780012 -211.567382 
L 203.786425 -211.198726 
L 204.792838 -210.808942 
L 205.79925 -210.398714 
L 206.805663 -209.96873 
L 207.812076 -209.519692 
L 208.818489 -209.05231 
L 209.824902 -208.567304 
L 210.831315 -208.0654 
L 211.837727 -207.547335 
L 212.84414 -207.013853 
L 213.850553 -206.465705 
L 214.856966 -205.903649 
L 215.863379 -205.328449 
L 216.869791 -204.740877 
L 217.876204 -204.141707 
L 218.882617 -203.531719 
L 219.88903 -202.9117 
L 220.895443 -202.282435 
L 221.901856 -201.644716 
L 222.908268 -200.999335 
L 223.914681 -200.347086 
L 224.921094 -199.688763 
L 225.927507 -199.02516 
L 226.93392 -198.35707 
L 227.940333 -197.685284 
L 228.946745 -197.010588 
L 229.953158 -196.333767 
L 230.959571 -195.655598 
L 231.965984 -194.976855 
L 232.972397 -194.298301 
L 233.978809 -193.620694 
L 234.985222 -192.94478 
L 235.991635 -192.271295 
L 236.998048 -191.600963 
L 238.004461 -190.934493 
L 239.010874 -190.272579 
L 240.017286 -189.615898 
L 241.023699 -188.96511 
L 242.030112 -188.320851 
L 243.036525 -187.683739 
L 244.042938 -187.054365 
L 245.049351 -186.433294 
L 246.055763 -185.821064 
L 247.062176 -185.21818 
L 248.068589 -184.625116 
L 249.075002 -184.04231 
L 250.081415 -183.470163 
L 251.087828 -182.909035 
L 252.09424 -182.359242 
L 253.100653 -181.821057 
L 254.107066 -181.294706 
L 255.113479 -180.780365 
L 256.119892 -180.278159 
L 257.126304 -179.788164 
L 258.132717 -179.310403 
L 259.13913 -178.844849 
L 260.145543 -178.391427 
L 261.151956 -177.950019 
L 262.158369 -177.520467 
L 263.164781 -177.102584 
L 264.171194 -176.696162 
L 265.177607 -176.300987 
L 266.18402 -175.916852 
L 267.190433 -175.543577 
L 268.196846 -175.181024 
L 269.203258 -174.829119 
L 270.209671 -174.487872 
L 271.216084 -174.15739 
L 272.222497 -173.837894 
L 273.22891 -173.529728 
L 274.235323 -173.233362 
L 275.241735 -172.949391 
L 276.248148 -172.678525 
L 277.254561 -172.421578 
L 278.260974 -172.179448 
L 279.267387 -171.953098 
L 280.273799 -171.743531 
L 281.280212 -171.55177 
L 282.286625 -171.378835 
L 283.293038 -171.225721 
L 284.299451 -171.093386 
L 285.305864 -170.982729 
L 286.312276 -170.894586 
L 287.318689 -170.829715 
L 288.325102 -170.788795 
L 289.331515 -170.772417 
L 290.337928 -170.781083 
L 291.344341 -170.815209 
L 292.350753 -170.875119 
L 293.357166 -170.961051 
L 294.363579 -171.073157 
L 295.369992 -171.211504 
L 296.376405 -171.37608 
L 297.382818 -171.566794 
L 298.38923 -171.783479 
L 299.395643 -172.025894 
L 300.402056 -172.293733 
L 301.408469 -172.586618 
L 302.414882 -172.904111 
L 303.421294 -173.24571 
L 304.427707 -173.610857 
L 305.43412 -173.998936 
L 306.440533 -174.409279 
L 307.446946 -174.841167 
L 308.453359 -175.293832 
L 309.459771 -175.766462 
L 310.466184 -176.258198 
L 311.472597 -176.768144 
L 312.47901 -177.295362 
L 313.485423 -177.83888 
L 314.491836 -178.397689 
L 315.498248 -178.97075 
L 316.504661 -179.556995 
L 317.511074 -180.155327 
L 318.517487 -180.764625 
L 319.5239 -181.383744 
L 320.530313 -182.011521 
L 321.536725 -182.646773 
L 322.543138 -183.288301 
L 323.549551 -183.934893 
L 324.555964 -184.585327 
L 325.562377 -185.23837 
L 326.568789 -185.892785 
L 327.575202 -186.547329 
L 328.581615 -187.200758 
L 329.588028 -187.851828 
L 330.594441 -188.499299 
L 331.600854 -189.141934 
L 332.607266 -189.778506 
L 333.613679 -190.407796 
L 334.620092 -191.0286 
L 335.626505 -191.639725 
L 336.632918 -192.239995 
L 337.639331 -192.828256 
L 338.645743 -193.403372 
L 339.652156 -193.964231 
L 340.658569 -194.509746 
L 341.664982 -195.038859 
L 342.671395 -195.550538 
L 343.677807 -196.043785 
L 344.68422 -196.517634 
L 345.690633 -196.971154 
L 346.697046 -197.40345 
L 347.703459 -197.813666 
L 348.709872 -198.200983 
L 349.716284 -198.564627 
L 350.722697 -198.903862 
L 351.72911 -199.217998 
L 352.735523 -199.506389 
L 353.741936 -199.768432 
L 354.748349 -200.003574 
L 355.754761 -200.211305 
L 356.761174 -200.391164 
L 357.767587 -200.542736 
L 358.774 -200.665655 
L 359.780413 -200.759602 
L 360.786826 -200.824305 
L 361.793238 -200.859538 
L 362.799651 -200.865124 
L 363.806064 -200.840928 
L 364.812477 -200.786864 
L 365.81889 -200.702886 
L 366.825302 -200.588992 
L 367.831715 -200.445222 
L 368.838128 -200.271654 
L 369.844541 -200.068404 
L 370.850954 -199.835625 
L 371.857367 -199.573502 
L 372.863779 -199.282255 
L 373.870192 -198.962131 
L 374.876605 -198.613405 
L 375.883018 -198.23638 
L 376.889431 -197.831379 
L 377.895844 -197.398749 
L 378.902256 -196.938857 
L 379.908669 -196.452087 
L 380.915082 -195.938842 
L 381.921495 -195.39954 
L 382.927908 -194.834619 
L 383.934321 -194.244532 
L 384.940733 -193.629755 
L 385.947146 -192.990783 
L 386.953559 -192.328139 
L 387.959972 -191.642376 
L 388.966385 -190.934084 
L 389.972797 -190.203892 
L 390.97921 -189.452481 
L 391.985623 -188.680587 
L 392.992036 -187.889008 
L 393.998449 -187.078612 
L 395.004862 -186.250342 
L 396.011274 -185.405221 
L 397.017687 -184.544353 
L 398.0241 -183.668925 
L 399.030513 -182.780205 
L 400.036926 -181.879542 
L 401.043339 -180.968357 
L 402.049751 -180.048138 
L 403.056164 -179.120436 
L 404.062577 -178.186852 
L 405.06899 -177.24903 
L 406.075403 -176.308649 
L 407.081816 -175.367415 
L 408.088228 -174.427049 
L 409.094641 -173.489286 
L 410.101054 -172.555861 
L 411.107467 -171.628507 
L 412.11388 -170.708947 
L 413.120292 -169.798893 
L 414.126705 -168.900037 
L 415.133118 -168.014049 
L 416.139531 -167.142577 
L 417.145944 -166.287237 
L 418.152357 -165.449618 
L 419.158769 -164.631274 
L 420.165182 -163.833726 
L 421.171595 -163.058458 
L 422.178008 -162.306914 
L 423.184421 -161.5805 
L 424.190834 -160.880579 
L 425.197246 -160.208472 
L 426.203659 -159.565453 
L 427.210072 -158.952752 
L 428.216485 -158.371551 
L 429.222898 -157.82298 
L 430.22931 -157.308123 
L 431.235723 -156.828008 
L 432.242136 -156.383611 
L 433.248549 -155.975852 
L 434.254962 -155.605596 
L 435.261375 -155.273647 
L 436.267787 -154.98075 
L 437.2742 -154.727591 
L 438.280613 -154.514788 
L 439.287026 -154.342897 
L 440.293439 -154.212405 
L 441.299852 -154.123732 
L 442.306264 -154.077225 
L 443.312677 -154.073158 
L 444.31909 -154.111728 
L 445.325503 -154.193054 
L 446.331916 -154.317174 
L 447.338329 -154.484041 
L 448.344741 -154.693519 
L 449.351154 -154.945382 
L 450.357567 -155.239305 
L 451.36398 -155.574864 
L 452.370393 -155.95153 
L 453.376805 -156.368662 
L 454.383218 -156.825501 
L 455.389631 -157.321165 
L 456.396044 -157.854641 
L 457.402457 -158.424779 
L 458.40887 -159.030281 
L 459.415282 -159.669699 
L 460.421695 -160.34142 
L 461.428108 -161.043668 
L 462.434521 -161.774493 
L 463.440934 -162.531767 
L 464.447347 -163.313189 
L 465.453759 -164.116286 
L 466.460172 -164.938422 
L 467.466585 -165.776816 
L 468.472998 -166.628565 
L 469.479411 -167.490677 
L 470.485824 -168.360114 
L 471.492236 -169.233837 
L 472.498649 -170.108863 
L 473.505062 -170.982324 
L 474.511475 -171.851519 
L 475.517888 -172.71397 
L 476.5243 -173.567459 
L 477.530713 -174.410059 
L 478.537126 -175.240142 
L 479.543539 -176.056381 
L 480.549952 -176.857733 
L 481.556365 -177.643407 
L 482.562777 -178.412834 
L 483.56919 -179.165625 
L 484.575603 -179.901535 
L 485.582016 -180.62042 
L 486.588429 -181.322211 
L 487.594842 -182.006881 
L 488.601254 -182.674424 
L 489.607667 -183.324839 
L 490.61408 -183.958112 
L 491.620493 -184.574214 
L 492.626906 -185.17309 
L 493.633319 -185.754657 
L 494.639731 -186.318807 
L 495.646144 -186.8654 
L 496.652557 -187.394276 
L 497.65897 -187.905245 
L 498.665383 -188.398102 
L 499.671795 -188.872621 
L 500.678208 -189.328563 
L 501.684621 -189.765677 
L 502.691034 -190.183705 
L 503.697447 -190.582382 
L 504.70386 -190.961441 
L 505.710272 -191.320618 
L 506.716685 -191.659647 
L 507.723098 -191.97827 
L 508.729511 -192.276234 
L 509.735924 -192.553296 
L 510.742337 -192.809223 
L 511.748749 -193.043792 
L 512.755162 -193.256796 
L 513.761575 -193.44804 
L 514.767988 -193.617344 
L 515.774401 -193.764548 
L 516.780814 -193.889504 
L 517.787226 -193.992085 
L 518.793639 -194.072182 
L 519.800052 -194.129703 
L 520.806465 -194.164578 
L 521.812878 -194.176755 
L 522.81929 -194.166201 
L 523.825703 -194.132904 
L 524.832116 -194.076873 
L 525.838529 -193.998135 
L 526.844942 -193.896739 
L 527.851355 -193.772754 
L 528.857767 -193.626267 
L 529.86418 -193.457387 
L 530.870593 -193.266241 
L 531.877006 -193.052976 
L 532.883419 -192.817758 
L 533.889832 -192.560772 
L 534.896244 -192.28222 
L 535.902657 -191.982324 
L 536.90907 -191.661322 
L 537.915483 -191.319469 
L 538.921896 -190.957037 
L 539.928308 -190.574314 
L 540.934721 -190.171604 
L 541.941134 -189.749226 
L 542.947547 -189.307512 
L 543.95396 -188.846811 
L 544.960373 -188.367481 
L 545.966785 -187.869897 
L 546.973198 -187.354443 
L 547.979611 -186.821517 
L 548.986024 -186.271526 
L 549.992437 -185.704888 
L 550.99885 -185.12203 
L 552.005262 -184.52339 
L 553.011675 -183.909412 
L 554.018088 -183.280549 
L 554.018088 -300.645453 
L 554.018088 -300.645453 
L 553.011675 -300.005018 
L 552.005262 -299.332361 
L 550.99885 -298.62732 
L 549.992437 -297.889761 
L 548.986024 -297.119575 
L 547.979611 -296.316684 
L 546.973198 -295.481038 
L 545.966785 -294.612618 
L 544.960373 -293.711435 
L 543.95396 -292.777531 
L 542.947547 -291.81098 
L 541.941134 -290.811888 
L 540.934721 -289.780395 
L 539.928308 -288.716674 
L 538.921896 -287.620929 
L 537.915483 -286.493403 
L 536.90907 -285.33437 
L 535.902657 -284.144141 
L 534.896244 -282.923061 
L 533.889832 -281.671512 
L 532.883419 -280.389911 
L 531.877006 -279.078711 
L 530.870593 -277.738403 
L 529.86418 -276.369513 
L 528.857767 -274.972605 
L 527.851355 -273.548278 
L 526.844942 -272.097169 
L 525.838529 -270.619953 
L 524.832116 -269.117341 
L 523.825703 -267.59008 
L 522.81929 -266.038957 
L 521.812878 -264.464792 
L 520.806465 -262.868444 
L 519.800052 -261.250809 
L 518.793639 -259.612819 
L 517.787226 -257.955443 
L 516.780814 -256.279686 
L 515.774401 -254.586588 
L 514.767988 -252.877227 
L 513.761575 -251.152717 
L 512.755162 -249.414206 
L 511.748749 -247.662879 
L 510.742337 -245.899958 
L 509.735924 -244.126698 
L 508.729511 -242.344391 
L 507.723098 -240.554367 
L 506.716685 -238.757988 
L 505.710272 -236.956656 
L 504.70386 -235.151808 
L 503.697447 -233.344918 
L 502.691034 -231.537498 
L 501.684621 -229.731098 
L 500.678208 -227.927308 
L 499.671795 -226.127757 
L 498.665383 -224.334116 
L 497.65897 -222.548098 
L 496.652557 -220.771458 
L 495.646144 -219.005996 
L 494.639731 -217.253557 
L 493.633319 -215.516032 
L 492.626906 -213.795355 
L 491.620493 -212.093508 
L 490.61408 -210.412513 
L 489.607667 -208.754434 
L 488.601254 -207.121366 
L 487.594842 -205.515431 
L 486.588429 -203.938765 
L 485.582016 -202.393502 
L 484.575603 -200.881754 
L 483.56919 -199.405585 
L 482.562777 -197.966981 
L 481.556365 -196.567814 
L 480.549952 -195.209802 
L 479.543539 -193.894466 
L 478.537126 -192.623088 
L 477.530713 -191.396677 
L 476.5243 -190.215933 
L 475.517888 -189.081231 
L 474.511475 -187.992614 
L 473.505062 -186.949804 
L 472.498649 -185.952227 
L 471.492236 -184.999048 
L 470.485824 -184.089226 
L 469.479411 -183.221557 
L 468.472998 -182.394742 
L 467.466585 -181.607426 
L 466.460172 -180.858253 
L 465.453759 -180.145903 
L 464.447347 -179.469119 
L 463.440934 -178.826731 
L 462.434521 -178.217671 
L 461.428108 -177.640979 
L 460.421695 -177.095802 
L 459.415282 -176.581398 
L 458.40887 -176.097126 
L 457.402457 -175.642441 
L 456.396044 -175.216884 
L 455.389631 -174.820073 
L 454.383218 -174.451697 
L 453.376805 -174.1115 
L 452.370393 -173.79928 
L 451.36398 -173.514875 
L 450.357567 -173.258158 
L 449.351154 -173.029027 
L 448.344741 -172.827404 
L 447.338329 -172.653222 
L 446.331916 -172.506425 
L 445.325503 -172.386961 
L 444.31909 -172.294778 
L 443.312677 -172.229819 
L 442.306264 -172.192024 
L 441.299852 -172.181317 
L 440.293439 -172.197612 
L 439.287026 -172.240809 
L 438.280613 -172.31079 
L 437.2742 -172.407415 
L 436.267787 -172.530529 
L 435.261375 -172.679951 
L 434.254962 -172.855481 
L 433.248549 -173.056891 
L 432.242136 -173.283934 
L 431.235723 -173.536335 
L 430.22931 -173.813798 
L 429.222898 -174.115998 
L 428.216485 -174.442588 
L 427.210072 -174.793198 
L 426.203659 -175.167431 
L 425.197246 -175.564869 
L 424.190834 -175.98507 
L 423.184421 -176.427571 
L 422.178008 -176.891888 
L 421.171595 -177.377515 
L 420.165182 -177.883929 
L 419.158769 -178.410589 
L 418.152357 -178.956936 
L 417.145944 -179.522396 
L 416.139531 -180.106379 
L 415.133118 -180.708284 
L 414.126705 -181.327494 
L 413.120292 -181.963383 
L 412.11388 -182.615311 
L 411.107467 -183.282626 
L 410.101054 -183.964666 
L 409.094641 -184.660755 
L 408.088228 -185.370203 
L 407.081816 -186.092304 
L 406.075403 -186.826332 
L 405.06899 -187.571541 
L 404.062577 -188.327157 
L 403.056164 -189.092375 
L 402.049751 -189.866358 
L 401.043339 -190.648224 
L 400.036926 -191.437048 
L 399.030513 -192.231855 
L 398.0241 -193.031615 
L 397.017687 -193.835244 
L 396.011274 -194.641597 
L 395.004862 -195.449475 
L 393.998449 -196.257623 
L 392.992036 -197.064738 
L 391.985623 -197.869472 
L 390.97921 -198.67044 
L 389.972797 -199.466233 
L 388.966385 -200.255422 
L 387.959972 -201.036573 
L 386.953559 -201.808255 
L 385.947146 -202.569049 
L 384.940733 -203.31756 
L 383.934321 -204.052424 
L 382.927908 -204.772315 
L 381.921495 -205.47595 
L 380.915082 -206.162097 
L 379.908669 -206.829579 
L 378.902256 -207.477275 
L 377.895844 -208.104124 
L 376.889431 -208.709126 
L 375.883018 -209.291343 
L 374.876605 -209.849903 
L 373.870192 -210.383992 
L 372.863779 -210.892863 
L 371.857367 -211.375829 
L 370.850954 -211.832264 
L 369.844541 -212.261603 
L 368.838128 -212.663341 
L 367.831715 -213.03703 
L 366.825302 -213.38228 
L 365.81889 -213.698756 
L 364.812477 -213.986178 
L 363.806064 -214.244318 
L 362.799651 -214.473001 
L 361.793238 -214.672103 
L 360.786826 -214.841549 
L 359.780413 -214.981312 
L 358.774 -215.091413 
L 357.767587 -215.171918 
L 356.761174 -215.222938 
L 355.754761 -215.244629 
L 354.748349 -215.237187 
L 353.741936 -215.200853 
L 352.735523 -215.135906 
L 351.72911 -215.042666 
L 350.722697 -214.92149 
L 349.716284 -214.772774 
L 348.709872 -214.596952 
L 347.703459 -214.39449 
L 346.697046 -214.165891 
L 345.690633 -213.911692 
L 344.68422 -213.632463 
L 343.677807 -213.328804 
L 342.671395 -213.001348 
L 341.664982 -212.650756 
L 340.658569 -212.27772 
L 339.652156 -211.882957 
L 338.645743 -211.467215 
L 337.639331 -211.031264 
L 336.632918 -210.575901 
L 335.626505 -210.101945 
L 334.620092 -209.610241 
L 333.613679 -209.101652 
L 332.607266 -208.577064 
L 331.600854 -208.037381 
L 330.594441 -207.483525 
L 329.588028 -206.916436 
L 328.581615 -206.337071 
L 327.575202 -205.746399 
L 326.568789 -205.145405 
L 325.562377 -204.535085 
L 324.555964 -203.916447 
L 323.549551 -203.290509 
L 322.543138 -202.658298 
L 321.536725 -202.020847 
L 320.530313 -201.379199 
L 319.5239 -200.7344 
L 318.517487 -200.087501 
L 317.511074 -199.439557 
L 316.504661 -198.791623 
L 315.498248 -198.144758 
L 314.491836 -197.500021 
L 313.485423 -196.858468 
L 312.47901 -196.221157 
L 311.472597 -195.58914 
L 310.466184 -194.96347 
L 309.459771 -194.345193 
L 308.453359 -193.735354 
L 307.446946 -193.134992 
L 306.440533 -192.54514 
L 305.43412 -191.966828 
L 304.427707 -191.401081 
L 303.421294 -190.848917 
L 302.414882 -190.311352 
L 301.408469 -189.789395 
L 300.402056 -189.284052 
L 299.395643 -188.796326 
L 298.38923 -188.327219 
L 297.382818 -187.87773 
L 296.376405 -187.448858 
L 295.369992 -187.041605 
L 294.363579 -186.656975 
L 293.357166 -186.295976 
L 292.350753 -185.959623 
L 291.344341 -185.648939 
L 290.337928 -185.364954 
L 289.331515 -185.108709 
L 288.325102 -184.881256 
L 287.318689 -184.683657 
L 286.312276 -184.516982 
L 285.305864 -184.382308 
L 284.299451 -184.280712 
L 283.293038 -184.213268 
L 282.286625 -184.181037 
L 281.280212 -184.185052 
L 280.273799 -184.22631 
L 279.267387 -184.30575 
L 278.260974 -184.424234 
L 277.254561 -184.582531 
L 276.248148 -184.781286 
L 275.241735 -185.021006 
L 274.235323 -185.302038 
L 273.22891 -185.624549 
L 272.222497 -185.988516 
L 271.216084 -186.393721 
L 270.209671 -186.839746 
L 269.203258 -187.325982 
L 268.196846 -187.851636 
L 267.190433 -188.41575 
L 266.18402 -189.01722 
L 265.177607 -189.65481 
L 264.171194 -190.327182 
L 263.164781 -191.03291 
L 262.158369 -191.770503 
L 261.151956 -192.538418 
L 260.145543 -193.33508 
L 259.13913 -194.158889 
L 258.132717 -195.008237 
L 257.126304 -195.881506 
L 256.119892 -196.777084 
L 255.113479 -197.693364 
L 254.107066 -198.628747 
L 253.100653 -199.581648 
L 252.09424 -200.550492 
L 251.087828 -201.53372 
L 250.081415 -202.529788 
L 249.075002 -203.537165 
L 248.068589 -204.554335 
L 247.062176 -205.579796 
L 246.055763 -206.612061 
L 245.049351 -207.649658 
L 244.042938 -208.691127 
L 243.036525 -209.735025 
L 242.030112 -210.779922 
L 241.023699 -211.824402 
L 240.017286 -212.867065 
L 239.010874 -213.906525 
L 238.004461 -214.941412 
L 236.998048 -215.970373 
L 235.991635 -216.992071 
L 234.985222 -218.005184 
L 233.978809 -219.00841 
L 232.972397 -220.000467 
L 231.965984 -220.980087 
L 230.959571 -221.946028 
L 229.953158 -222.897063 
L 228.946745 -223.831991 
L 227.940333 -224.749632 
L 226.93392 -225.648826 
L 225.927507 -226.528441 
L 224.921094 -227.387369 
L 223.914681 -228.224524 
L 222.908268 -229.038851 
L 221.901856 -229.829319 
L 220.895443 -230.594926 
L 219.88903 -231.334699 
L 218.882617 -232.047693 
L 217.876204 -232.732994 
L 216.869791 -233.38972 
L 215.863379 -234.017018 
L 214.856966 -234.614068 
L 213.850553 -235.180085 
L 212.84414 -235.714315 
L 211.837727 -236.216038 
L 210.831315 -236.684569 
L 209.824902 -237.11926 
L 208.818489 -237.519495 
L 207.812076 -237.884698 
L 206.805663 -238.214326 
L 205.79925 -238.507876 
L 204.792838 -238.764881 
L 203.786425 -238.984912 
L 202.780012 -239.167577 
L 201.773599 -239.312525 
L 200.767186 -239.419441 
L 199.760773 -239.488053 
L 198.754361 -239.518124 
L 197.747948 -239.509461 
L 196.741535 -239.461907 
L 195.735122 -239.375348 
L 194.728709 -239.249709 
L 193.722296 -239.084956 
L 192.715884 -238.881097 
L 191.709471 -238.638179 
L 190.703058 -238.356292 
L 189.696645 -238.035566 
L 188.690232 -237.676173 
L 187.68382 -237.278328 
L 186.677407 -236.842286 
L 185.670994 -236.368344 
L 184.664581 -235.856843 
L 183.658168 -235.308164 
L 182.651755 -234.722731 
L 181.645343 -234.10101 
L 180.63893 -233.443509 
L 179.632517 -232.750778 
L 178.626104 -232.023408 
L 177.619691 -231.262032 
L 176.613278 -230.467322 
L 175.606866 -229.639991 
L 174.600453 -228.780788 
L 173.59404 -227.890502 
L 172.587627 -226.969953 
L 171.581214 -226.019997 
L 170.574801 -225.041516 
L 169.568389 -224.035419 
L 168.561976 -223.002636 
L 167.555563 -221.944113 
L 166.54915 -220.860804 
L 165.542737 -219.753667 
L 164.536325 -218.623652 
L 163.529912 -217.471697 
L 162.523499 -216.298716 
L 161.517086 -215.105589 
L 160.510673 -213.893153 
L 159.50426 -212.662195 
L 158.497848 -211.413438 
L 157.491435 -210.14754 
L 156.485022 -208.865082 
L 155.478609 -207.566571 
L 154.472196 -206.252433 
L 153.465783 -204.923017 
L 152.459371 -203.5786 
L 151.452958 -202.219391 
L 150.446545 -200.845539 
L 149.440132 -199.457147 
L 148.433719 -198.054279 
L 147.427306 -196.636972 
L 146.420894 -195.205252 
L 145.414481 -193.759143 
L 144.408068 -192.298678 
L 143.401655 -190.82391 
L 142.395242 -189.334923 
L 141.38883 -187.831837 
L 140.382417 -186.314817 
L 139.376004 -184.78408 
L 138.369591 -183.239898 
L 137.363178 -181.682605 
L 136.356765 -180.112594 
L 135.350353 -178.53033 
L 134.34394 -176.936344 
L 133.337527 -175.331239 
L 132.331114 -173.715692 
L 131.324701 -172.090454 
L 130.318288 -170.456356 
L 129.311876 -168.814306 
L 128.305463 -167.165294 
L 127.29905 -165.510397 
L 126.292637 -163.850772 
L 125.286224 -162.18767 
L 124.279812 -160.522428 
L 123.273399 -158.856476 
L 122.266986 -157.191335 
L 121.260573 -155.52862 
L 120.25416 -153.870037 
L 119.247747 -152.217379 
L 118.241335 -150.572525 
L 117.234922 -148.937434 
L 116.228509 -147.314131 
L 115.222096 -145.704697 
L 114.215683 -144.111258 
L 113.20927 -142.535963 
L 112.202858 -140.980962 
L 111.196445 -139.448389 
L 110.190032 -137.940335 
L 109.183619 -136.458823 
L 108.177206 -135.005789 
L 107.170793 -133.583056 
L 106.164381 -132.19232 
L 105.157968 -130.835136 
L 104.151555 -129.512909 
L 103.145142 -128.226891 
L 102.138729 -126.97818 
L 101.132317 -125.767727 
L 100.125904 -124.596343 
L 99.119491 -123.464711 
L 98.113078 -122.3734 
L 97.106665 -121.322874 
L 96.100252 -120.313509 
L 95.09384 -119.345606 
L 94.087427 -118.419397 
L 93.081014 -117.535064 
L 92.074601 -116.692739 
L 91.068188 -115.892519 
L 90.061775 -115.134468 
L 89.055363 -114.418621 
L 88.04895 -113.744993 
L 87.042537 -113.113576 
L 86.036124 -112.524345 
L 85.029711 -111.97726 
L 84.023298 -111.472263 
L 83.016886 -111.009282 
L 82.010473 -110.58823 
L 81.00406 -110.209007 
L 79.997647 -109.871495 
L 78.991234 -109.575564 
L 77.984822 -109.321067 
L 76.978409 -109.107842 
L 75.971996 -108.93571 
L 74.965583 -108.804477 
L 73.95917 -108.71393 
L 72.952757 -108.66384 
L 71.946345 -108.653962 
L 70.939932 -108.68403 
L 69.933519 -108.753762 
L 68.927106 -108.862859 
L 67.920693 -109.011001 
L 66.91428 -109.197853 
L 65.907868 -109.423059 
L 64.901455 -109.686245 
L 63.895042 -109.987022 
L 62.888629 -110.324979 
L 61.882216 -110.699689 
L 60.875803 -111.110709 
L 59.869391 -111.557575 
L 58.862978 -112.03981 
L 57.856565 -112.556917 
L 56.850152 -113.108384 
L 55.843739 -113.693684 
L 54.837327 -114.312272 
L 53.830914 -114.96359 
L 52.824501 -115.647064 
L 51.818088 -116.362108 
z
" id="mf07b58e057" style="stroke:#b0c4de;stroke-opacity:0.5;"/>
    </defs>
    <g clip-path="url(#pc8178af052)">
     <use style="fill:#b0c4de;fill-opacity:0.5;stroke:#b0c4de;stroke-opacity:0.5;" x="0" xlink:href="#mf07b58e057" y="330.939269"/>
    </g>
   </g>
   <g id="matplotlib.axis_1">
    <g id="xtick_1">
     <g id="line2d_1">
      <defs>
       <path d="M 0 0 
L 0 3.5 
" id="md582e7f920" style="stroke:#000000;stroke-width:0.8;"/>
      </defs>
      <g>
       <use style="stroke:#000000;stroke-width:0.8;" x="51.818088" xlink:href="#md582e7f920" y="284.4"/>
      </g>
     </g>
     <g id="text_1">
      <!-- $\mathdefault{−10.0}$ -->
      <g transform="translate(34.254435 301.085876)scale(0.14 -0.14)">
       <defs>
        <path d="M 65.90625 23 
C 67.59375 23 69.40625 23 69.40625 25 
C 69.40625 27 67.59375 27 65.90625 27 
L 11.796875 27 
C 10.09375 27 8.296875 27 8.296875 25 
C 8.296875 23 10.09375 23 11.796875 23 
z
" id="CMSY10-0"/>
        <path d="M 26.59375 63.40625 
C 26.59375 65.5 26.5 65.5 25.09375 65.5 
C 21.203125 61.1875 15.296875 59.796875 9.703125 59.796875 
C 9.40625 59.796875 8.90625 59.796875 8.796875 59.5 
C 8.703125 59.296875 8.703125 59.09375 8.703125 57 
C 11.796875 57 17 57.59375 21 59.984375 
L 21 7.203125 
C 21 3.6875 20.796875 2.5 12.203125 2.5 
L 9.203125 2.5 
L 9.203125 0 
C 14 0 19 0 23.796875 0 
C 28.59375 0 33.59375 0 38.40625 0 
L 38.40625 2.5 
L 35.40625 2.5 
C 26.796875 2.5 26.59375 3.59375 26.59375 7.15625 
z
" id="CMR17-49"/>
        <path d="M 42 31.640625 
C 42 37.75 41.90625 48.125 37.703125 56.109375 
C 34 63.109375 28.09375 65.59375 22.90625 65.59375 
C 18.09375 65.59375 12 63.40625 8.203125 56.203125 
C 4.203125 48.71875 3.796875 39.4375 3.796875 31.640625 
C 3.796875 25.953125 3.90625 17.28125 7 9.671875 
C 11.296875 -0.609375 19 -2 22.90625 -2 
C 27.5 -2 34.5 -0.109375 38.59375 9.375 
C 41.59375 16.28125 42 24.359375 42 31.640625 
z
M 22.90625 -0.40625 
C 16.5 -0.40625 12.703125 5.078125 11.296875 12.6875 
C 10.203125 18.5625 10.203125 27.15625 10.203125 32.75 
C 10.203125 40.4375 10.203125 46.828125 11.5 52.921875 
C 13.40625 61.390625 19 64 22.90625 64 
C 27 64 32.296875 61.296875 34.203125 53.125 
C 35.5 47.4375 35.59375 40.734375 35.59375 32.75 
C 35.59375 26.25 35.59375 18.265625 34.40625 12.375 
C 32.296875 1.484375 26.40625 -0.40625 22.90625 -0.40625 
z
" id="CMR17-48"/>
        <path d="M 18.40625 4.796875 
C 18.40625 7.6875 16 9.671875 13.59375 9.671875 
C 10.703125 9.671875 8.703125 7.28125 8.703125 4.890625 
C 8.703125 2 11.09375 0 13.5 0 
C 16.40625 0 18.40625 2.390625 18.40625 4.796875 
z
" id="CMMI12-58"/>
       </defs>
       <use transform="scale(0.996264)" xlink:href="#CMSY10-0"/>
       <use transform="translate(77.487468 0)scale(0.996264)" xlink:href="#CMR17-49"/>
       <use transform="translate(123.177945 0)scale(0.996264)" xlink:href="#CMR17-48"/>
       <use transform="translate(168.868422 0)scale(0.996264)" xlink:href="#CMMI12-58"/>
       <use transform="translate(195.965599 0)scale(0.996264)" xlink:href="#CMR17-48"/>
      </g>
     </g>
    </g>
    <g id="xtick_2">
     <g id="line2d_2">
      <g>
       <use style="stroke:#000000;stroke-width:0.8;" x="114.593088" xlink:href="#md582e7f920" y="284.4"/>
      </g>
     </g>
     <g id="text_2">
      <!-- $\mathdefault{−7.5}$ -->
      <g transform="translate(100.443679 301.085876)scale(0.14 -0.14)">
       <defs>
        <path d="M 45.09375 61.578125 
L 45.09375 63.765625 
L 21.59375 63.765625 
C 9.90625 63.765625 9.703125 65.078125 9.296875 67 
L 7.5 67 
L 4.59375 48.34375 
L 6.40625 48.34375 
C 6.703125 50.234375 7.40625 55.3125 8.59375 57.203125 
C 9.203125 58 16.59375 58 18.296875 58 
L 40.296875 58 
L 29.203125 41.578125 
C 21.796875 30.53125 16.703125 15.609375 16.703125 2.578125 
C 16.703125 1.390625 16.703125 -2 20.296875 -2 
C 23.90625 -2 23.90625 1.390625 23.90625 2.671875 
L 23.90625 7.265625 
C 23.90625 23.5625 26.703125 34.3125 31.296875 41.1875 
z
" id="CMR17-55"/>
        <path d="M 11.40625 57.6875 
C 12.40625 57.28125 16.5 56 20.703125 56 
C 30 56 35.09375 61.109375 38 64.0625 
C 38 64.953125 38 65.5 37.40625 65.5 
C 37.296875 65.5 37.09375 65.5 36.296875 65.046875 
C 32.796875 63.40625 28.703125 62.078125 23.703125 62.078125 
C 20.703125 62.078125 16.203125 62.484375 11.296875 64.671875 
C 10.203125 65.171875 10 65.171875 9.90625 65.171875 
C 9.40625 65.171875 9.296875 65.0625 9.296875 63.078125 
L 9.296875 34.421875 
C 9.296875 32.640625 9.296875 32.140625 10.296875 32.140625 
C 10.796875 32.140625 11 32.34375 11.5 33.03125 
C 14.703125 37.515625 19.09375 39.40625 24.09375 39.40625 
C 27.59375 39.40625 35.09375 37.21875 35.09375 20.140625 
C 35.09375 16.953125 35.09375 11.171875 32.09375 6.578125 
C 29.59375 2.484375 25.703125 0.390625 21.40625 0.390625 
C 14.796875 0.390625 8.09375 5 6.296875 12.71875 
C 6.703125 12.609375 7.5 12.421875 7.90625 12.421875 
C 9.203125 12.421875 11.703125 13.125 11.703125 16.21875 
C 11.703125 18.90625 9.796875 20 7.90625 20 
C 5.59375 20 4.09375 18.59375 4.09375 15.796875 
C 4.09375 7.09375 11 -2 21.59375 -2 
C 31.90625 -2 41.703125 6.875 41.703125 19.75 
C 41.703125 31.71875 33.90625 41 24.203125 41 
C 19.09375 41 14.796875 39.109375 11.40625 35.53125 
z
" id="CMR17-53"/>
       </defs>
       <use transform="scale(0.996264)" xlink:href="#CMSY10-0"/>
       <use transform="translate(77.487468 0)scale(0.996264)" xlink:href="#CMR17-55"/>
       <use transform="translate(123.177945 0)scale(0.996264)" xlink:href="#CMMI12-58"/>
       <use transform="translate(150.275122 0)scale(0.996264)" xlink:href="#CMR17-53"/>
      </g>
     </g>
    </g>
    <g id="xtick_3">
     <g id="line2d_3">
      <g>
       <use style="stroke:#000000;stroke-width:0.8;" x="177.368088" xlink:href="#md582e7f920" y="284.4"/>
      </g>
     </g>
     <g id="text_3">
      <!-- $\mathdefault{−5.0}$ -->
      <g transform="translate(163.218679 301.085876)scale(0.14 -0.14)">
       <use transform="scale(0.996264)" xlink:href="#CMSY10-0"/>
       <use transform="translate(77.487468 0)scale(0.996264)" xlink:href="#CMR17-53"/>
       <use transform="translate(123.177945 0)scale(0.996264)" xlink:href="#CMMI12-58"/>
       <use transform="translate(150.275122 0)scale(0.996264)" xlink:href="#CMR17-48"/>
      </g>
     </g>
    </g>
    <g id="xtick_4">
     <g id="line2d_4">
      <g>
       <use style="stroke:#000000;stroke-width:0.8;" x="240.143088" xlink:href="#md582e7f920" y="284.4"/>
      </g>
     </g>
     <g id="text_4">
      <!-- $\mathdefault{−2.5}$ -->
      <g transform="translate(225.993679 301.085876)scale(0.14 -0.14)">
       <defs>
        <path d="M 41.703125 15.453125 
L 39.90625 15.453125 
C 38.90625 8.375 38.09375 7.171875 37.703125 6.5625 
C 37.203125 5.765625 30 5.765625 28.59375 5.765625 
L 9.40625 5.765625 
C 13 9.671875 20 16.75 28.5 24.953125 
C 34.59375 30.734375 41.703125 37.53125 41.703125 47.421875 
C 41.703125 59.21875 32.296875 66 21.796875 66 
C 10.796875 66 4.09375 56.3125 4.09375 47.34375 
C 4.09375 43.4375 7 42.9375 8.203125 42.9375 
C 9.203125 42.9375 12.203125 43.546875 12.203125 47.03125 
C 12.203125 50.109375 9.59375 51 8.203125 51 
C 7.59375 51 7 50.90625 6.59375 50.703125 
C 8.5 59.21875 14.296875 63.40625 20.40625 63.40625 
C 29.09375 63.40625 34.796875 56.515625 34.796875 47.421875 
C 34.796875 38.734375 29.703125 31.25 24 24.75 
L 4.09375 2.28125 
L 4.09375 0 
L 39.296875 0 
z
" id="CMR17-50"/>
       </defs>
       <use transform="scale(0.996264)" xlink:href="#CMSY10-0"/>
       <use transform="translate(77.487468 0)scale(0.996264)" xlink:href="#CMR17-50"/>
       <use transform="translate(123.177945 0)scale(0.996264)" xlink:href="#CMMI12-58"/>
       <use transform="translate(150.275122 0)scale(0.996264)" xlink:href="#CMR17-53"/>
      </g>
     </g>
    </g>
    <g id="xtick_5">
     <g id="line2d_5">
      <g>
       <use style="stroke:#000000;stroke-width:0.8;" x="302.918088" xlink:href="#md582e7f920" y="284.4"/>
      </g>
     </g>
     <g id="text_5">
      <!-- $\mathdefault{0.0}$ -->
      <g transform="translate(294.192797 301.085876)scale(0.14 -0.14)">
       <use transform="scale(0.996264)" xlink:href="#CMR17-48"/>
       <use transform="translate(45.690477 0)scale(0.996264)" xlink:href="#CMMI12-58"/>
       <use transform="translate(72.787654 0)scale(0.996264)" xlink:href="#CMR17-48"/>
      </g>
     </g>
    </g>
    <g id="xtick_6">
     <g id="line2d_6">
      <g>
       <use style="stroke:#000000;stroke-width:0.8;" x="365.693088" xlink:href="#md582e7f920" y="284.4"/>
      </g>
     </g>
     <g id="text_6">
      <!-- $\mathdefault{2.5}$ -->
      <g transform="translate(356.967797 301.085876)scale(0.14 -0.14)">
       <use transform="scale(0.996264)" xlink:href="#CMR17-50"/>
       <use transform="translate(45.690477 0)scale(0.996264)" xlink:href="#CMMI12-58"/>
       <use transform="translate(72.787654 0)scale(0.996264)" xlink:href="#CMR17-53"/>
      </g>
     </g>
    </g>
    <g id="xtick_7">
     <g id="line2d_7">
      <g>
       <use style="stroke:#000000;stroke-width:0.8;" x="428.468088" xlink:href="#md582e7f920" y="284.4"/>
      </g>
     </g>
     <g id="text_7">
      <!-- $\mathdefault{5.0}$ -->
      <g transform="translate(419.742797 301.085876)scale(0.14 -0.14)">
       <use transform="scale(0.996264)" xlink:href="#CMR17-53"/>
       <use transform="translate(45.690477 0)scale(0.996264)" xlink:href="#CMMI12-58"/>
       <use transform="translate(72.787654 0)scale(0.996264)" xlink:href="#CMR17-48"/>
      </g>
     </g>
    </g>
    <g id="xtick_8">
     <g id="line2d_8">
      <g>
       <use style="stroke:#000000;stroke-width:0.8;" x="491.243088" xlink:href="#md582e7f920" y="284.4"/>
      </g>
     </g>
     <g id="text_8">
      <!-- $\mathdefault{7.5}$ -->
      <g transform="translate(482.517797 301.085876)scale(0.14 -0.14)">
       <use transform="scale(0.996264)" xlink:href="#CMR17-55"/>
       <use transform="translate(45.690477 0)scale(0.996264)" xlink:href="#CMMI12-58"/>
       <use transform="translate(72.787654 0)scale(0.996264)" xlink:href="#CMR17-53"/>
      </g>
     </g>
    </g>
    <g id="xtick_9">
     <g id="line2d_9">
      <g>
       <use style="stroke:#000000;stroke-width:0.8;" x="554.018088" xlink:href="#md582e7f920" y="284.4"/>
      </g>
     </g>
     <g id="text_9">
      <!-- $\mathdefault{10.0}$ -->
      <g transform="translate(541.878553 301.085876)scale(0.14 -0.14)">
       <use transform="scale(0.996264)" xlink:href="#CMR17-49"/>
       <use transform="translate(45.690477 0)scale(0.996264)" xlink:href="#CMR17-48"/>
       <use transform="translate(91.380954 0)scale(0.996264)" xlink:href="#CMMI12-58"/>
       <use transform="translate(118.478131 0)scale(0.996264)" xlink:href="#CMR17-48"/>
      </g>
     </g>
    </g>
    <g id="text_10">
     <!-- $x$ -->
     <g transform="translate(297.929023 320.251205)scale(0.18 -0.18)">
      <defs>
       <path d="M 47.40625 40.71875 
C 44.203125 40.109375 43 37.71875 43 35.828125 
C 43 33.421875 44.90625 32.625 46.296875 32.625 
C 49.296875 32.625 51.40625 35.21875 51.40625 37.921875 
C 51.40625 42.109375 46.59375 44 42.40625 44 
C 36.296875 44 32.90625 38.015625 32 36.125 
C 29.703125 44 23.5 44 21.703125 44 
C 11.5 44 6.09375 30.9375 6.09375 28.734375 
C 6.09375 28.34375 6.5 27.84375 7.203125 27.84375 
C 8 27.84375 8.203125 28.4375 8.40625 28.84375 
C 11.796875 39.921875 18.5 42.015625 21.40625 42.015625 
C 25.90625 42.015625 26.796875 37.8125 26.796875 35.421875 
C 26.796875 33.234375 26.203125 30.9375 25 26.140625 
L 21.59375 12.46875 
C 20.09375 6.484375 17.203125 1 11.90625 1 
C 11.40625 1 8.90625 1 6.796875 2.296875 
C 10.40625 3 11.203125 5.984375 11.203125 7.1875 
C 11.203125 9.1875 9.703125 10.375 7.796875 10.375 
C 5.40625 10.375 2.796875 8.28125 2.796875 5.09375 
C 2.796875 0.890625 7.5 -1 11.796875 -1 
C 16.59375 -1 20 2.796875 22.09375 6.890625 
C 23.703125 1 28.703125 -1 32.40625 -1 
C 42.59375 -1 48 12.078125 48 14.265625 
C 48 14.765625 47.59375 15.171875 47 15.171875 
C 46.09375 15.171875 46 14.671875 45.703125 13.875 
C 43 5.09375 37.203125 1 32.703125 1 
C 29.203125 1 27.296875 3.59375 27.296875 7.6875 
C 27.296875 9.875 27.703125 11.46875 29.296875 18.0625 
L 32.796875 31.625 
C 34.296875 37.625 37.703125 42.015625 42.296875 42.015625 
C 42.5 42.015625 45.296875 42.015625 47.40625 40.71875 
z
" id="CMMI12-120"/>
      </defs>
      <use transform="scale(0.996264)" xlink:href="#CMMI12-120"/>
     </g>
    </g>
   </g>
   <g id="matplotlib.axis_2">
    <g id="ytick_1">
     <g id="line2d_10">
      <defs>
       <path d="M 0 0 
L -3.5 0 
" id="m937311f2f8" style="stroke:#000000;stroke-width:0.8;"/>
      </defs>
      <g>
       <use style="stroke:#000000;stroke-width:0.8;" x="51.818088" xlink:href="#m937311f2f8" y="256.68"/>
      </g>
     </g>
     <g id="text_11">
      <!-- $\mathdefault{−4}$ -->
      <g transform="translate(27.141364 261.522938)scale(0.14 -0.14)">
       <defs>
        <path d="M 33.59375 64.40625 
C 33.59375 66.5 33.5 66.5 31.703125 66.5 
L 2 19.59375 
L 2 17 
L 27.796875 17 
L 27.796875 7.140625 
C 27.796875 3.5 27.59375 2.5 20.59375 2.5 
L 18.703125 2.5 
L 18.703125 0 
C 21.90625 0 27.296875 0 30.703125 0 
C 34.09375 0 39.5 0 42.703125 0 
L 42.703125 2.5 
L 40.796875 2.5 
C 33.796875 2.5 33.59375 3.5 33.59375 7.140625 
L 33.59375 17 
L 43.796875 17 
L 43.796875 19.59375 
L 33.59375 19.59375 
z
M 28.09375 57.859375 
L 28.09375 19.59375 
L 4 19.59375 
z
" id="CMR17-52"/>
       </defs>
       <use transform="scale(0.996264)" xlink:href="#CMSY10-0"/>
       <use transform="translate(77.487468 0)scale(0.996264)" xlink:href="#CMR17-52"/>
      </g>
     </g>
    </g>
    <g id="ytick_2">
     <g id="line2d_11">
      <g>
       <use style="stroke:#000000;stroke-width:0.8;" x="51.818088" xlink:href="#m937311f2f8" y="201.24"/>
      </g>
     </g>
     <g id="text_12">
      <!-- $\mathdefault{−2}$ -->
      <g transform="translate(27.141364 206.082938)scale(0.14 -0.14)">
       <use transform="scale(0.996264)" xlink:href="#CMSY10-0"/>
       <use transform="translate(77.487468 0)scale(0.996264)" xlink:href="#CMR17-50"/>
      </g>
     </g>
    </g>
    <g id="ytick_3">
     <g id="line2d_12">
      <g>
       <use style="stroke:#000000;stroke-width:0.8;" x="51.818088" xlink:href="#m937311f2f8" y="145.8"/>
      </g>
     </g>
     <g id="text_13">
      <!-- $\mathdefault{0}$ -->
      <g transform="translate(37.989599 150.642938)scale(0.14 -0.14)">
       <use transform="scale(0.996264)" xlink:href="#CMR17-48"/>
      </g>
     </g>
    </g>
    <g id="ytick_4">
     <g id="line2d_13">
      <g>
       <use style="stroke:#000000;stroke-width:0.8;" x="51.818088" xlink:href="#m937311f2f8" y="90.36"/>
      </g>
     </g>
     <g id="text_14">
      <!-- $\mathdefault{2}$ -->
      <g transform="translate(37.989599 95.202938)scale(0.14 -0.14)">
       <use transform="scale(0.996264)" xlink:href="#CMR17-50"/>
      </g>
     </g>
    </g>
    <g id="ytick_5">
     <g id="line2d_14">
      <g>
       <use style="stroke:#000000;stroke-width:0.8;" x="51.818088" xlink:href="#m937311f2f8" y="34.92"/>
      </g>
     </g>
     <g id="text_15">
      <!-- $\mathdefault{4}$ -->
      <g transform="translate(37.989599 39.762938)scale(0.14 -0.14)">
       <use transform="scale(0.996264)" xlink:href="#CMR17-52"/>
      </g>
     </g>
    </g>
    <g id="text_16">
     <!-- $y$ -->
     <g transform="translate(19.6533 150.080776)rotate(-90)scale(0.18 -0.18)">
      <defs>
       <path d="M 26.296875 -10.9375 
C 23.59375 -14.671875 19.703125 -18 14.796875 -18 
C 13.59375 -18 8.796875 -18 7.296875 -13.890625 
C 7.59375 -13.984375 8.09375 -13.984375 8.296875 -13.984375 
C 11.296875 -13.984375 13.296875 -11.390625 13.296875 -9.09375 
C 13.296875 -6.796875 11.40625 -6 9.90625 -6 
C 8.296875 -6 4.796875 -7.15625 4.796875 -11.859375 
C 4.796875 -16.734375 9.09375 -20.09375 14.796875 -20.09375 
C 24.796875 -20.09375 34.90625 -10.9375 37.703125 0.09375 
L 47.5 38.828125 
C 47.59375 39.328125 47.796875 39.9375 47.796875 40.53125 
C 47.796875 42.015625 46.59375 43.015625 45.09375 43.015625 
C 44.203125 43.015625 42.09375 42.609375 41.296875 39.609375 
L 33.90625 10.28125 
C 33.40625 8.484375 33.40625 8.28125 32.59375 7.1875 
C 30.59375 4.390625 27.296875 1 22.5 1 
C 16.90625 1 16.40625 6.484375 16.40625 9.1875 
C 16.40625 14.875 19.09375 22.546875 21.796875 29.734375 
C 22.90625 32.625 23.5 34.03125 23.5 36.015625 
C 23.5 40.21875 20.5 44 15.59375 44 
C 6.40625 44 2.703125 29.53125 2.703125 28.734375 
C 2.703125 28.34375 3.09375 27.84375 3.796875 27.84375 
C 4.703125 27.84375 4.796875 28.234375 5.203125 29.640625 
C 7.59375 38.015625 11.40625 42.015625 15.296875 42.015625 
C 16.203125 42.015625 17.90625 42.015625 17.90625 38.71875 
C 17.90625 36.125 16.796875 33.234375 15.296875 29.4375 
C 10.40625 16.359375 10.40625 13.078125 10.40625 10.671875 
C 10.40625 1.203125 17.203125 -1 22.203125 -1 
C 25.09375 -1 28.703125 -0.09375 32.203125 3.59375 
L 32.296875 3.5 
C 30.796875 -2.296875 29.796875 -6.125 26.296875 -10.9375 
z
" id="CMMI12-121"/>
      </defs>
      <use transform="scale(0.996264)" xlink:href="#CMMI12-121"/>
     </g>
    </g>
   </g>
   <g id="line2d_15">
    <path clip-path="url(#pc8178af052)" d="M 90.188258 331.939269 
L 92.195978 314.382623 
L 94.719596 294.375551 
L 97.243214 276.575864 
L 99.766832 261.206449 
L 102.29045 248.548443 
L 104.814068 238.774974 
L 107.337686 231.629272 
L 109.861304 226.345352 
L 112.384922 222.039502 
L 117.432158 214.070648 
L 119.955776 209.886118 
L 122.479395 205.464511 
L 127.526631 195.98952 
L 140.144721 171.40952 
L 142.668339 166.905195 
L 145.191957 162.719645 
L 147.715575 158.945221 
L 150.239194 155.683576 
L 152.762812 153.038951 
L 155.28643 151.10275 
L 157.810048 149.933115 
L 160.333666 149.540071 
L 162.857284 149.88561 
L 165.380902 150.897328 
L 167.90452 152.485833 
L 170.428138 154.557831 
L 172.951756 157.022914 
L 175.475374 159.795826 
L 180.522611 165.949592 
L 190.617083 178.713772 
L 193.140701 181.634305 
L 195.664319 184.338933 
L 198.187937 186.783117 
L 200.711555 188.928539 
L 203.235173 190.743591 
L 205.758792 192.203784 
L 208.28241 193.292034 
L 210.806028 193.998836 
L 213.329646 194.322287 
L 215.853264 194.267986 
L 218.376882 193.848785 
L 220.9005 193.084417 
L 223.424118 192.000992 
L 225.947736 190.630388 
L 228.471354 189.009545 
L 230.994972 187.179683 
L 236.042209 183.074199 
L 246.136681 174.450849 
L 248.660299 172.501615 
L 251.183917 170.735066 
L 253.707535 169.201637 
L 256.231153 167.953486 
L 258.754771 167.046127 
L 261.27839 166.540017 
L 263.802008 166.500784 
L 266.325626 166.99555 
L 268.849244 168.082122 
L 271.372862 169.790296 
L 273.89648 172.10201 
L 276.420098 174.943755 
L 278.943716 178.199021 
L 283.990952 185.414782 
L 289.038189 192.778981 
L 291.561807 196.283718 
L 294.085425 199.575202 
L 296.609043 202.594759 
L 299.132661 205.290762 
L 301.656279 207.617164 
L 304.179897 209.532768 
L 306.703515 211.001066 
L 309.227133 211.990466 
L 311.750751 212.474773 
L 314.274369 212.433795 
L 316.797988 211.854019 
L 319.321606 210.729267 
L 321.845224 209.061294 
L 324.368842 206.860309 
L 326.89246 204.145382 
L 329.416078 200.944732 
L 331.939696 197.295895 
L 334.463314 193.245772 
L 336.986932 188.850563 
L 342.034168 179.295024 
L 352.128641 159.481855 
L 354.652259 154.954569 
L 357.175877 150.809699 
L 359.699495 147.149113 
L 362.223113 144.061859 
L 364.746731 141.615049 
L 367.270349 139.845344 
L 369.793967 138.754259 
L 372.317586 138.309795 
L 374.841204 138.454243 
L 377.364822 139.115321 
L 379.88844 140.217153 
L 382.412058 141.689068 
L 384.935676 143.472108 
L 387.459294 145.524466 
L 389.982912 147.827556 
L 392.50653 150.394519 
L 395.030148 153.282388 
L 397.553766 156.606477 
L 400.077385 160.547361 
L 402.601003 165.326838 
L 405.124621 171.131923 
L 407.648239 178.02139 
L 410.171857 185.899089 
L 412.695475 194.5697 
L 417.742711 213.392978 
L 425.313565 242.255472 
L 427.837184 251.302879 
L 430.360802 259.773829 
L 432.88442 267.499929 
L 435.408038 274.315975 
L 437.931656 280.060451 
L 440.455274 284.576386 
L 442.978892 287.71249 
L 445.50251 289.324498 
L 448.026128 289.276744 
L 450.549746 287.444028 
L 453.073364 283.713946 
L 455.596983 277.990085 
L 458.120601 270.196885 
L 460.644219 260.288041 
L 463.167837 248.262967 
L 465.691455 234.203353 
L 468.215073 218.365604 
L 470.738691 201.445493 
L 473.262309 185.35804 
L 475.785927 174.473918 
L 478.309545 172.434725 
L 480.833163 177.092528 
L 483.356782 185.579723 
L 485.8804 196.636948 
L 488.404018 209.787435 
L 490.927636 224.840166 
L 493.451254 241.712458 
L 495.974872 260.364357 
L 498.49849 280.771629 
L 501.022108 302.913459 
L 504.056969 331.939269 
L 504.056969 331.939269 
" style="fill:none;stroke:#008000;stroke-dasharray:5.55,2.4;stroke-dashoffset:0;stroke-width:1.5;"/>
   </g>
   <g id="line2d_16">
    <path clip-path="url(#pc8178af052)" d="M 68.662559 -1 
L 69.483415 8.193877 
L 72.007033 34.475801 
L 74.530651 58.735238 
L 77.054269 80.94473 
L 79.577887 101.087612 
L 82.101505 119.156657 
L 84.625123 135.151793 
L 87.148741 149.07638 
L 89.672359 160.931109 
L 92.195978 170.704004 
L 94.719596 178.354273 
L 97.243214 183.788366 
L 99.766832 186.835363 
L 102.29045 187.264679 
L 104.814068 184.951912 
L 107.337686 180.200347 
L 109.861304 173.819899 
L 117.432158 152.892552 
L 119.955776 146.720758 
L 122.479395 141.189143 
L 125.003013 136.308422 
L 127.526631 132.052982 
L 130.050249 128.376929 
L 132.573867 125.222904 
L 135.097485 122.526659 
L 137.621103 120.218839 
L 140.144721 118.224692 
L 142.668339 116.462165 
L 150.239194 111.579147 
L 152.762812 109.703182 
L 155.28643 107.511029 
L 157.810048 104.922775 
L 160.333666 101.905327 
L 162.857284 98.472757 
L 165.380902 94.673107 
L 167.90452 90.57141 
L 172.951756 81.737324 
L 185.569847 58.870479 
L 188.093465 54.613563 
L 190.617083 50.585516 
L 193.140701 46.836327 
L 195.664319 43.413822 
L 198.187937 40.36306 
L 200.711555 37.725683 
L 203.235173 35.539283 
L 205.758792 33.836794 
L 208.28241 32.64594 
L 210.806028 31.988769 
L 213.329646 31.881263 
L 215.853264 32.333049 
L 218.376882 33.34722 
L 220.9005 34.920248 
L 223.424118 37.042006 
L 225.947736 39.695891 
L 228.471354 42.85903 
L 230.994972 46.502568 
L 233.518591 50.592021 
L 236.042209 55.087665 
L 238.565827 59.944936 
L 241.089445 65.114814 
L 246.136681 76.175741 
L 258.754771 105.057467 
L 261.27839 110.432376 
L 263.802008 115.453676 
L 266.325626 120.012883 
L 268.849244 124.007446 
L 271.372862 127.359907 
L 273.89648 130.038298 
L 276.420098 132.064322 
L 278.943716 133.501575 
L 281.467334 134.431535 
L 283.990952 134.932154 
L 286.51457 135.066826 
L 289.038189 134.882524 
L 291.561807 134.412731 
L 294.085425 133.681761 
L 296.609043 132.708755 
L 299.132661 131.510788 
L 301.656279 130.10503 
L 304.179897 128.510104 
L 306.703515 126.746806 
L 311.750751 122.810342 
L 316.797988 118.507535 
L 326.89246 109.751206 
L 331.939696 105.762779 
L 334.463314 103.954233 
L 336.986932 102.294894 
L 339.51055 100.798499 
L 342.034168 99.473753 
L 344.557787 98.323717 
L 347.081405 97.345314 
L 349.605023 96.52903 
L 352.128641 95.859063 
L 357.175877 94.870448 
L 362.223113 94.201163 
L 367.270349 93.805584 
L 369.793967 93.786675 
L 372.317586 93.978006 
L 374.841204 94.469572 
L 377.364822 95.355247 
L 379.88844 96.721258 
L 382.412058 98.636974 
L 384.935676 101.148123 
L 387.459294 104.271237 
L 389.982912 107.987597 
L 392.50653 112.23491 
L 397.553766 121.782236 
L 400.077385 126.63248 
L 402.601003 131.132572 
L 405.124621 134.994865 
L 407.648239 138.052155 
L 410.171857 140.285464 
L 412.695475 141.769483 
L 415.219093 142.605058 
L 417.742711 142.88399 
L 420.266329 142.681231 
L 422.789947 142.058277 
L 425.313565 141.068689 
L 427.837184 139.762755 
L 430.360802 138.19079 
L 432.88442 136.405308 
L 437.931656 132.422183 
L 442.978892 128.31373 
L 445.50251 126.387727 
L 448.026128 124.647868 
L 450.549746 123.172407 
L 453.073364 122.039742 
L 455.596983 121.325611 
L 458.120601 121.098456 
L 460.644219 121.411107 
L 463.167837 122.284265 
L 465.691455 123.669739 
L 468.215073 125.357665 
L 470.738691 126.711386 
L 473.262309 125.886972 
L 475.785927 118.596098 
L 478.309545 101.289949 
L 480.833163 76.21877 
L 483.356782 46.36099 
L 486.866379 -1 
L 486.866379 -1 
" style="fill:none;stroke:#008000;stroke-dasharray:5.55,2.4;stroke-dashoffset:0;stroke-width:1.5;"/>
   </g>
   <g id="line2d_17">
    <path clip-path="url(#pc8178af052)" d="M 51.818088 252.382311 
L 54.837327 252.190995 
L 57.856565 251.710852 
L 60.875803 250.937235 
L 63.895042 249.867159 
L 66.91428 248.499365 
L 69.933519 246.834363 
L 72.952757 244.874466 
L 75.971996 242.623805 
L 78.991234 240.08833 
L 82.010473 237.275798 
L 85.029711 234.19574 
L 88.04895 230.85942 
L 92.074601 226.034951 
L 96.100252 220.813126 
L 100.125904 215.233661 
L 105.157968 207.823722 
L 110.190032 200.017829 
L 117.234922 188.618438 
L 138.369591 153.958273 
L 143.401655 146.237961 
L 148.433719 138.940874 
L 152.459371 133.472128 
L 156.485022 128.380042 
L 160.510673 123.70528 
L 163.529912 120.494978 
L 166.54915 117.553235 
L 169.568389 114.891779 
L 172.587627 112.520572 
L 175.606866 110.447735 
L 178.626104 108.679474 
L 181.645343 107.220018 
L 184.664581 106.07157 
L 187.68382 105.234261 
L 190.703058 104.706124 
L 193.722296 104.483073 
L 196.741535 104.558898 
L 199.760773 104.925275 
L 202.780012 105.57179 
L 205.79925 106.485974 
L 208.818489 107.653366 
L 211.837727 109.057583 
L 214.856966 110.680411 
L 218.882617 113.149563 
L 222.908268 115.920176 
L 227.940333 119.721811 
L 233.978809 124.624717 
L 250.081415 137.939293 
L 255.113479 141.702405 
L 259.13913 144.4374 
L 263.164781 146.871522 
L 266.18402 148.472233 
L 269.203258 149.861719 
L 272.222497 151.026064 
L 275.241735 151.95407 
L 278.260974 152.637428 
L 281.280212 153.070858 
L 284.299451 153.25222 
L 287.318689 153.182583 
L 290.337928 152.866251 
L 293.357166 152.310756 
L 296.376405 151.5268 
L 299.395643 150.528159 
L 302.414882 149.331538 
L 306.440533 147.46206 
L 310.466184 145.328435 
L 315.498248 142.381515 
L 323.549551 137.326568 
L 331.600854 132.349612 
L 336.632918 129.531321 
L 340.658569 127.545536 
L 343.677807 126.252974 
L 346.697046 125.154598 
L 349.716284 124.270569 
L 352.735523 123.618122 
L 355.754761 123.211302 
L 358.774 123.060735 
L 361.793238 123.173449 
L 364.812477 123.552748 
L 367.831715 124.198143 
L 370.850954 125.105325 
L 373.870192 126.266208 
L 376.889431 127.669017 
L 379.908669 129.298436 
L 382.927908 131.135802 
L 386.953559 133.871072 
L 390.97921 136.877808 
L 396.011274 140.91586 
L 414.126705 155.825504 
L 418.152357 158.735992 
L 422.178008 161.339868 
L 425.197246 163.052599 
L 428.216485 164.5322 
L 431.235723 165.757097 
L 434.254962 166.708731 
L 437.2742 167.371766 
L 440.293439 167.73426 
L 443.312677 167.787781 
L 446.331916 167.52747 
L 449.351154 166.952064 
L 452.370393 166.063864 
L 455.389631 164.86865 
L 458.40887 163.375565 
L 461.428108 161.596946 
L 464.447347 159.548115 
L 467.466585 157.247149 
L 470.485824 154.714599 
L 474.511475 151.017203 
L 478.537126 147.007654 
L 483.56919 141.653664 
L 490.61408 133.753956 
L 503.697447 118.975619 
L 508.729511 113.628956 
L 513.761575 108.638891 
L 517.787226 104.965505 
L 521.812878 101.618496 
L 525.838529 98.630225 
L 528.857767 96.639833 
L 531.877006 94.873425 
L 534.896244 93.336628 
L 537.915483 92.032833 
L 540.934721 90.963269 
L 543.95396 90.127099 
L 546.973198 89.521529 
L 549.992437 89.141945 
L 553.011675 88.982054 
L 554.018088 88.976268 
L 554.018088 88.976268 
" style="fill:none;stroke:#000000;stroke-dasharray:7.4,3.2;stroke-dashoffset:0;stroke-width:2;"/>
   </g>
   <g id="line2d_18">
    <path clip-path="url(#pc8178af052)" d="M 51.818088 290.18746 
L 54.837327 287.754993 
L 57.856565 285.039352 
L 60.875803 282.045909 
L 63.895042 278.78207 
L 66.91428 275.257313 
L 70.939932 270.172088 
L 74.965583 264.677212 
L 78.991234 258.812955 
L 84.023298 251.035975 
L 90.061775 241.193517 
L 98.113078 227.565021 
L 113.20927 201.968968 
L 135.350353 165.09374 
L 141.38883 155.454331 
L 146.420894 147.871294 
L 150.446545 142.23052 
L 153.465783 138.308012 
L 156.485022 134.685897 
L 159.50426 131.388506 
L 162.523499 128.431182 
L 165.542737 125.820832 
L 168.561976 123.557639 
L 171.581214 121.637096 
L 174.600453 120.05173 
L 177.619691 118.792264 
L 180.63893 117.848267 
L 183.658168 117.208452 
L 186.677407 116.860759 
L 189.696645 116.792349 
L 192.715884 116.989557 
L 195.735122 117.437849 
L 198.754361 118.121788 
L 201.773599 119.025028 
L 204.792838 120.130327 
L 208.818489 121.886959 
L 212.84414 123.925416 
L 216.869791 126.198393 
L 221.901856 129.294553 
L 228.946745 133.928681 
L 242.030112 142.618418 
L 248.068589 146.314153 
L 253.100653 149.118212 
L 258.132717 151.628866 
L 263.164781 153.836685 
L 268.196846 155.758245 
L 273.22891 157.409541 
L 277.254561 158.517691 
L 281.280212 159.387499 
L 284.299451 159.845884 
L 287.318689 160.109554 
L 290.337928 160.158186 
L 293.357166 159.978218 
L 296.376405 159.563189 
L 299.395643 158.913375 
L 302.414882 158.035158 
L 305.43412 156.940333 
L 308.453359 155.645437 
L 312.47901 153.643907 
L 316.504661 151.382274 
L 321.536725 148.292496 
L 337.639331 138.111013 
L 341.664982 135.900411 
L 345.690633 133.968115 
L 348.709872 132.738286 
L 351.72911 131.721271 
L 354.748349 130.935695 
L 357.767587 130.396533 
L 360.786826 130.114964 
L 363.806064 130.098341 
L 366.825302 130.350277 
L 369.844541 130.870865 
L 372.863779 131.657014 
L 375.883018 132.70289 
L 378.902256 134.000412 
L 381.921495 135.539729 
L 384.940733 137.309515 
L 387.959972 139.296893 
L 391.985623 142.258682 
L 396.011274 145.534048 
L 401.043339 149.970912 
L 418.152357 165.489652 
L 422.178008 168.632355 
L 425.197246 170.730797 
L 428.216485 172.567719 
L 431.235723 174.111261 
L 434.254962 175.333673 
L 436.267787 175.958519 
L 438.280613 176.424481 
L 440.293439 176.726864 
L 442.306264 176.862044 
L 444.31909 176.827542 
L 446.331916 176.622095 
L 448.344741 176.24575 
L 450.357567 175.699964 
L 452.370393 174.987739 
L 455.389631 173.618104 
L 458.40887 171.908988 
L 461.428108 169.895601 
L 464.447347 167.62608 
L 468.472998 164.310704 
L 480.549952 154.081536 
L 484.575603 151.037735 
L 488.601254 148.264845 
L 492.626906 145.766179 
L 496.652557 143.544994 
L 500.678208 141.610706 
L 504.70386 139.977828 
L 507.723098 138.960999 
L 510.742337 138.130046 
L 513.761575 137.49123 
L 516.780814 137.049765 
L 519.800052 136.809566 
L 522.81929 136.773069 
L 525.838529 136.941134 
L 528.857767 137.313002 
L 531.877006 137.886293 
L 534.896244 138.657049 
L 537.915483 139.6198 
L 540.934721 140.767665 
L 544.960373 142.571788 
L 548.986024 144.667743 
L 553.011675 147.029857 
L 554.018088 147.65872 
L 554.018088 147.65872 
" style="fill:none;stroke:#000000;stroke-dasharray:5.55,2.4;stroke-dashoffset:0;stroke-width:1.5;"/>
   </g>
   <g id="line2d_19">
    <path clip-path="url(#pc8178af052)" d="M 51.818088 214.577161 
L 54.837327 216.626997 
L 57.856565 218.382352 
L 60.875803 219.82856 
L 63.895042 220.952247 
L 66.91428 221.741416 
L 68.927106 222.07641 
L 70.939932 222.255239 
L 72.952757 222.275429 
L 74.965583 222.134792 
L 76.978409 221.831427 
L 78.991234 221.363705 
L 81.00406 220.730262 
L 83.016886 219.929987 
L 85.029711 218.962009 
L 87.042537 217.825693 
L 90.061775 215.804801 
L 93.081014 213.404205 
L 96.100252 210.62576 
L 99.119491 207.474558 
L 102.138729 203.961089 
L 105.157968 200.104133 
L 108.177206 195.93348 
L 112.202858 189.958307 
L 117.234922 182.001835 
L 126.292637 167.088497 
L 134.34394 154.002925 
L 140.382417 144.624452 
L 145.414481 137.180126 
L 150.446545 130.09373 
L 155.478609 123.372698 
L 160.510673 117.046116 
L 164.536325 112.315617 
L 168.561976 107.936633 
L 171.581214 104.919273 
L 174.600453 102.158481 
L 177.619691 99.677237 
L 180.63893 97.49576 
L 183.658168 95.631105 
L 186.677407 94.096984 
L 189.696645 92.903703 
L 191.709471 92.30109 
L 193.722296 91.854313 
L 195.735122 91.563921 
L 197.747948 91.429808 
L 199.760773 91.451216 
L 201.773599 91.626745 
L 203.786425 91.954358 
L 206.805663 92.724943 
L 209.824902 93.82001 
L 212.84414 95.224954 
L 215.863379 96.922251 
L 218.882617 98.891576 
L 221.901856 101.10995 
L 225.927507 104.410828 
L 229.953158 108.042206 
L 234.985222 112.934085 
L 242.030112 120.159347 
L 251.087828 129.405549 
L 255.113479 133.245905 
L 259.13913 136.78038 
L 262.158369 139.168767 
L 265.177607 141.284459 
L 268.196846 143.087633 
L 271.216084 144.545548 
L 273.22891 145.31472 
L 275.241735 145.918263 
L 277.254561 146.356739 
L 279.267387 146.633519 
L 281.280212 146.754217 
L 284.299451 146.658557 
L 287.318689 146.255612 
L 290.337928 145.574316 
L 293.357166 144.643293 
L 296.376405 143.490411 
L 300.402056 141.655218 
L 304.427707 139.538188 
L 309.459771 136.594076 
L 316.504661 132.147646 
L 326.568789 125.793864 
L 331.600854 122.901888 
L 335.626505 120.837324 
L 339.652156 119.056312 
L 342.671395 117.937921 
L 345.690633 117.027577 
L 348.709872 116.342318 
L 351.72911 115.896604 
L 354.748349 115.702082 
L 357.767587 115.767351 
L 360.786826 116.09772 
L 363.806064 116.694952 
L 366.825302 117.556989 
L 369.844541 118.677666 
L 372.863779 120.046406 
L 375.883018 121.647926 
L 378.902256 123.461994 
L 382.927908 126.166954 
L 387.959972 129.902696 
L 395.004862 135.489794 
L 403.056164 141.846894 
L 408.088228 145.569066 
L 412.11388 148.323959 
L 416.139531 150.83289 
L 420.165182 153.05534 
L 423.184421 154.511698 
L 426.203659 155.771838 
L 429.222898 156.823272 
L 432.242136 157.655335 
L 435.261375 158.259318 
L 438.280613 158.62848 
L 441.299852 158.757953 
L 444.31909 158.644492 
L 447.338329 158.286047 
L 450.357567 157.681111 
L 453.376805 156.827769 
L 456.396044 155.722385 
L 459.415282 154.357871 
L 462.434521 152.721598 
L 465.453759 150.793366 
L 468.472998 148.544527 
L 471.492236 145.940221 
L 474.511475 142.946655 
L 477.530713 139.542592 
L 480.549952 135.729467 
L 483.56919 131.533684 
L 486.588429 127.000504 
L 490.61408 120.526756 
L 495.646144 111.933273 
L 503.697447 97.594351 
L 512.755162 81.525063 
L 517.787226 72.983826 
L 522.81929 64.900312 
L 526.844942 58.8421 
L 530.870593 53.200866 
L 534.896244 48.016208 
L 537.915483 44.445866 
L 540.934721 41.158874 
L 543.95396 38.161738 
L 546.973198 35.458231 
L 549.992437 33.049508 
L 553.011675 30.934252 
L 554.018088 30.293816 
L 554.018088 30.293816 
" style="fill:none;stroke:#000000;stroke-dasharray:5.55,2.4;stroke-dashoffset:0;stroke-width:1.5;"/>
   </g>
   <g id="line2d_20">
    <defs>
     <path d="M 0 5 
C 1.326016 5 2.597899 4.473168 3.535534 3.535534 
C 4.473168 2.597899 5 1.326016 5 0 
C 5 -1.326016 4.473168 -2.597899 3.535534 -3.535534 
C 2.597899 -4.473168 1.326016 -5 0 -5 
C -1.326016 -5 -2.597899 -4.473168 -3.535534 -3.535534 
C -4.473168 -2.597899 -5 -1.326016 -5 0 
C -5 1.326016 -4.473168 2.597899 -3.535534 3.535534 
C -2.597899 4.473168 -1.326016 5 0 5 
z
" id="m813639df92" style="stroke:#ffffff;stroke-width:2;"/>
    </defs>
    <g clip-path="url(#pc8178af052)">
     <use style="fill:#ffffff;stroke:#ffffff;stroke-width:2;" x="359.780413" xlink:href="#m813639df92" y="123.457156"/>
     <use style="fill:#ffffff;stroke:#ffffff;stroke-width:2;" x="286.312276" xlink:href="#m813639df92" y="161.3325"/>
     <use style="fill:#ffffff;stroke:#ffffff;stroke-width:2;" x="411.107467" xlink:href="#m813639df92" y="166.080278"/>
     <use style="fill:#ffffff;stroke:#ffffff;stroke-width:2;" x="104.151555" xlink:href="#m813639df92" y="213.692518"/>
     <use style="fill:#ffffff;stroke:#ffffff;stroke-width:2;" x="475.517888" xlink:href="#m813639df92" y="147.19403"/>
     <use style="fill:#ffffff;stroke:#ffffff;stroke-width:2;" x="139.376004" xlink:href="#m813639df92" y="145.280694"/>
     <use style="fill:#ffffff;stroke:#ffffff;stroke-width:2;" x="262.158369" xlink:href="#m813639df92" y="139.603621"/>
     <use style="fill:#ffffff;stroke:#ffffff;stroke-width:2;" x="400.036926" xlink:href="#m813639df92" y="147.980135"/>
     <use style="fill:#ffffff;stroke:#ffffff;stroke-width:2;" x="388.966385" xlink:href="#m813639df92" y="119.027472"/>
     <use style="fill:#ffffff;stroke:#ffffff;stroke-width:2;" x="164.536325" xlink:href="#m813639df92" y="123.572699"/>
    </g>
   </g>
   <g id="line2d_21">
    <defs>
     <path d="M 0 3 
C 0.795609 3 1.55874 2.683901 2.12132 2.12132 
C 2.683901 1.55874 3 0.795609 3 0 
C 3 -0.795609 2.683901 -1.55874 2.12132 -2.12132 
C 1.55874 -2.683901 0.795609 -3 0 -3 
C -0.795609 -3 -1.55874 -2.683901 -2.12132 -2.12132 
C -2.683901 -1.55874 -3 -0.795609 -3 0 
C -3 0.795609 -2.683901 1.55874 -2.12132 2.12132 
C -1.55874 2.683901 -0.795609 3 0 3 
z
" id="ma7bc2738ea" style="stroke:#ff1493;stroke-width:2;"/>
    </defs>
    <g clip-path="url(#pc8178af052)">
     <use style="fill:#ff1493;stroke:#ff1493;stroke-width:2;" x="359.780413" xlink:href="#ma7bc2738ea" y="123.457156"/>
     <use style="fill:#ff1493;stroke:#ff1493;stroke-width:2;" x="286.312276" xlink:href="#ma7bc2738ea" y="161.3325"/>
     <use style="fill:#ff1493;stroke:#ff1493;stroke-width:2;" x="411.107467" xlink:href="#ma7bc2738ea" y="166.080278"/>
     <use style="fill:#ff1493;stroke:#ff1493;stroke-width:2;" x="104.151555" xlink:href="#ma7bc2738ea" y="213.692518"/>
     <use style="fill:#ff1493;stroke:#ff1493;stroke-width:2;" x="475.517888" xlink:href="#ma7bc2738ea" y="147.19403"/>
     <use style="fill:#ff1493;stroke:#ff1493;stroke-width:2;" x="139.376004" xlink:href="#ma7bc2738ea" y="145.280694"/>
     <use style="fill:#ff1493;stroke:#ff1493;stroke-width:2;" x="262.158369" xlink:href="#ma7bc2738ea" y="139.603621"/>
     <use style="fill:#ff1493;stroke:#ff1493;stroke-width:2;" x="400.036926" xlink:href="#ma7bc2738ea" y="147.980135"/>
     <use style="fill:#ff1493;stroke:#ff1493;stroke-width:2;" x="388.966385" xlink:href="#ma7bc2738ea" y="119.027472"/>
     <use style="fill:#ff1493;stroke:#ff1493;stroke-width:2;" x="164.536325" xlink:href="#ma7bc2738ea" y="123.572699"/>
    </g>
   </g>
   <g id="line2d_22">
    <path clip-path="url(#pc8178af052)" d="M 51.818088 73.057672 
L 52.824501 73.592634 
L 53.830914 74.288312 
L 54.837327 75.158677 
L 55.843739 76.216285 
L 56.850152 77.472757 
L 57.856565 78.938462 
L 58.862978 80.621634 
L 60.875803 84.665423 
L 62.888629 89.635942 
L 64.901455 95.530641 
L 66.91428 102.315009 
L 68.927106 109.918645 
L 70.939932 118.240573 
L 73.95917 131.775708 
L 84.023298 178.794857 
L 86.036124 187.068714 
L 88.04895 194.520905 
L 90.061775 200.992481 
L 92.074601 206.351408 
L 93.081014 208.581749 
L 94.087427 210.499429 
L 95.09384 212.097917 
L 96.100252 213.372572 
L 97.106665 214.322352 
L 98.113078 214.947153 
L 99.119491 215.250474 
L 100.125904 215.23846 
L 101.132317 214.918872 
L 102.138729 214.301867 
L 103.145142 213.400339 
L 104.151555 212.228727 
L 105.157968 210.803751 
L 106.164381 209.143533 
L 108.177206 205.197276 
L 110.190032 200.561778 
L 113.20927 192.71822 
L 121.260573 170.860441 
L 123.273399 166.001326 
L 125.286224 161.594471 
L 127.29905 157.691102 
L 129.311876 154.311864 
L 131.324701 151.448309 
L 133.337527 149.065576 
L 135.350353 147.107391 
L 137.363178 145.503708 
L 139.376004 144.17293 
L 142.395242 142.507039 
L 150.446545 138.325435 
L 153.465783 136.455504 
L 158.497848 132.989596 
L 162.523499 130.255456 
L 165.542737 128.503362 
L 167.555563 127.570365 
L 169.568389 126.868595 
L 171.581214 126.41879 
L 173.59404 126.225962 
L 175.606866 126.275432 
L 177.619691 126.537236 
L 180.63893 127.222801 
L 187.68382 129.076668 
L 189.696645 129.371066 
L 191.709471 129.456218 
L 193.722296 129.294276 
L 195.735122 128.86206 
L 197.747948 128.154239 
L 199.760773 127.180225 
L 201.773599 125.965966 
L 204.792838 123.780593 
L 208.818489 120.468077 
L 212.84414 117.154837 
L 215.863379 114.980417 
L 217.876204 113.79267 
L 219.88903 112.877022 
L 221.901856 112.279257 
L 223.914681 112.035583 
L 225.927507 112.171847 
L 227.940333 112.701271 
L 229.953158 113.623249 
L 231.965984 114.922836 
L 233.978809 116.569056 
L 235.991635 118.515289 
L 239.010874 121.86087 
L 248.068589 132.431621 
L 250.081415 134.365312 
L 252.09424 136.01145 
L 254.107066 137.340645 
L 256.119892 138.351153 
L 258.132717 139.064382 
L 260.145543 139.529167 
L 263.164781 139.920099 
L 267.190433 140.358226 
L 269.203258 140.771407 
L 271.216084 141.443834 
L 273.22891 142.458249 
L 275.241735 143.878534 
L 277.254561 145.744677 
L 279.267387 148.073257 
L 281.280212 150.855686 
L 283.293038 154.061402 
L 285.305864 157.640092 
L 288.325102 163.560973 
L 292.350753 172.079407 
L 298.38923 184.901106 
L 301.408469 190.819245 
L 304.427707 196.15857 
L 306.440533 199.3247 
L 308.453359 202.1337 
L 310.466184 204.554901 
L 312.47901 206.560827 
L 314.491836 208.127043 
L 316.504661 209.231688 
L 317.511074 209.605198 
L 318.517487 209.85671 
L 319.5239 209.984152 
L 320.530313 209.986405 
L 321.536725 209.861623 
L 322.543138 209.60864 
L 323.549551 209.226459 
L 324.555964 208.714401 
L 326.568789 207.299354 
L 328.581615 205.360505 
L 330.594441 202.900778 
L 332.607266 199.925607 
L 334.620092 196.444701 
L 336.632918 192.473255 
L 338.645743 188.032457 
L 340.658569 183.150894 
L 343.677807 175.087609 
L 346.697046 166.292567 
L 351.72911 150.671505 
L 356.761174 135.127252 
L 359.780413 126.5438 
L 361.793238 121.359319 
L 363.806064 116.720776 
L 365.81889 112.713209 
L 367.831715 109.405736 
L 368.838128 108.030884 
L 369.844541 106.848426 
L 370.850954 105.861221 
L 371.857367 105.071661 
L 372.863779 104.479761 
L 373.870192 104.085353 
L 374.876605 103.887686 
L 375.883018 103.883001 
L 376.889431 104.068653 
L 377.895844 104.439475 
L 378.902256 104.990678 
L 379.908669 105.715885 
L 380.915082 106.608779 
L 382.927908 108.867786 
L 384.940733 111.706891 
L 386.953559 115.059118 
L 388.966385 118.855913 
L 391.985623 125.23231 
L 395.004862 132.217175 
L 400.036926 144.591458 
L 406.075403 159.396071 
L 409.094641 166.296525 
L 412.11388 172.611025 
L 414.126705 176.414119 
L 416.139531 179.843458 
L 418.152357 182.863128 
L 420.165182 185.445811 
L 422.178008 187.570665 
L 424.190834 189.223731 
L 426.203659 190.400546 
L 428.216485 191.101632 
L 429.222898 191.276498 
L 430.22931 191.336087 
L 432.242136 191.120289 
L 434.254962 190.475343 
L 436.267787 189.429082 
L 438.280613 188.014927 
L 440.293439 186.270594 
L 442.306264 184.237902 
L 445.325503 180.747304 
L 448.344741 176.871176 
L 455.389631 167.242882 
L 459.415282 161.927234 
L 462.434521 158.222425 
L 465.453759 154.815276 
L 468.472998 151.704329 
L 472.498649 147.943092 
L 477.530713 143.627512 
L 484.575603 137.91075 
L 487.594842 135.67235 
L 489.607667 134.357628 
L 491.620493 133.267667 
L 493.633319 132.488247 
L 495.646144 132.115123 
L 496.652557 132.111992 
L 497.65897 132.248031 
L 498.665383 132.53488 
L 499.671795 132.984503 
L 500.678208 133.607749 
L 501.684621 134.415231 
L 502.691034 135.415598 
L 503.697447 136.616773 
L 504.70386 138.025225 
L 505.710272 139.645392 
L 507.723098 143.53237 
L 509.735924 148.279787 
L 511.748749 153.85509 
L 513.761575 160.192861 
L 515.774401 167.193461 
L 518.793639 178.639922 
L 527.851355 214.095197 
L 529.86418 220.918127 
L 531.877006 226.948811 
L 533.889832 232.038678 
L 534.896244 234.193106 
L 535.902657 236.072068 
L 536.90907 237.666534 
L 537.915483 238.971354 
L 538.921896 239.982797 
L 539.928308 240.700021 
L 540.934721 241.125178 
L 541.941134 241.262081 
L 542.947547 241.117909 
L 543.95396 240.701299 
L 544.960373 240.022947 
L 545.966785 239.095851 
L 546.973198 237.933973 
L 547.979611 236.553419 
L 549.992437 233.204226 
L 552.005262 229.192111 
L 554.018088 224.666999 
L 554.018088 224.666999 
" style="fill:none;stroke:#0000ff;stroke-linecap:square;stroke-width:3;"/>
   </g>
   <g id="line2d_23">
    <g clip-path="url(#pc8178af052)">
     <use style="fill:#ffffff;stroke:#ffffff;stroke-width:2;" x="359.780413" xlink:href="#m813639df92" y="123.457156"/>
     <use style="fill:#ffffff;stroke:#ffffff;stroke-width:2;" x="286.312276" xlink:href="#m813639df92" y="161.3325"/>
     <use style="fill:#ffffff;stroke:#ffffff;stroke-width:2;" x="411.107467" xlink:href="#m813639df92" y="166.080278"/>
     <use style="fill:#ffffff;stroke:#ffffff;stroke-width:2;" x="104.151555" xlink:href="#m813639df92" y="213.692518"/>
     <use style="fill:#ffffff;stroke:#ffffff;stroke-width:2;" x="475.517888" xlink:href="#m813639df92" y="147.19403"/>
     <use style="fill:#ffffff;stroke:#ffffff;stroke-width:2;" x="139.376004" xlink:href="#m813639df92" y="145.280694"/>
     <use style="fill:#ffffff;stroke:#ffffff;stroke-width:2;" x="262.158369" xlink:href="#m813639df92" y="139.603621"/>
     <use style="fill:#ffffff;stroke:#ffffff;stroke-width:2;" x="400.036926" xlink:href="#m813639df92" y="147.980135"/>
     <use style="fill:#ffffff;stroke:#ffffff;stroke-width:2;" x="388.966385" xlink:href="#m813639df92" y="119.027472"/>
     <use style="fill:#ffffff;stroke:#ffffff;stroke-width:2;" x="164.536325" xlink:href="#m813639df92" y="123.572699"/>
    </g>
   </g>
   <g id="line2d_24">
    <g clip-path="url(#pc8178af052)">
     <use style="fill:#ff1493;stroke:#ff1493;stroke-width:2;" x="359.780413" xlink:href="#ma7bc2738ea" y="123.457156"/>
     <use style="fill:#ff1493;stroke:#ff1493;stroke-width:2;" x="286.312276" xlink:href="#ma7bc2738ea" y="161.3325"/>
     <use style="fill:#ff1493;stroke:#ff1493;stroke-width:2;" x="411.107467" xlink:href="#ma7bc2738ea" y="166.080278"/>
     <use style="fill:#ff1493;stroke:#ff1493;stroke-width:2;" x="104.151555" xlink:href="#ma7bc2738ea" y="213.692518"/>
     <use style="fill:#ff1493;stroke:#ff1493;stroke-width:2;" x="475.517888" xlink:href="#ma7bc2738ea" y="147.19403"/>
     <use style="fill:#ff1493;stroke:#ff1493;stroke-width:2;" x="139.376004" xlink:href="#ma7bc2738ea" y="145.280694"/>
     <use style="fill:#ff1493;stroke:#ff1493;stroke-width:2;" x="262.158369" xlink:href="#ma7bc2738ea" y="139.603621"/>
     <use style="fill:#ff1493;stroke:#ff1493;stroke-width:2;" x="400.036926" xlink:href="#ma7bc2738ea" y="147.980135"/>
     <use style="fill:#ff1493;stroke:#ff1493;stroke-width:2;" x="388.966385" xlink:href="#ma7bc2738ea" y="119.027472"/>
     <use style="fill:#ff1493;stroke:#ff1493;stroke-width:2;" x="164.536325" xlink:href="#ma7bc2738ea" y="123.572699"/>
    </g>
   </g>
   <g id="patch_3">
    <path d="M 51.818088 284.4 
L 51.818088 7.2 
" style="fill:none;stroke:#000000;stroke-linecap:square;stroke-linejoin:miter;stroke-width:0.8;"/>
   </g>
   <g id="patch_4">
    <path d="M 554.018088 284.4 
L 554.018088 7.2 
" style="fill:none;stroke:#000000;stroke-linecap:square;stroke-linejoin:miter;stroke-width:0.8;"/>
   </g>
   <g id="patch_5">
    <path d="M 51.818088 284.4 
L 554.018088 284.4 
" style="fill:none;stroke:#000000;stroke-linecap:square;stroke-linejoin:miter;stroke-width:0.8;"/>
   </g>
   <g id="patch_6">
    <path d="M 51.818088 7.2 
L 554.018088 7.2 
" style="fill:none;stroke:#000000;stroke-linecap:square;stroke-linejoin:miter;stroke-width:0.8;"/>
   </g>
  </g>
 </g>
 <defs>
  <clipPath id="pc8178af052">
   <rect height="277.2" width="502.2" x="51.818088" y="7.2"/>
  </clipPath>
 </defs>
</svg>
