<?xml version="1.0" encoding="utf-8" standalone="no"?>
<!DOCTYPE svg PUBLIC "-//W3C//DTD SVG 1.1//EN"
  "http://www.w3.org/Graphics/SVG/1.1/DTD/svg11.dtd">
<!-- Created with matplotlib (https://matplotlib.org/) -->
<svg height="330.939269pt" version="1.1" viewBox="0 0 573.357623 330.939269" width="573.357623pt" xmlns="http://www.w3.org/2000/svg" xmlns:xlink="http://www.w3.org/1999/xlink">
 <metadata>
  <rdf:RDF xmlns:cc="http://creativecommons.org/ns#" xmlns:dc="http://purl.org/dc/elements/1.1/" xmlns:rdf="http://www.w3.org/1999/02/22-rdf-syntax-ns#">
   <cc:Work>
    <dc:type rdf:resource="http://purl.org/dc/dcmitype/StillImage"/>
    <dc:date>2021-02-15T02:27:03.693993</dc:date>
    <dc:format>image/svg+xml</dc:format>
    <dc:creator>
     <cc:Agent>
      <dc:title>Matplotlib v3.3.4, https://matplotlib.org/</dc:title>
     </cc:Agent>
    </dc:creator>
   </cc:Work>
  </rdf:RDF>
 </metadata>
 <defs>
  <style type="text/css">*{stroke-linecap:butt;stroke-linejoin:round;}</style>
 </defs>
 <g id="figure_1">
  <g id="patch_1">
   <path d="M 0 330.939269 
L 573.357623 330.939269 
L 573.357623 0 
L 0 0 
z
" style="fill:#ffffff;"/>
  </g>
  <g id="axes_1">
   <g id="patch_2">
    <path d="M 51.818088 284.4 
L 554.018088 284.4 
L 554.018088 7.2 
L 51.818088 7.2 
z
" style="fill:#ffffff;"/>
   </g>
   <g id="PolyCollection_1">
    <defs>
     <path d="M 51.818088 -240.579269 
L 51.818088 -129.699269 
L 52.824501 -129.699269 
L 53.830914 -129.699269 
L 54.837327 -129.699269 
L 55.843739 -129.699269 
L 56.850152 -129.699269 
L 57.856565 -129.699269 
L 58.862978 -129.699269 
L 59.869391 -129.699269 
L 60.875803 -129.699269 
L 61.882216 -129.699269 
L 62.888629 -129.699269 
L 63.895042 -129.699269 
L 64.901455 -129.699269 
L 65.907868 -129.699269 
L 66.91428 -129.699269 
L 67.920693 -129.699269 
L 68.927106 -129.699269 
L 69.933519 -129.699269 
L 70.939932 -129.699269 
L 71.946345 -129.699269 
L 72.952757 -129.699269 
L 73.95917 -129.699269 
L 74.965583 -129.699269 
L 75.971996 -129.699269 
L 76.978409 -129.699269 
L 77.984822 -129.699269 
L 78.991234 -129.699269 
L 79.997647 -129.699269 
L 81.00406 -129.699269 
L 82.010473 -129.699269 
L 83.016886 -129.699269 
L 84.023298 -129.699269 
L 85.029711 -129.699269 
L 86.036124 -129.699269 
L 87.042537 -129.699269 
L 88.04895 -129.699269 
L 89.055363 -129.699269 
L 90.061775 -129.699269 
L 91.068188 -129.699269 
L 92.074601 -129.699269 
L 93.081014 -129.699269 
L 94.087427 -129.699269 
L 95.09384 -129.699269 
L 96.100252 -129.699269 
L 97.106665 -129.699269 
L 98.113078 -129.699269 
L 99.119491 -129.699269 
L 100.125904 -129.699269 
L 101.132317 -129.699269 
L 102.138729 -129.699269 
L 103.145142 -129.699269 
L 104.151555 -129.699269 
L 105.157968 -129.699269 
L 106.164381 -129.699269 
L 107.170793 -129.699269 
L 108.177206 -129.699269 
L 109.183619 -129.699269 
L 110.190032 -129.699269 
L 111.196445 -129.699269 
L 112.202858 -129.699269 
L 113.20927 -129.699269 
L 114.215683 -129.699269 
L 115.222096 -129.699269 
L 116.228509 -129.699269 
L 117.234922 -129.699269 
L 118.241335 -129.699269 
L 119.247747 -129.699269 
L 120.25416 -129.699269 
L 121.260573 -129.699269 
L 122.266986 -129.699269 
L 123.273399 -129.699269 
L 124.279812 -129.699269 
L 125.286224 -129.699269 
L 126.292637 -129.699269 
L 127.29905 -129.699269 
L 128.305463 -129.699269 
L 129.311876 -129.699269 
L 130.318288 -129.699269 
L 131.324701 -129.699269 
L 132.331114 -129.699269 
L 133.337527 -129.699269 
L 134.34394 -129.699269 
L 135.350353 -129.699269 
L 136.356765 -129.699269 
L 137.363178 -129.699269 
L 138.369591 -129.699269 
L 139.376004 -129.699269 
L 140.382417 -129.699269 
L 141.38883 -129.699269 
L 142.395242 -129.699269 
L 143.401655 -129.699269 
L 144.408068 -129.699269 
L 145.414481 -129.699269 
L 146.420894 -129.699269 
L 147.427306 -129.699269 
L 148.433719 -129.699269 
L 149.440132 -129.699269 
L 150.446545 -129.699269 
L 151.452958 -129.699269 
L 152.459371 -129.699269 
L 153.465783 -129.699269 
L 154.472196 -129.699269 
L 155.478609 -129.699269 
L 156.485022 -129.699269 
L 157.491435 -129.699269 
L 158.497848 -129.699269 
L 159.50426 -129.699269 
L 160.510673 -129.699269 
L 161.517086 -129.699269 
L 162.523499 -129.699269 
L 163.529912 -129.699269 
L 164.536325 -129.699269 
L 165.542737 -129.699269 
L 166.54915 -129.699269 
L 167.555563 -129.699269 
L 168.561976 -129.699269 
L 169.568389 -129.699269 
L 170.574801 -129.699269 
L 171.581214 -129.699269 
L 172.587627 -129.699269 
L 173.59404 -129.699269 
L 174.600453 -129.699269 
L 175.606866 -129.699269 
L 176.613278 -129.699269 
L 177.619691 -129.699269 
L 178.626104 -129.699269 
L 179.632517 -129.699269 
L 180.63893 -129.699269 
L 181.645343 -129.699269 
L 182.651755 -129.699269 
L 183.658168 -129.699269 
L 184.664581 -129.699269 
L 185.670994 -129.699269 
L 186.677407 -129.699269 
L 187.68382 -129.699269 
L 188.690232 -129.699269 
L 189.696645 -129.699269 
L 190.703058 -129.699269 
L 191.709471 -129.699269 
L 192.715884 -129.699269 
L 193.722296 -129.699269 
L 194.728709 -129.699269 
L 195.735122 -129.699269 
L 196.741535 -129.699269 
L 197.747948 -129.699269 
L 198.754361 -129.699269 
L 199.760773 -129.699269 
L 200.767186 -129.699269 
L 201.773599 -129.699269 
L 202.780012 -129.699269 
L 203.786425 -129.699269 
L 204.792838 -129.699269 
L 205.79925 -129.699269 
L 206.805663 -129.699269 
L 207.812076 -129.699269 
L 208.818489 -129.699269 
L 209.824902 -129.699269 
L 210.831315 -129.699269 
L 211.837727 -129.699269 
L 212.84414 -129.699269 
L 213.850553 -129.699269 
L 214.856966 -129.699269 
L 215.863379 -129.699269 
L 216.869791 -129.699269 
L 217.876204 -129.699269 
L 218.882617 -129.699269 
L 219.88903 -129.699269 
L 220.895443 -129.699269 
L 221.901856 -129.699269 
L 222.908268 -129.699269 
L 223.914681 -129.699269 
L 224.921094 -129.699269 
L 225.927507 -129.699269 
L 226.93392 -129.699269 
L 227.940333 -129.699269 
L 228.946745 -129.699269 
L 229.953158 -129.699269 
L 230.959571 -129.699269 
L 231.965984 -129.699269 
L 232.972397 -129.699269 
L 233.978809 -129.699269 
L 234.985222 -129.699269 
L 235.991635 -129.699269 
L 236.998048 -129.699269 
L 238.004461 -129.699269 
L 239.010874 -129.699269 
L 240.017286 -129.699269 
L 241.023699 -129.699269 
L 242.030112 -129.699269 
L 243.036525 -129.699269 
L 244.042938 -129.699269 
L 245.049351 -129.699269 
L 246.055763 -129.699269 
L 247.062176 -129.699269 
L 248.068589 -129.699269 
L 249.075002 -129.699269 
L 250.081415 -129.699269 
L 251.087828 -129.699269 
L 252.09424 -129.699269 
L 253.100653 -129.699269 
L 254.107066 -129.699269 
L 255.113479 -129.699269 
L 256.119892 -129.699269 
L 257.126304 -129.699269 
L 258.132717 -129.699269 
L 259.13913 -129.699269 
L 260.145543 -129.699269 
L 261.151956 -129.699269 
L 262.158369 -129.699269 
L 263.164781 -129.699269 
L 264.171194 -129.699269 
L 265.177607 -129.699269 
L 266.18402 -129.699269 
L 267.190433 -129.699269 
L 268.196846 -129.699269 
L 269.203258 -129.699269 
L 270.209671 -129.699269 
L 271.216084 -129.699269 
L 272.222497 -129.699269 
L 273.22891 -129.699269 
L 274.235323 -129.699269 
L 275.241735 -129.699269 
L 276.248148 -129.699269 
L 277.254561 -129.699269 
L 278.260974 -129.699269 
L 279.267387 -129.699269 
L 280.273799 -129.699269 
L 281.280212 -129.699269 
L 282.286625 -129.699269 
L 283.293038 -129.699269 
L 284.299451 -129.699269 
L 285.305864 -129.699269 
L 286.312276 -129.699269 
L 287.318689 -129.699269 
L 288.325102 -129.699269 
L 289.331515 -129.699269 
L 290.337928 -129.699269 
L 291.344341 -129.699269 
L 292.350753 -129.699269 
L 293.357166 -129.699269 
L 294.363579 -129.699269 
L 295.369992 -129.699269 
L 296.376405 -129.699269 
L 297.382818 -129.699269 
L 298.38923 -129.699269 
L 299.395643 -129.699269 
L 300.402056 -129.699269 
L 301.408469 -129.699269 
L 302.414882 -129.699269 
L 303.421294 -129.699269 
L 304.427707 -129.699269 
L 305.43412 -129.699269 
L 306.440533 -129.699269 
L 307.446946 -129.699269 
L 308.453359 -129.699269 
L 309.459771 -129.699269 
L 310.466184 -129.699269 
L 311.472597 -129.699269 
L 312.47901 -129.699269 
L 313.485423 -129.699269 
L 314.491836 -129.699269 
L 315.498248 -129.699269 
L 316.504661 -129.699269 
L 317.511074 -129.699269 
L 318.517487 -129.699269 
L 319.5239 -129.699269 
L 320.530313 -129.699269 
L 321.536725 -129.699269 
L 322.543138 -129.699269 
L 323.549551 -129.699269 
L 324.555964 -129.699269 
L 325.562377 -129.699269 
L 326.568789 -129.699269 
L 327.575202 -129.699269 
L 328.581615 -129.699269 
L 329.588028 -129.699269 
L 330.594441 -129.699269 
L 331.600854 -129.699269 
L 332.607266 -129.699269 
L 333.613679 -129.699269 
L 334.620092 -129.699269 
L 335.626505 -129.699269 
L 336.632918 -129.699269 
L 337.639331 -129.699269 
L 338.645743 -129.699269 
L 339.652156 -129.699269 
L 340.658569 -129.699269 
L 341.664982 -129.699269 
L 342.671395 -129.699269 
L 343.677807 -129.699269 
L 344.68422 -129.699269 
L 345.690633 -129.699269 
L 346.697046 -129.699269 
L 347.703459 -129.699269 
L 348.709872 -129.699269 
L 349.716284 -129.699269 
L 350.722697 -129.699269 
L 351.72911 -129.699269 
L 352.735523 -129.699269 
L 353.741936 -129.699269 
L 354.748349 -129.699269 
L 355.754761 -129.699269 
L 356.761174 -129.699269 
L 357.767587 -129.699269 
L 358.774 -129.699269 
L 359.780413 -129.699269 
L 360.786826 -129.699269 
L 361.793238 -129.699269 
L 362.799651 -129.699269 
L 363.806064 -129.699269 
L 364.812477 -129.699269 
L 365.81889 -129.699269 
L 366.825302 -129.699269 
L 367.831715 -129.699269 
L 368.838128 -129.699269 
L 369.844541 -129.699269 
L 370.850954 -129.699269 
L 371.857367 -129.699269 
L 372.863779 -129.699269 
L 373.870192 -129.699269 
L 374.876605 -129.699269 
L 375.883018 -129.699269 
L 376.889431 -129.699269 
L 377.895844 -129.699269 
L 378.902256 -129.699269 
L 379.908669 -129.699269 
L 380.915082 -129.699269 
L 381.921495 -129.699269 
L 382.927908 -129.699269 
L 383.934321 -129.699269 
L 384.940733 -129.699269 
L 385.947146 -129.699269 
L 386.953559 -129.699269 
L 387.959972 -129.699269 
L 388.966385 -129.699269 
L 389.972797 -129.699269 
L 390.97921 -129.699269 
L 391.985623 -129.699269 
L 392.992036 -129.699269 
L 393.998449 -129.699269 
L 395.004862 -129.699269 
L 396.011274 -129.699269 
L 397.017687 -129.699269 
L 398.0241 -129.699269 
L 399.030513 -129.699269 
L 400.036926 -129.699269 
L 401.043339 -129.699269 
L 402.049751 -129.699269 
L 403.056164 -129.699269 
L 404.062577 -129.699269 
L 405.06899 -129.699269 
L 406.075403 -129.699269 
L 407.081816 -129.699269 
L 408.088228 -129.699269 
L 409.094641 -129.699269 
L 410.101054 -129.699269 
L 411.107467 -129.699269 
L 412.11388 -129.699269 
L 413.120292 -129.699269 
L 414.126705 -129.699269 
L 415.133118 -129.699269 
L 416.139531 -129.699269 
L 417.145944 -129.699269 
L 418.152357 -129.699269 
L 419.158769 -129.699269 
L 420.165182 -129.699269 
L 421.171595 -129.699269 
L 422.178008 -129.699269 
L 423.184421 -129.699269 
L 424.190834 -129.699269 
L 425.197246 -129.699269 
L 426.203659 -129.699269 
L 427.210072 -129.699269 
L 428.216485 -129.699269 
L 429.222898 -129.699269 
L 430.22931 -129.699269 
L 431.235723 -129.699269 
L 432.242136 -129.699269 
L 433.248549 -129.699269 
L 434.254962 -129.699269 
L 435.261375 -129.699269 
L 436.267787 -129.699269 
L 437.2742 -129.699269 
L 438.280613 -129.699269 
L 439.287026 -129.699269 
L 440.293439 -129.699269 
L 441.299852 -129.699269 
L 442.306264 -129.699269 
L 443.312677 -129.699269 
L 444.31909 -129.699269 
L 445.325503 -129.699269 
L 446.331916 -129.699269 
L 447.338329 -129.699269 
L 448.344741 -129.699269 
L 449.351154 -129.699269 
L 450.357567 -129.699269 
L 451.36398 -129.699269 
L 452.370393 -129.699269 
L 453.376805 -129.699269 
L 454.383218 -129.699269 
L 455.389631 -129.699269 
L 456.396044 -129.699269 
L 457.402457 -129.699269 
L 458.40887 -129.699269 
L 459.415282 -129.699269 
L 460.421695 -129.699269 
L 461.428108 -129.699269 
L 462.434521 -129.699269 
L 463.440934 -129.699269 
L 464.447347 -129.699269 
L 465.453759 -129.699269 
L 466.460172 -129.699269 
L 467.466585 -129.699269 
L 468.472998 -129.699269 
L 469.479411 -129.699269 
L 470.485824 -129.699269 
L 471.492236 -129.699269 
L 472.498649 -129.699269 
L 473.505062 -129.699269 
L 474.511475 -129.699269 
L 475.517888 -129.699269 
L 476.5243 -129.699269 
L 477.530713 -129.699269 
L 478.537126 -129.699269 
L 479.543539 -129.699269 
L 480.549952 -129.699269 
L 481.556365 -129.699269 
L 482.562777 -129.699269 
L 483.56919 -129.699269 
L 484.575603 -129.699269 
L 485.582016 -129.699269 
L 486.588429 -129.699269 
L 487.594842 -129.699269 
L 488.601254 -129.699269 
L 489.607667 -129.699269 
L 490.61408 -129.699269 
L 491.620493 -129.699269 
L 492.626906 -129.699269 
L 493.633319 -129.699269 
L 494.639731 -129.699269 
L 495.646144 -129.699269 
L 496.652557 -129.699269 
L 497.65897 -129.699269 
L 498.665383 -129.699269 
L 499.671795 -129.699269 
L 500.678208 -129.699269 
L 501.684621 -129.699269 
L 502.691034 -129.699269 
L 503.697447 -129.699269 
L 504.70386 -129.699269 
L 505.710272 -129.699269 
L 506.716685 -129.699269 
L 507.723098 -129.699269 
L 508.729511 -129.699269 
L 509.735924 -129.699269 
L 510.742337 -129.699269 
L 511.748749 -129.699269 
L 512.755162 -129.699269 
L 513.761575 -129.699269 
L 514.767988 -129.699269 
L 515.774401 -129.699269 
L 516.780814 -129.699269 
L 517.787226 -129.699269 
L 518.793639 -129.699269 
L 519.800052 -129.699269 
L 520.806465 -129.699269 
L 521.812878 -129.699269 
L 522.81929 -129.699269 
L 523.825703 -129.699269 
L 524.832116 -129.699269 
L 525.838529 -129.699269 
L 526.844942 -129.699269 
L 527.851355 -129.699269 
L 528.857767 -129.699269 
L 529.86418 -129.699269 
L 530.870593 -129.699269 
L 531.877006 -129.699269 
L 532.883419 -129.699269 
L 533.889832 -129.699269 
L 534.896244 -129.699269 
L 535.902657 -129.699269 
L 536.90907 -129.699269 
L 537.915483 -129.699269 
L 538.921896 -129.699269 
L 539.928308 -129.699269 
L 540.934721 -129.699269 
L 541.941134 -129.699269 
L 542.947547 -129.699269 
L 543.95396 -129.699269 
L 544.960373 -129.699269 
L 545.966785 -129.699269 
L 546.973198 -129.699269 
L 547.979611 -129.699269 
L 548.986024 -129.699269 
L 549.992437 -129.699269 
L 550.99885 -129.699269 
L 552.005262 -129.699269 
L 553.011675 -129.699269 
L 554.018088 -129.699269 
L 554.018088 -240.579269 
L 554.018088 -240.579269 
L 553.011675 -240.579269 
L 552.005262 -240.579269 
L 550.99885 -240.579269 
L 549.992437 -240.579269 
L 548.986024 -240.579269 
L 547.979611 -240.579269 
L 546.973198 -240.579269 
L 545.966785 -240.579269 
L 544.960373 -240.579269 
L 543.95396 -240.579269 
L 542.947547 -240.579269 
L 541.941134 -240.579269 
L 540.934721 -240.579269 
L 539.928308 -240.579269 
L 538.921896 -240.579269 
L 537.915483 -240.579269 
L 536.90907 -240.579269 
L 535.902657 -240.579269 
L 534.896244 -240.579269 
L 533.889832 -240.579269 
L 532.883419 -240.579269 
L 531.877006 -240.579269 
L 530.870593 -240.579269 
L 529.86418 -240.579269 
L 528.857767 -240.579269 
L 527.851355 -240.579269 
L 526.844942 -240.579269 
L 525.838529 -240.579269 
L 524.832116 -240.579269 
L 523.825703 -240.579269 
L 522.81929 -240.579269 
L 521.812878 -240.579269 
L 520.806465 -240.579269 
L 519.800052 -240.579269 
L 518.793639 -240.579269 
L 517.787226 -240.579269 
L 516.780814 -240.579269 
L 515.774401 -240.579269 
L 514.767988 -240.579269 
L 513.761575 -240.579269 
L 512.755162 -240.579269 
L 511.748749 -240.579269 
L 510.742337 -240.579269 
L 509.735924 -240.579269 
L 508.729511 -240.579269 
L 507.723098 -240.579269 
L 506.716685 -240.579269 
L 505.710272 -240.579269 
L 504.70386 -240.579269 
L 503.697447 -240.579269 
L 502.691034 -240.579269 
L 501.684621 -240.579269 
L 500.678208 -240.579269 
L 499.671795 -240.579269 
L 498.665383 -240.579269 
L 497.65897 -240.579269 
L 496.652557 -240.579269 
L 495.646144 -240.579269 
L 494.639731 -240.579269 
L 493.633319 -240.579269 
L 492.626906 -240.579269 
L 491.620493 -240.579269 
L 490.61408 -240.579269 
L 489.607667 -240.579269 
L 488.601254 -240.579269 
L 487.594842 -240.579269 
L 486.588429 -240.579269 
L 485.582016 -240.579269 
L 484.575603 -240.579269 
L 483.56919 -240.579269 
L 482.562777 -240.579269 
L 481.556365 -240.579269 
L 480.549952 -240.579269 
L 479.543539 -240.579269 
L 478.537126 -240.579269 
L 477.530713 -240.579269 
L 476.5243 -240.579269 
L 475.517888 -240.579269 
L 474.511475 -240.579269 
L 473.505062 -240.579269 
L 472.498649 -240.579269 
L 471.492236 -240.579269 
L 470.485824 -240.579269 
L 469.479411 -240.579269 
L 468.472998 -240.579269 
L 467.466585 -240.579269 
L 466.460172 -240.579269 
L 465.453759 -240.579269 
L 464.447347 -240.579269 
L 463.440934 -240.579269 
L 462.434521 -240.579269 
L 461.428108 -240.579269 
L 460.421695 -240.579269 
L 459.415282 -240.579269 
L 458.40887 -240.579269 
L 457.402457 -240.579269 
L 456.396044 -240.579269 
L 455.389631 -240.579269 
L 454.383218 -240.579269 
L 453.376805 -240.579269 
L 452.370393 -240.579269 
L 451.36398 -240.579269 
L 450.357567 -240.579269 
L 449.351154 -240.579269 
L 448.344741 -240.579269 
L 447.338329 -240.579269 
L 446.331916 -240.579269 
L 445.325503 -240.579269 
L 444.31909 -240.579269 
L 443.312677 -240.579269 
L 442.306264 -240.579269 
L 441.299852 -240.579269 
L 440.293439 -240.579269 
L 439.287026 -240.579269 
L 438.280613 -240.579269 
L 437.2742 -240.579269 
L 436.267787 -240.579269 
L 435.261375 -240.579269 
L 434.254962 -240.579269 
L 433.248549 -240.579269 
L 432.242136 -240.579269 
L 431.235723 -240.579269 
L 430.22931 -240.579269 
L 429.222898 -240.579269 
L 428.216485 -240.579269 
L 427.210072 -240.579269 
L 426.203659 -240.579269 
L 425.197246 -240.579269 
L 424.190834 -240.579269 
L 423.184421 -240.579269 
L 422.178008 -240.579269 
L 421.171595 -240.579269 
L 420.165182 -240.579269 
L 419.158769 -240.579269 
L 418.152357 -240.579269 
L 417.145944 -240.579269 
L 416.139531 -240.579269 
L 415.133118 -240.579269 
L 414.126705 -240.579269 
L 413.120292 -240.579269 
L 412.11388 -240.579269 
L 411.107467 -240.579269 
L 410.101054 -240.579269 
L 409.094641 -240.579269 
L 408.088228 -240.579269 
L 407.081816 -240.579269 
L 406.075403 -240.579269 
L 405.06899 -240.579269 
L 404.062577 -240.579269 
L 403.056164 -240.579269 
L 402.049751 -240.579269 
L 401.043339 -240.579269 
L 400.036926 -240.579269 
L 399.030513 -240.579269 
L 398.0241 -240.579269 
L 397.017687 -240.579269 
L 396.011274 -240.579269 
L 395.004862 -240.579269 
L 393.998449 -240.579269 
L 392.992036 -240.579269 
L 391.985623 -240.579269 
L 390.97921 -240.579269 
L 389.972797 -240.579269 
L 388.966385 -240.579269 
L 387.959972 -240.579269 
L 386.953559 -240.579269 
L 385.947146 -240.579269 
L 384.940733 -240.579269 
L 383.934321 -240.579269 
L 382.927908 -240.579269 
L 381.921495 -240.579269 
L 380.915082 -240.579269 
L 379.908669 -240.579269 
L 378.902256 -240.579269 
L 377.895844 -240.579269 
L 376.889431 -240.579269 
L 375.883018 -240.579269 
L 374.876605 -240.579269 
L 373.870192 -240.579269 
L 372.863779 -240.579269 
L 371.857367 -240.579269 
L 370.850954 -240.579269 
L 369.844541 -240.579269 
L 368.838128 -240.579269 
L 367.831715 -240.579269 
L 366.825302 -240.579269 
L 365.81889 -240.579269 
L 364.812477 -240.579269 
L 363.806064 -240.579269 
L 362.799651 -240.579269 
L 361.793238 -240.579269 
L 360.786826 -240.579269 
L 359.780413 -240.579269 
L 358.774 -240.579269 
L 357.767587 -240.579269 
L 356.761174 -240.579269 
L 355.754761 -240.579269 
L 354.748349 -240.579269 
L 353.741936 -240.579269 
L 352.735523 -240.579269 
L 351.72911 -240.579269 
L 350.722697 -240.579269 
L 349.716284 -240.579269 
L 348.709872 -240.579269 
L 347.703459 -240.579269 
L 346.697046 -240.579269 
L 345.690633 -240.579269 
L 344.68422 -240.579269 
L 343.677807 -240.579269 
L 342.671395 -240.579269 
L 341.664982 -240.579269 
L 340.658569 -240.579269 
L 339.652156 -240.579269 
L 338.645743 -240.579269 
L 337.639331 -240.579269 
L 336.632918 -240.579269 
L 335.626505 -240.579269 
L 334.620092 -240.579269 
L 333.613679 -240.579269 
L 332.607266 -240.579269 
L 331.600854 -240.579269 
L 330.594441 -240.579269 
L 329.588028 -240.579269 
L 328.581615 -240.579269 
L 327.575202 -240.579269 
L 326.568789 -240.579269 
L 325.562377 -240.579269 
L 324.555964 -240.579269 
L 323.549551 -240.579269 
L 322.543138 -240.579269 
L 321.536725 -240.579269 
L 320.530313 -240.579269 
L 319.5239 -240.579269 
L 318.517487 -240.579269 
L 317.511074 -240.579269 
L 316.504661 -240.579269 
L 315.498248 -240.579269 
L 314.491836 -240.579269 
L 313.485423 -240.579269 
L 312.47901 -240.579269 
L 311.472597 -240.579269 
L 310.466184 -240.579269 
L 309.459771 -240.579269 
L 308.453359 -240.579269 
L 307.446946 -240.579269 
L 306.440533 -240.579269 
L 305.43412 -240.579269 
L 304.427707 -240.579269 
L 303.421294 -240.579269 
L 302.414882 -240.579269 
L 301.408469 -240.579269 
L 300.402056 -240.579269 
L 299.395643 -240.579269 
L 298.38923 -240.579269 
L 297.382818 -240.579269 
L 296.376405 -240.579269 
L 295.369992 -240.579269 
L 294.363579 -240.579269 
L 293.357166 -240.579269 
L 292.350753 -240.579269 
L 291.344341 -240.579269 
L 290.337928 -240.579269 
L 289.331515 -240.579269 
L 288.325102 -240.579269 
L 287.318689 -240.579269 
L 286.312276 -240.579269 
L 285.305864 -240.579269 
L 284.299451 -240.579269 
L 283.293038 -240.579269 
L 282.286625 -240.579269 
L 281.280212 -240.579269 
L 280.273799 -240.579269 
L 279.267387 -240.579269 
L 278.260974 -240.579269 
L 277.254561 -240.579269 
L 276.248148 -240.579269 
L 275.241735 -240.579269 
L 274.235323 -240.579269 
L 273.22891 -240.579269 
L 272.222497 -240.579269 
L 271.216084 -240.579269 
L 270.209671 -240.579269 
L 269.203258 -240.579269 
L 268.196846 -240.579269 
L 267.190433 -240.579269 
L 266.18402 -240.579269 
L 265.177607 -240.579269 
L 264.171194 -240.579269 
L 263.164781 -240.579269 
L 262.158369 -240.579269 
L 261.151956 -240.579269 
L 260.145543 -240.579269 
L 259.13913 -240.579269 
L 258.132717 -240.579269 
L 257.126304 -240.579269 
L 256.119892 -240.579269 
L 255.113479 -240.579269 
L 254.107066 -240.579269 
L 253.100653 -240.579269 
L 252.09424 -240.579269 
L 251.087828 -240.579269 
L 250.081415 -240.579269 
L 249.075002 -240.579269 
L 248.068589 -240.579269 
L 247.062176 -240.579269 
L 246.055763 -240.579269 
L 245.049351 -240.579269 
L 244.042938 -240.579269 
L 243.036525 -240.579269 
L 242.030112 -240.579269 
L 241.023699 -240.579269 
L 240.017286 -240.579269 
L 239.010874 -240.579269 
L 238.004461 -240.579269 
L 236.998048 -240.579269 
L 235.991635 -240.579269 
L 234.985222 -240.579269 
L 233.978809 -240.579269 
L 232.972397 -240.579269 
L 231.965984 -240.579269 
L 230.959571 -240.579269 
L 229.953158 -240.579269 
L 228.946745 -240.579269 
L 227.940333 -240.579269 
L 226.93392 -240.579269 
L 225.927507 -240.579269 
L 224.921094 -240.579269 
L 223.914681 -240.579269 
L 222.908268 -240.579269 
L 221.901856 -240.579269 
L 220.895443 -240.579269 
L 219.88903 -240.579269 
L 218.882617 -240.579269 
L 217.876204 -240.579269 
L 216.869791 -240.579269 
L 215.863379 -240.579269 
L 214.856966 -240.579269 
L 213.850553 -240.579269 
L 212.84414 -240.579269 
L 211.837727 -240.579269 
L 210.831315 -240.579269 
L 209.824902 -240.579269 
L 208.818489 -240.579269 
L 207.812076 -240.579269 
L 206.805663 -240.579269 
L 205.79925 -240.579269 
L 204.792838 -240.579269 
L 203.786425 -240.579269 
L 202.780012 -240.579269 
L 201.773599 -240.579269 
L 200.767186 -240.579269 
L 199.760773 -240.579269 
L 198.754361 -240.579269 
L 197.747948 -240.579269 
L 196.741535 -240.579269 
L 195.735122 -240.579269 
L 194.728709 -240.579269 
L 193.722296 -240.579269 
L 192.715884 -240.579269 
L 191.709471 -240.579269 
L 190.703058 -240.579269 
L 189.696645 -240.579269 
L 188.690232 -240.579269 
L 187.68382 -240.579269 
L 186.677407 -240.579269 
L 185.670994 -240.579269 
L 184.664581 -240.579269 
L 183.658168 -240.579269 
L 182.651755 -240.579269 
L 181.645343 -240.579269 
L 180.63893 -240.579269 
L 179.632517 -240.579269 
L 178.626104 -240.579269 
L 177.619691 -240.579269 
L 176.613278 -240.579269 
L 175.606866 -240.579269 
L 174.600453 -240.579269 
L 173.59404 -240.579269 
L 172.587627 -240.579269 
L 171.581214 -240.579269 
L 170.574801 -240.579269 
L 169.568389 -240.579269 
L 168.561976 -240.579269 
L 167.555563 -240.579269 
L 166.54915 -240.579269 
L 165.542737 -240.579269 
L 164.536325 -240.579269 
L 163.529912 -240.579269 
L 162.523499 -240.579269 
L 161.517086 -240.579269 
L 160.510673 -240.579269 
L 159.50426 -240.579269 
L 158.497848 -240.579269 
L 157.491435 -240.579269 
L 156.485022 -240.579269 
L 155.478609 -240.579269 
L 154.472196 -240.579269 
L 153.465783 -240.579269 
L 152.459371 -240.579269 
L 151.452958 -240.579269 
L 150.446545 -240.579269 
L 149.440132 -240.579269 
L 148.433719 -240.579269 
L 147.427306 -240.579269 
L 146.420894 -240.579269 
L 145.414481 -240.579269 
L 144.408068 -240.579269 
L 143.401655 -240.579269 
L 142.395242 -240.579269 
L 141.38883 -240.579269 
L 140.382417 -240.579269 
L 139.376004 -240.579269 
L 138.369591 -240.579269 
L 137.363178 -240.579269 
L 136.356765 -240.579269 
L 135.350353 -240.579269 
L 134.34394 -240.579269 
L 133.337527 -240.579269 
L 132.331114 -240.579269 
L 131.324701 -240.579269 
L 130.318288 -240.579269 
L 129.311876 -240.579269 
L 128.305463 -240.579269 
L 127.29905 -240.579269 
L 126.292637 -240.579269 
L 125.286224 -240.579269 
L 124.279812 -240.579269 
L 123.273399 -240.579269 
L 122.266986 -240.579269 
L 121.260573 -240.579269 
L 120.25416 -240.579269 
L 119.247747 -240.579269 
L 118.241335 -240.579269 
L 117.234922 -240.579269 
L 116.228509 -240.579269 
L 115.222096 -240.579269 
L 114.215683 -240.579269 
L 113.20927 -240.579269 
L 112.202858 -240.579269 
L 111.196445 -240.579269 
L 110.190032 -240.579269 
L 109.183619 -240.579269 
L 108.177206 -240.579269 
L 107.170793 -240.579269 
L 106.164381 -240.579269 
L 105.157968 -240.579269 
L 104.151555 -240.579269 
L 103.145142 -240.579269 
L 102.138729 -240.579269 
L 101.132317 -240.579269 
L 100.125904 -240.579269 
L 99.119491 -240.579269 
L 98.113078 -240.579269 
L 97.106665 -240.579269 
L 96.100252 -240.579269 
L 95.09384 -240.579269 
L 94.087427 -240.579269 
L 93.081014 -240.579269 
L 92.074601 -240.579269 
L 91.068188 -240.579269 
L 90.061775 -240.579269 
L 89.055363 -240.579269 
L 88.04895 -240.579269 
L 87.042537 -240.579269 
L 86.036124 -240.579269 
L 85.029711 -240.579269 
L 84.023298 -240.579269 
L 83.016886 -240.579269 
L 82.010473 -240.579269 
L 81.00406 -240.579269 
L 79.997647 -240.579269 
L 78.991234 -240.579269 
L 77.984822 -240.579269 
L 76.978409 -240.579269 
L 75.971996 -240.579269 
L 74.965583 -240.579269 
L 73.95917 -240.579269 
L 72.952757 -240.579269 
L 71.946345 -240.579269 
L 70.939932 -240.579269 
L 69.933519 -240.579269 
L 68.927106 -240.579269 
L 67.920693 -240.579269 
L 66.91428 -240.579269 
L 65.907868 -240.579269 
L 64.901455 -240.579269 
L 63.895042 -240.579269 
L 62.888629 -240.579269 
L 61.882216 -240.579269 
L 60.875803 -240.579269 
L 59.869391 -240.579269 
L 58.862978 -240.579269 
L 57.856565 -240.579269 
L 56.850152 -240.579269 
L 55.843739 -240.579269 
L 54.837327 -240.579269 
L 53.830914 -240.579269 
L 52.824501 -240.579269 
L 51.818088 -240.579269 
z
" id="ma1e7687aec" style="stroke:#b0c4de;stroke-opacity:0.5;"/>
    </defs>
    <g clip-path="url(#p9963c48fa9)">
     <use style="fill:#b0c4de;fill-opacity:0.5;stroke:#b0c4de;stroke-opacity:0.5;" x="0" xlink:href="#ma1e7687aec" y="330.939269"/>
    </g>
   </g>
   <g id="matplotlib.axis_1">
    <g id="xtick_1">
     <g id="line2d_1">
      <defs>
       <path d="M 0 0 
L 0 3.5 
" id="mf13c087a29" style="stroke:#000000;stroke-width:0.8;"/>
      </defs>
      <g>
       <use style="stroke:#000000;stroke-width:0.8;" x="51.818088" xlink:href="#mf13c087a29" y="284.4"/>
      </g>
     </g>
     <g id="text_1">
      <!-- $\mathdefault{−10.0}$ -->
      <g transform="translate(34.254435 301.085876)scale(0.14 -0.14)">
       <defs>
        <path d="M 65.90625 23 
C 67.59375 23 69.40625 23 69.40625 25 
C 69.40625 27 67.59375 27 65.90625 27 
L 11.796875 27 
C 10.09375 27 8.296875 27 8.296875 25 
C 8.296875 23 10.09375 23 11.796875 23 
z
" id="CMSY10-0"/>
        <path d="M 26.59375 63.40625 
C 26.59375 65.5 26.5 65.5 25.09375 65.5 
C 21.203125 61.1875 15.296875 59.796875 9.703125 59.796875 
C 9.40625 59.796875 8.90625 59.796875 8.796875 59.5 
C 8.703125 59.296875 8.703125 59.09375 8.703125 57 
C 11.796875 57 17 57.59375 21 59.984375 
L 21 7.203125 
C 21 3.6875 20.796875 2.5 12.203125 2.5 
L 9.203125 2.5 
L 9.203125 0 
C 14 0 19 0 23.796875 0 
C 28.59375 0 33.59375 0 38.40625 0 
L 38.40625 2.5 
L 35.40625 2.5 
C 26.796875 2.5 26.59375 3.59375 26.59375 7.15625 
z
" id="CMR17-49"/>
        <path d="M 42 31.640625 
C 42 37.75 41.90625 48.125 37.703125 56.109375 
C 34 63.109375 28.09375 65.59375 22.90625 65.59375 
C 18.09375 65.59375 12 63.40625 8.203125 56.203125 
C 4.203125 48.71875 3.796875 39.4375 3.796875 31.640625 
C 3.796875 25.953125 3.90625 17.28125 7 9.671875 
C 11.296875 -0.609375 19 -2 22.90625 -2 
C 27.5 -2 34.5 -0.109375 38.59375 9.375 
C 41.59375 16.28125 42 24.359375 42 31.640625 
z
M 22.90625 -0.40625 
C 16.5 -0.40625 12.703125 5.078125 11.296875 12.6875 
C 10.203125 18.5625 10.203125 27.15625 10.203125 32.75 
C 10.203125 40.4375 10.203125 46.828125 11.5 52.921875 
C 13.40625 61.390625 19 64 22.90625 64 
C 27 64 32.296875 61.296875 34.203125 53.125 
C 35.5 47.4375 35.59375 40.734375 35.59375 32.75 
C 35.59375 26.25 35.59375 18.265625 34.40625 12.375 
C 32.296875 1.484375 26.40625 -0.40625 22.90625 -0.40625 
z
" id="CMR17-48"/>
        <path d="M 18.40625 4.796875 
C 18.40625 7.6875 16 9.671875 13.59375 9.671875 
C 10.703125 9.671875 8.703125 7.28125 8.703125 4.890625 
C 8.703125 2 11.09375 0 13.5 0 
C 16.40625 0 18.40625 2.390625 18.40625 4.796875 
z
" id="CMMI12-58"/>
       </defs>
       <use transform="scale(0.996264)" xlink:href="#CMSY10-0"/>
       <use transform="translate(77.487468 0)scale(0.996264)" xlink:href="#CMR17-49"/>
       <use transform="translate(123.177945 0)scale(0.996264)" xlink:href="#CMR17-48"/>
       <use transform="translate(168.868422 0)scale(0.996264)" xlink:href="#CMMI12-58"/>
       <use transform="translate(195.965599 0)scale(0.996264)" xlink:href="#CMR17-48"/>
      </g>
     </g>
    </g>
    <g id="xtick_2">
     <g id="line2d_2">
      <g>
       <use style="stroke:#000000;stroke-width:0.8;" x="114.593088" xlink:href="#mf13c087a29" y="284.4"/>
      </g>
     </g>
     <g id="text_2">
      <!-- $\mathdefault{−7.5}$ -->
      <g transform="translate(100.443679 301.085876)scale(0.14 -0.14)">
       <defs>
        <path d="M 45.09375 61.578125 
L 45.09375 63.765625 
L 21.59375 63.765625 
C 9.90625 63.765625 9.703125 65.078125 9.296875 67 
L 7.5 67 
L 4.59375 48.34375 
L 6.40625 48.34375 
C 6.703125 50.234375 7.40625 55.3125 8.59375 57.203125 
C 9.203125 58 16.59375 58 18.296875 58 
L 40.296875 58 
L 29.203125 41.578125 
C 21.796875 30.53125 16.703125 15.609375 16.703125 2.578125 
C 16.703125 1.390625 16.703125 -2 20.296875 -2 
C 23.90625 -2 23.90625 1.390625 23.90625 2.671875 
L 23.90625 7.265625 
C 23.90625 23.5625 26.703125 34.3125 31.296875 41.1875 
z
" id="CMR17-55"/>
        <path d="M 11.40625 57.6875 
C 12.40625 57.28125 16.5 56 20.703125 56 
C 30 56 35.09375 61.109375 38 64.0625 
C 38 64.953125 38 65.5 37.40625 65.5 
C 37.296875 65.5 37.09375 65.5 36.296875 65.046875 
C 32.796875 63.40625 28.703125 62.078125 23.703125 62.078125 
C 20.703125 62.078125 16.203125 62.484375 11.296875 64.671875 
C 10.203125 65.171875 10 65.171875 9.90625 65.171875 
C 9.40625 65.171875 9.296875 65.0625 9.296875 63.078125 
L 9.296875 34.421875 
C 9.296875 32.640625 9.296875 32.140625 10.296875 32.140625 
C 10.796875 32.140625 11 32.34375 11.5 33.03125 
C 14.703125 37.515625 19.09375 39.40625 24.09375 39.40625 
C 27.59375 39.40625 35.09375 37.21875 35.09375 20.140625 
C 35.09375 16.953125 35.09375 11.171875 32.09375 6.578125 
C 29.59375 2.484375 25.703125 0.390625 21.40625 0.390625 
C 14.796875 0.390625 8.09375 5 6.296875 12.71875 
C 6.703125 12.609375 7.5 12.421875 7.90625 12.421875 
C 9.203125 12.421875 11.703125 13.125 11.703125 16.21875 
C 11.703125 18.90625 9.796875 20 7.90625 20 
C 5.59375 20 4.09375 18.59375 4.09375 15.796875 
C 4.09375 7.09375 11 -2 21.59375 -2 
C 31.90625 -2 41.703125 6.875 41.703125 19.75 
C 41.703125 31.71875 33.90625 41 24.203125 41 
C 19.09375 41 14.796875 39.109375 11.40625 35.53125 
z
" id="CMR17-53"/>
       </defs>
       <use transform="scale(0.996264)" xlink:href="#CMSY10-0"/>
       <use transform="translate(77.487468 0)scale(0.996264)" xlink:href="#CMR17-55"/>
       <use transform="translate(123.177945 0)scale(0.996264)" xlink:href="#CMMI12-58"/>
       <use transform="translate(150.275122 0)scale(0.996264)" xlink:href="#CMR17-53"/>
      </g>
     </g>
    </g>
    <g id="xtick_3">
     <g id="line2d_3">
      <g>
       <use style="stroke:#000000;stroke-width:0.8;" x="177.368088" xlink:href="#mf13c087a29" y="284.4"/>
      </g>
     </g>
     <g id="text_3">
      <!-- $\mathdefault{−5.0}$ -->
      <g transform="translate(163.218679 301.085876)scale(0.14 -0.14)">
       <use transform="scale(0.996264)" xlink:href="#CMSY10-0"/>
       <use transform="translate(77.487468 0)scale(0.996264)" xlink:href="#CMR17-53"/>
       <use transform="translate(123.177945 0)scale(0.996264)" xlink:href="#CMMI12-58"/>
       <use transform="translate(150.275122 0)scale(0.996264)" xlink:href="#CMR17-48"/>
      </g>
     </g>
    </g>
    <g id="xtick_4">
     <g id="line2d_4">
      <g>
       <use style="stroke:#000000;stroke-width:0.8;" x="240.143088" xlink:href="#mf13c087a29" y="284.4"/>
      </g>
     </g>
     <g id="text_4">
      <!-- $\mathdefault{−2.5}$ -->
      <g transform="translate(225.993679 301.085876)scale(0.14 -0.14)">
       <defs>
        <path d="M 41.703125 15.453125 
L 39.90625 15.453125 
C 38.90625 8.375 38.09375 7.171875 37.703125 6.5625 
C 37.203125 5.765625 30 5.765625 28.59375 5.765625 
L 9.40625 5.765625 
C 13 9.671875 20 16.75 28.5 24.953125 
C 34.59375 30.734375 41.703125 37.53125 41.703125 47.421875 
C 41.703125 59.21875 32.296875 66 21.796875 66 
C 10.796875 66 4.09375 56.3125 4.09375 47.34375 
C 4.09375 43.4375 7 42.9375 8.203125 42.9375 
C 9.203125 42.9375 12.203125 43.546875 12.203125 47.03125 
C 12.203125 50.109375 9.59375 51 8.203125 51 
C 7.59375 51 7 50.90625 6.59375 50.703125 
C 8.5 59.21875 14.296875 63.40625 20.40625 63.40625 
C 29.09375 63.40625 34.796875 56.515625 34.796875 47.421875 
C 34.796875 38.734375 29.703125 31.25 24 24.75 
L 4.09375 2.28125 
L 4.09375 0 
L 39.296875 0 
z
" id="CMR17-50"/>
       </defs>
       <use transform="scale(0.996264)" xlink:href="#CMSY10-0"/>
       <use transform="translate(77.487468 0)scale(0.996264)" xlink:href="#CMR17-50"/>
       <use transform="translate(123.177945 0)scale(0.996264)" xlink:href="#CMMI12-58"/>
       <use transform="translate(150.275122 0)scale(0.996264)" xlink:href="#CMR17-53"/>
      </g>
     </g>
    </g>
    <g id="xtick_5">
     <g id="line2d_5">
      <g>
       <use style="stroke:#000000;stroke-width:0.8;" x="302.918088" xlink:href="#mf13c087a29" y="284.4"/>
      </g>
     </g>
     <g id="text_5">
      <!-- $\mathdefault{0.0}$ -->
      <g transform="translate(294.192797 301.085876)scale(0.14 -0.14)">
       <use transform="scale(0.996264)" xlink:href="#CMR17-48"/>
       <use transform="translate(45.690477 0)scale(0.996264)" xlink:href="#CMMI12-58"/>
       <use transform="translate(72.787654 0)scale(0.996264)" xlink:href="#CMR17-48"/>
      </g>
     </g>
    </g>
    <g id="xtick_6">
     <g id="line2d_6">
      <g>
       <use style="stroke:#000000;stroke-width:0.8;" x="365.693088" xlink:href="#mf13c087a29" y="284.4"/>
      </g>
     </g>
     <g id="text_6">
      <!-- $\mathdefault{2.5}$ -->
      <g transform="translate(356.967797 301.085876)scale(0.14 -0.14)">
       <use transform="scale(0.996264)" xlink:href="#CMR17-50"/>
       <use transform="translate(45.690477 0)scale(0.996264)" xlink:href="#CMMI12-58"/>
       <use transform="translate(72.787654 0)scale(0.996264)" xlink:href="#CMR17-53"/>
      </g>
     </g>
    </g>
    <g id="xtick_7">
     <g id="line2d_7">
      <g>
       <use style="stroke:#000000;stroke-width:0.8;" x="428.468088" xlink:href="#mf13c087a29" y="284.4"/>
      </g>
     </g>
     <g id="text_7">
      <!-- $\mathdefault{5.0}$ -->
      <g transform="translate(419.742797 301.085876)scale(0.14 -0.14)">
       <use transform="scale(0.996264)" xlink:href="#CMR17-53"/>
       <use transform="translate(45.690477 0)scale(0.996264)" xlink:href="#CMMI12-58"/>
       <use transform="translate(72.787654 0)scale(0.996264)" xlink:href="#CMR17-48"/>
      </g>
     </g>
    </g>
    <g id="xtick_8">
     <g id="line2d_8">
      <g>
       <use style="stroke:#000000;stroke-width:0.8;" x="491.243088" xlink:href="#mf13c087a29" y="284.4"/>
      </g>
     </g>
     <g id="text_8">
      <!-- $\mathdefault{7.5}$ -->
      <g transform="translate(482.517797 301.085876)scale(0.14 -0.14)">
       <use transform="scale(0.996264)" xlink:href="#CMR17-55"/>
       <use transform="translate(45.690477 0)scale(0.996264)" xlink:href="#CMMI12-58"/>
       <use transform="translate(72.787654 0)scale(0.996264)" xlink:href="#CMR17-53"/>
      </g>
     </g>
    </g>
    <g id="xtick_9">
     <g id="line2d_9">
      <g>
       <use style="stroke:#000000;stroke-width:0.8;" x="554.018088" xlink:href="#mf13c087a29" y="284.4"/>
      </g>
     </g>
     <g id="text_9">
      <!-- $\mathdefault{10.0}$ -->
      <g transform="translate(541.878553 301.085876)scale(0.14 -0.14)">
       <use transform="scale(0.996264)" xlink:href="#CMR17-49"/>
       <use transform="translate(45.690477 0)scale(0.996264)" xlink:href="#CMR17-48"/>
       <use transform="translate(91.380954 0)scale(0.996264)" xlink:href="#CMMI12-58"/>
       <use transform="translate(118.478131 0)scale(0.996264)" xlink:href="#CMR17-48"/>
      </g>
     </g>
    </g>
    <g id="text_10">
     <!-- $x$ -->
     <g transform="translate(297.929023 320.251205)scale(0.18 -0.18)">
      <defs>
       <path d="M 47.40625 40.71875 
C 44.203125 40.109375 43 37.71875 43 35.828125 
C 43 33.421875 44.90625 32.625 46.296875 32.625 
C 49.296875 32.625 51.40625 35.21875 51.40625 37.921875 
C 51.40625 42.109375 46.59375 44 42.40625 44 
C 36.296875 44 32.90625 38.015625 32 36.125 
C 29.703125 44 23.5 44 21.703125 44 
C 11.5 44 6.09375 30.9375 6.09375 28.734375 
C 6.09375 28.34375 6.5 27.84375 7.203125 27.84375 
C 8 27.84375 8.203125 28.4375 8.40625 28.84375 
C 11.796875 39.921875 18.5 42.015625 21.40625 42.015625 
C 25.90625 42.015625 26.796875 37.8125 26.796875 35.421875 
C 26.796875 33.234375 26.203125 30.9375 25 26.140625 
L 21.59375 12.46875 
C 20.09375 6.484375 17.203125 1 11.90625 1 
C 11.40625 1 8.90625 1 6.796875 2.296875 
C 10.40625 3 11.203125 5.984375 11.203125 7.1875 
C 11.203125 9.1875 9.703125 10.375 7.796875 10.375 
C 5.40625 10.375 2.796875 8.28125 2.796875 5.09375 
C 2.796875 0.890625 7.5 -1 11.796875 -1 
C 16.59375 -1 20 2.796875 22.09375 6.890625 
C 23.703125 1 28.703125 -1 32.40625 -1 
C 42.59375 -1 48 12.078125 48 14.265625 
C 48 14.765625 47.59375 15.171875 47 15.171875 
C 46.09375 15.171875 46 14.671875 45.703125 13.875 
C 43 5.09375 37.203125 1 32.703125 1 
C 29.203125 1 27.296875 3.59375 27.296875 7.6875 
C 27.296875 9.875 27.703125 11.46875 29.296875 18.0625 
L 32.796875 31.625 
C 34.296875 37.625 37.703125 42.015625 42.296875 42.015625 
C 42.5 42.015625 45.296875 42.015625 47.40625 40.71875 
z
" id="CMMI12-120"/>
      </defs>
      <use transform="scale(0.996264)" xlink:href="#CMMI12-120"/>
     </g>
    </g>
   </g>
   <g id="matplotlib.axis_2">
    <g id="ytick_1">
     <g id="line2d_10">
      <defs>
       <path d="M 0 0 
L -3.5 0 
" id="m0ff48c73c3" style="stroke:#000000;stroke-width:0.8;"/>
      </defs>
      <g>
       <use style="stroke:#000000;stroke-width:0.8;" x="51.818088" xlink:href="#m0ff48c73c3" y="256.68"/>
      </g>
     </g>
     <g id="text_11">
      <!-- $\mathdefault{−4}$ -->
      <g transform="translate(27.141364 261.522938)scale(0.14 -0.14)">
       <defs>
        <path d="M 33.59375 64.40625 
C 33.59375 66.5 33.5 66.5 31.703125 66.5 
L 2 19.59375 
L 2 17 
L 27.796875 17 
L 27.796875 7.140625 
C 27.796875 3.5 27.59375 2.5 20.59375 2.5 
L 18.703125 2.5 
L 18.703125 0 
C 21.90625 0 27.296875 0 30.703125 0 
C 34.09375 0 39.5 0 42.703125 0 
L 42.703125 2.5 
L 40.796875 2.5 
C 33.796875 2.5 33.59375 3.5 33.59375 7.140625 
L 33.59375 17 
L 43.796875 17 
L 43.796875 19.59375 
L 33.59375 19.59375 
z
M 28.09375 57.859375 
L 28.09375 19.59375 
L 4 19.59375 
z
" id="CMR17-52"/>
       </defs>
       <use transform="scale(0.996264)" xlink:href="#CMSY10-0"/>
       <use transform="translate(77.487468 0)scale(0.996264)" xlink:href="#CMR17-52"/>
      </g>
     </g>
    </g>
    <g id="ytick_2">
     <g id="line2d_11">
      <g>
       <use style="stroke:#000000;stroke-width:0.8;" x="51.818088" xlink:href="#m0ff48c73c3" y="201.24"/>
      </g>
     </g>
     <g id="text_12">
      <!-- $\mathdefault{−2}$ -->
      <g transform="translate(27.141364 206.082938)scale(0.14 -0.14)">
       <use transform="scale(0.996264)" xlink:href="#CMSY10-0"/>
       <use transform="translate(77.487468 0)scale(0.996264)" xlink:href="#CMR17-50"/>
      </g>
     </g>
    </g>
    <g id="ytick_3">
     <g id="line2d_12">
      <g>
       <use style="stroke:#000000;stroke-width:0.8;" x="51.818088" xlink:href="#m0ff48c73c3" y="145.8"/>
      </g>
     </g>
     <g id="text_13">
      <!-- $\mathdefault{0}$ -->
      <g transform="translate(37.989599 150.642938)scale(0.14 -0.14)">
       <use transform="scale(0.996264)" xlink:href="#CMR17-48"/>
      </g>
     </g>
    </g>
    <g id="ytick_4">
     <g id="line2d_13">
      <g>
       <use style="stroke:#000000;stroke-width:0.8;" x="51.818088" xlink:href="#m0ff48c73c3" y="90.36"/>
      </g>
     </g>
     <g id="text_14">
      <!-- $\mathdefault{2}$ -->
      <g transform="translate(37.989599 95.202938)scale(0.14 -0.14)">
       <use transform="scale(0.996264)" xlink:href="#CMR17-50"/>
      </g>
     </g>
    </g>
    <g id="ytick_5">
     <g id="line2d_14">
      <g>
       <use style="stroke:#000000;stroke-width:0.8;" x="51.818088" xlink:href="#m0ff48c73c3" y="34.92"/>
      </g>
     </g>
     <g id="text_15">
      <!-- $\mathdefault{4}$ -->
      <g transform="translate(37.989599 39.762938)scale(0.14 -0.14)">
       <use transform="scale(0.996264)" xlink:href="#CMR17-52"/>
      </g>
     </g>
    </g>
    <g id="text_16">
     <!-- $y$ -->
     <g transform="translate(19.6533 150.080776)rotate(-90)scale(0.18 -0.18)">
      <defs>
       <path d="M 26.296875 -10.9375 
C 23.59375 -14.671875 19.703125 -18 14.796875 -18 
C 13.59375 -18 8.796875 -18 7.296875 -13.890625 
C 7.59375 -13.984375 8.09375 -13.984375 8.296875 -13.984375 
C 11.296875 -13.984375 13.296875 -11.390625 13.296875 -9.09375 
C 13.296875 -6.796875 11.40625 -6 9.90625 -6 
C 8.296875 -6 4.796875 -7.15625 4.796875 -11.859375 
C 4.796875 -16.734375 9.09375 -20.09375 14.796875 -20.09375 
C 24.796875 -20.09375 34.90625 -10.9375 37.703125 0.09375 
L 47.5 38.828125 
C 47.59375 39.328125 47.796875 39.9375 47.796875 40.53125 
C 47.796875 42.015625 46.59375 43.015625 45.09375 43.015625 
C 44.203125 43.015625 42.09375 42.609375 41.296875 39.609375 
L 33.90625 10.28125 
C 33.40625 8.484375 33.40625 8.28125 32.59375 7.1875 
C 30.59375 4.390625 27.296875 1 22.5 1 
C 16.90625 1 16.40625 6.484375 16.40625 9.1875 
C 16.40625 14.875 19.09375 22.546875 21.796875 29.734375 
C 22.90625 32.625 23.5 34.03125 23.5 36.015625 
C 23.5 40.21875 20.5 44 15.59375 44 
C 6.40625 44 2.703125 29.53125 2.703125 28.734375 
C 2.703125 28.34375 3.09375 27.84375 3.796875 27.84375 
C 4.703125 27.84375 4.796875 28.234375 5.203125 29.640625 
C 7.59375 38.015625 11.40625 42.015625 15.296875 42.015625 
C 16.203125 42.015625 17.90625 42.015625 17.90625 38.71875 
C 17.90625 36.125 16.796875 33.234375 15.296875 29.4375 
C 10.40625 16.359375 10.40625 13.078125 10.40625 10.671875 
C 10.40625 1.203125 17.203125 -1 22.203125 -1 
C 25.09375 -1 28.703125 -0.09375 32.203125 3.59375 
L 32.296875 3.5 
C 30.796875 -2.296875 29.796875 -6.125 26.296875 -10.9375 
z
" id="CMMI12-121"/>
      </defs>
      <use transform="scale(0.996264)" xlink:href="#CMMI12-121"/>
     </g>
    </g>
   </g>
   <g id="line2d_15">
    <path clip-path="url(#p9963c48fa9)" d="M 51.818088 111.199746 
L 60.875803 109.398146 
L 68.927106 108.00622 
L 75.971996 107.01372 
L 82.010473 106.383474 
L 88.04895 106.001522 
L 93.081014 105.90087 
L 98.113078 106.015757 
L 103.145142 106.35724 
L 108.177206 106.929144 
L 113.20927 107.727845 
L 118.241335 108.742078 
L 124.279812 110.216849 
L 130.318288 111.931216 
L 137.363178 114.162761 
L 148.433719 117.950033 
L 161.517086 122.406862 
L 169.568389 124.906558 
L 176.613278 126.836132 
L 182.651755 128.251668 
L 188.690232 129.414193 
L 193.722296 130.170924 
L 198.754361 130.720297 
L 203.786425 131.050458 
L 208.818489 131.15132 
L 213.850553 131.012538 
L 218.882617 130.62668 
L 223.914681 129.988787 
L 228.946745 129.095126 
L 233.978809 127.946748 
L 239.010874 126.54854 
L 244.042938 124.910777 
L 249.075002 123.049562 
L 255.113479 120.552785 
L 261.151956 117.816044 
L 269.203258 113.904338 
L 289.331515 103.95654 
L 295.369992 101.270956 
L 300.402056 99.245983 
L 305.43412 97.45748 
L 310.466184 95.940141 
L 314.491836 94.9408 
L 318.517487 94.144063 
L 322.543138 93.558355 
L 326.568789 93.188472 
L 330.594441 93.036531 
L 334.620092 93.102103 
L 338.645743 93.381771 
L 342.671395 93.870511 
L 346.697046 94.560413 
L 350.722697 95.442957 
L 355.754761 96.80058 
L 360.786826 98.419585 
L 365.81889 100.27648 
L 370.850954 102.344939 
L 376.889431 105.070978 
L 383.934321 108.530227 
L 391.985623 112.76628 
L 402.049751 118.335782 
L 427.210072 132.386424 
L 435.261375 136.569671 
L 442.306264 139.983299 
L 448.344741 142.683641 
L 454.383218 145.145349 
L 460.421695 147.34378 
L 465.453759 148.96081 
L 470.485824 150.37401 
L 475.517888 151.578847 
L 480.549952 152.57415 
L 485.582016 153.361586 
L 490.61408 153.945797 
L 495.646144 154.334707 
L 501.684621 154.557274 
L 507.723098 154.534109 
L 513.761575 154.288754 
L 520.806465 153.7557 
L 527.851355 152.995545 
L 535.902657 151.896782 
L 544.960373 150.42458 
L 554.018088 148.750548 
L 554.018088 148.750548 
" style="fill:none;stroke:#1f77b4;stroke-linecap:square;stroke-width:1.5;"/>
   </g>
   <g id="line2d_16">
    <path clip-path="url(#p9963c48fa9)" d="M 51.818088 92.70141 
L 58.862978 98.524037 
L 68.927106 107.166259 
L 86.036124 121.866281 
L 94.087427 128.490796 
L 101.132317 134.0345 
L 108.177206 139.302077 
L 115.222096 144.269709 
L 121.260573 148.278387 
L 127.29905 152.053133 
L 133.337527 155.59349 
L 139.376004 158.898728 
L 145.414481 161.96734 
L 151.452958 164.793423 
L 157.491435 167.366378 
L 163.529912 169.666289 
L 168.561976 171.354928 
L 173.59404 172.814137 
L 178.626104 174.019217 
L 182.651755 174.781417 
L 186.677407 175.34757 
L 190.703058 175.701434 
L 194.728709 175.827562 
L 198.754361 175.710331 
L 202.780012 175.336321 
L 206.805663 174.6938 
L 210.831315 173.773478 
L 214.856966 172.570052 
L 218.882617 171.081736 
L 222.908268 169.311454 
L 226.93392 167.266572 
L 230.959571 164.959723 
L 234.985222 162.408742 
L 240.017286 158.912315 
L 245.049351 155.125321 
L 251.087828 150.290811 
L 261.151956 141.874287 
L 270.209671 134.393013 
L 276.248148 129.709115 
L 281.280212 126.107993 
L 285.305864 123.476007 
L 289.331515 121.098835 
L 293.357166 119.003445 
L 297.382818 117.210356 
L 300.402056 116.073879 
L 303.421294 115.1203 
L 306.440533 114.352996 
L 309.459771 113.772029 
L 312.47901 113.377333 
L 315.498248 113.165691 
L 318.517487 113.133346 
L 321.536725 113.274312 
L 325.562377 113.720135 
L 329.588028 114.442566 
L 333.613679 115.419712 
L 337.639331 116.62756 
L 341.664982 118.039756 
L 346.697046 120.052879 
L 351.72911 122.294453 
L 357.767587 125.21642 
L 365.81889 129.381103 
L 379.908669 136.98812 
L 392.992036 143.973351 
L 402.049751 148.574845 
L 410.101054 152.403832 
L 417.145944 155.48223 
L 423.184421 157.864443 
L 428.216485 159.631866 
L 433.248549 161.169473 
L 438.280613 162.446772 
L 442.306264 163.261528 
L 446.331916 163.877381 
L 450.357567 164.281823 
L 454.383218 164.465612 
L 458.40887 164.421635 
L 462.434521 164.146322 
L 466.460172 163.639413 
L 470.485824 162.905159 
L 474.511475 161.950385 
L 478.537126 160.787623 
L 483.56919 159.063748 
L 488.601254 157.074268 
L 494.639731 154.397435 
L 501.684621 150.980259 
L 512.755162 145.287867 
L 524.832116 139.141677 
L 531.877006 135.784556 
L 538.921896 132.676727 
L 544.960373 130.235483 
L 550.99885 128.003301 
L 554.018088 126.963 
L 554.018088 126.963 
" style="fill:none;stroke:#ff7f0e;stroke-linecap:square;stroke-width:1.5;"/>
   </g>
   <g id="line2d_17">
    <path clip-path="url(#p9963c48fa9)" d="M 51.818088 166.758762 
L 55.843739 166.720437 
L 59.869391 166.452261 
L 63.895042 165.963214 
L 67.920693 165.263612 
L 71.946345 164.368613 
L 76.978409 163.001652 
L 82.010473 161.397267 
L 88.04895 159.225385 
L 96.100252 156.059721 
L 112.202858 149.660402 
L 118.241335 147.519274 
L 123.273399 145.93331 
L 128.305463 144.564025 
L 133.337527 143.435717 
L 138.369591 142.56363 
L 143.401655 141.95202 
L 148.433719 141.596404 
L 153.465783 141.482236 
L 158.497848 141.587051 
L 164.536325 141.960153 
L 171.581214 142.658918 
L 180.63893 143.809487 
L 196.741535 145.883895 
L 203.786425 146.566669 
L 209.824902 146.962023 
L 215.863379 147.148593 
L 221.901856 147.104198 
L 227.940333 146.815038 
L 233.978809 146.274308 
L 240.017286 145.480712 
L 246.055763 144.436784 
L 252.09424 143.148053 
L 258.132717 141.622096 
L 264.171194 139.868244 
L 270.209671 137.898644 
L 277.254561 135.34788 
L 284.299451 132.553828 
L 292.350753 129.113459 
L 302.414882 124.557273 
L 322.543138 115.366366 
L 329.588028 112.408858 
L 335.626505 110.091948 
L 341.664982 108.032892 
L 346.697046 106.549168 
L 351.72911 105.302867 
L 356.761174 104.313991 
L 361.793238 103.599269 
L 365.81889 103.231968 
L 369.844541 103.050877 
L 373.870192 103.057097 
L 377.895844 103.249696 
L 381.921495 103.626736 
L 386.953559 104.350135 
L 391.985623 105.342355 
L 397.017687 106.587433 
L 402.049751 108.066898 
L 407.081816 109.758675 
L 413.120292 112.036309 
L 419.158769 114.541086 
L 427.210072 118.151054 
L 438.280613 123.412516 
L 453.376805 130.588856 
L 461.428108 134.147941 
L 467.466585 136.592497 
L 473.505062 138.788418 
L 478.537126 140.395681 
L 483.56919 141.776844 
L 488.601254 142.913957 
L 493.633319 143.794293 
L 498.665383 144.410015 
L 503.697447 144.759939 
L 508.729511 144.849054 
L 513.761575 144.688298 
L 518.793639 144.294778 
L 523.825703 143.690341 
L 529.86418 142.726809 
L 536.90907 141.342335 
L 545.966785 139.298703 
L 554.018088 137.389126 
L 554.018088 137.389126 
" style="fill:none;stroke:#2ca02c;stroke-linecap:square;stroke-width:1.5;"/>
   </g>
   <g id="line2d_18">
    <path clip-path="url(#p9963c48fa9)" d="M 51.818088 121.661766 
L 65.907868 116.435881 
L 72.952757 114.050333 
L 78.991234 112.214771 
L 85.029711 110.616826 
L 90.061775 109.488349 
L 95.09384 108.556275 
L 100.125904 107.825893 
L 105.157968 107.295969 
L 110.190032 106.960111 
L 116.228509 106.797558 
L 122.266986 106.871241 
L 129.311876 107.21246 
L 137.363178 107.869297 
L 146.420894 108.850274 
L 158.497848 110.394665 
L 174.600453 112.675255 
L 187.68382 114.728103 
L 196.741535 116.346421 
L 204.792838 118.000526 
L 211.837727 119.671832 
L 217.876204 121.309366 
L 223.914681 123.167977 
L 229.953158 125.27566 
L 235.991635 127.657906 
L 241.023699 129.868298 
L 246.055763 132.29331 
L 251.087828 134.939468 
L 256.119892 137.809008 
L 261.151956 140.899463 
L 267.190433 144.888933 
L 273.22891 149.162056 
L 280.273799 154.456845 
L 288.325102 160.815614 
L 312.47901 180.170111 
L 318.517487 184.610964 
L 323.549551 188.054168 
L 328.581615 191.210955 
L 332.607266 193.500909 
L 336.632918 195.560161 
L 340.658569 197.37272 
L 344.68422 198.926264 
L 348.709872 200.211621 
L 352.735523 201.223826 
L 356.761174 201.962591 
L 360.786826 202.430402 
L 364.812477 202.634858 
L 368.838128 202.586364 
L 372.863779 202.298999 
L 376.889431 201.789911 
L 380.915082 201.078449 
L 385.947146 199.937663 
L 390.97921 198.559237 
L 397.017687 196.65839 
L 404.062577 194.202234 
L 418.152357 188.975085 
L 429.222898 184.973095 
L 438.280613 181.93879 
L 447.338329 179.159013 
L 457.402457 176.323724 
L 489.607667 167.475394 
L 498.665383 164.630008 
L 508.729511 161.213531 
L 537.915483 151.054021 
L 543.95396 149.275351 
L 549.992437 147.738036 
L 554.018088 146.872569 
L 554.018088 146.872569 
" style="fill:none;stroke:#d62728;stroke-linecap:square;stroke-width:1.5;"/>
   </g>
   <g id="line2d_19">
    <path clip-path="url(#p9963c48fa9)" d="M 51.818088 183.569848 
L 56.850152 180.461795 
L 62.888629 176.4271 
L 69.933519 171.436518 
L 91.068188 156.251166 
L 97.106665 152.231584 
L 103.145142 148.471908 
L 109.183619 145.008963 
L 114.215683 142.36401 
L 119.247747 139.940598 
L 124.279812 137.734061 
L 130.318288 135.355054 
L 136.356765 133.238913 
L 142.395242 131.343682 
L 150.446545 129.072792 
L 164.536325 125.421695 
L 174.600453 122.712911 
L 181.645343 120.611379 
L 188.690232 118.261221 
L 194.728709 116.012392 
L 200.767186 113.530663 
L 206.805663 110.81451 
L 213.850553 107.368476 
L 220.895443 103.668993 
L 229.953158 98.651869 
L 251.087828 86.832296 
L 258.132717 83.191999 
L 264.171194 80.299889 
L 270.209671 77.661532 
L 275.241735 75.680199 
L 280.273799 73.91204 
L 285.305864 72.367842 
L 290.337928 71.055996 
L 295.369992 69.982416 
L 300.402056 69.152423 
L 305.43412 68.570575 
L 310.466184 68.24187 
L 315.498248 68.171066 
L 320.530313 68.363549 
L 325.562377 68.824414 
L 330.594441 69.558781 
L 335.626505 70.568995 
L 340.658569 71.856632 
L 345.690633 73.418789 
L 350.722697 75.247793 
L 355.754761 77.331879 
L 360.786826 79.652479 
L 366.825302 82.715529 
L 372.863779 86.031682 
L 380.915082 90.73724 
L 407.081816 106.319019 
L 414.126705 110.114055 
L 420.165182 113.126784 
L 426.203659 115.90214 
L 432.242136 118.441748 
L 438.280613 120.762711 
L 445.325503 123.23356 
L 453.376805 125.820183 
L 465.453759 129.437021 
L 487.594842 136.042388 
L 523.825703 147.104399 
L 531.877006 149.204934 
L 538.921896 150.804853 
L 544.960373 151.961564 
L 550.99885 152.892215 
L 554.018088 153.265573 
L 554.018088 153.265573 
" style="fill:none;stroke:#9467bd;stroke-linecap:square;stroke-width:1.5;"/>
   </g>
   <g id="line2d_20">
    <path clip-path="url(#p9963c48fa9)" d="M 51.818088 144.399569 
L 56.850152 145.853993 
L 61.882216 147.098933 
L 66.91428 148.112378 
L 71.946345 148.878575 
L 76.978409 149.388703 
L 82.010473 149.642237 
L 87.042537 149.645327 
L 92.074601 149.411307 
L 97.106665 148.959733 
L 103.145142 148.166384 
L 109.183619 147.147786 
L 117.234922 145.539651 
L 145.414481 139.619353 
L 152.459371 138.487268 
L 158.497848 137.716466 
L 164.536325 137.148816 
L 170.574801 136.792379 
L 176.613278 136.647641 
L 182.651755 136.708442 
L 189.696645 137.024997 
L 196.741535 137.586106 
L 203.786425 138.370092 
L 210.831315 139.356578 
L 218.882617 140.712968 
L 226.93392 142.296461 
L 234.985222 144.092146 
L 244.042938 146.342265 
L 254.107066 149.073853 
L 282.286625 156.890472 
L 289.331515 158.510052 
L 295.369992 159.669032 
L 300.402056 160.440674 
L 305.43412 161.015135 
L 310.466184 161.380378 
L 315.498248 161.531597 
L 320.530313 161.472513 
L 325.562377 161.215108 
L 331.600854 160.674407 
L 338.645743 159.786995 
L 347.703459 158.39293 
L 362.799651 156.037897 
L 369.844541 155.164344 
L 375.883018 154.613943 
L 381.921495 154.277032 
L 387.959972 154.164094 
L 393.998449 154.269192 
L 401.043339 154.63747 
L 409.094641 155.311661 
L 421.171595 156.592881 
L 434.254962 157.921379 
L 442.306264 158.510801 
L 449.351154 158.804927 
L 456.396044 158.856163 
L 462.434521 158.694683 
L 469.479411 158.268436 
L 476.5243 157.6048 
L 484.575603 156.604053 
L 495.646144 154.95623 
L 510.742337 152.702638 
L 517.787226 151.873507 
L 523.825703 151.375479 
L 528.857767 151.152313 
L 533.889832 151.132309 
L 538.921896 151.336601 
L 543.95396 151.779603 
L 548.986024 152.467932 
L 554.018088 153.399001 
L 554.018088 153.399001 
" style="fill:none;stroke:#8c564b;stroke-linecap:square;stroke-width:1.5;"/>
   </g>
   <g id="line2d_21">
    <path clip-path="url(#p9963c48fa9)" d="M 51.818088 139.251429 
L 55.843739 139.027386 
L 59.869391 139.015623 
L 63.895042 139.211534 
L 67.920693 139.608119 
L 71.946345 140.19599 
L 76.978409 141.180731 
L 82.010473 142.418102 
L 87.042537 143.877752 
L 93.081014 145.87577 
L 100.125904 148.469404 
L 109.183619 152.069229 
L 129.311876 160.156628 
L 136.356765 162.716322 
L 142.395242 164.695787 
L 148.433719 166.4309 
L 153.465783 167.662669 
L 158.497848 168.680727 
L 163.529912 169.472492 
L 168.561976 170.03041 
L 173.59404 170.352347 
L 178.626104 170.443381 
L 183.658168 170.314303 
L 188.690232 169.982487 
L 194.728709 169.350848 
L 201.773599 168.35662 
L 210.831315 166.818793 
L 228.946745 163.683559 
L 235.991635 162.703208 
L 243.036525 161.950325 
L 250.081415 161.448288 
L 257.126304 161.188437 
L 265.177607 161.139678 
L 276.248148 161.331009 
L 290.337928 161.546054 
L 298.38923 161.430045 
L 305.43412 161.099595 
L 312.47901 160.526436 
L 319.5239 159.713173 
L 327.575202 158.530075 
L 337.639331 156.79686 
L 355.754761 153.642798 
L 363.806064 152.499714 
L 370.850954 151.720751 
L 377.895844 151.1679 
L 384.940733 150.831795 
L 392.992036 150.662197 
L 420.165182 150.30581 
L 426.203659 149.898042 
L 432.242136 149.244982 
L 437.2742 148.480549 
L 442.306264 147.493913 
L 447.338329 146.271198 
L 452.370393 144.805951 
L 457.402457 143.097282 
L 462.434521 141.152005 
L 467.466585 138.983731 
L 473.505062 136.115241 
L 479.543539 132.996607 
L 486.588429 129.11356 
L 496.652557 123.287932 
L 512.755162 113.940575 
L 520.806465 109.539137 
L 527.851355 105.948846 
L 533.889832 103.103959 
L 539.928308 100.493085 
L 545.966785 98.125385 
L 552.005262 95.999747 
L 554.018088 95.344135 
L 554.018088 95.344135 
" style="fill:none;stroke:#e377c2;stroke-linecap:square;stroke-width:1.5;"/>
   </g>
   <g id="line2d_22">
    <path clip-path="url(#p9963c48fa9)" d="M 51.818088 120.984567 
L 79.997647 105.720766 
L 89.055363 101.191424 
L 97.106665 97.42168 
L 104.151555 94.345018 
L 111.196445 91.49976 
L 118.241335 88.918252 
L 124.279812 86.9494 
L 130.318288 85.244618 
L 135.350353 84.056746 
L 140.382417 83.109709 
L 145.414481 82.430792 
L 149.440132 82.098437 
L 153.465783 81.966944 
L 157.491435 82.046107 
L 161.517086 82.343508 
L 165.542737 82.863682 
L 169.568389 83.607521 
L 173.59404 84.572604 
L 177.619691 85.751992 
L 181.645343 87.135041 
L 186.677407 89.128414 
L 191.709471 91.381471 
L 197.747948 94.368337 
L 204.792838 98.136271 
L 217.876204 105.479959 
L 226.93392 110.457843 
L 233.978809 114.100151 
L 240.017286 117.003059 
L 246.055763 119.677912 
L 252.09424 122.118399 
L 258.132717 124.333169 
L 265.177607 126.659984 
L 272.222497 128.756911 
L 281.280212 131.205011 
L 294.363579 134.467866 
L 327.575202 142.650505 
L 370.850954 153.476167 
L 397.017687 159.704253 
L 420.165182 165.015067 
L 433.248549 167.814422 
L 444.31909 169.953029 
L 453.376805 171.483434 
L 462.434521 172.780475 
L 471.492236 173.831204 
L 480.549952 174.650298 
L 490.61408 175.336505 
L 504.70386 176.047957 
L 530.870593 177.105092 
L 541.941134 177.371832 
L 549.992437 177.350154 
L 554.018088 177.232667 
L 554.018088 177.232667 
" style="fill:none;stroke:#7f7f7f;stroke-linecap:square;stroke-width:1.5;"/>
   </g>
   <g id="line2d_23">
    <path clip-path="url(#p9963c48fa9)" d="M 51.818088 125.338014 
L 60.875803 124.126287 
L 67.920693 123.380476 
L 74.965583 122.849353 
L 82.010473 122.546426 
L 89.055363 122.461599 
L 97.106665 122.589903 
L 107.170793 122.980642 
L 134.34394 124.172046 
L 146.420894 124.419017 
L 177.619691 124.89054 
L 186.677407 125.348695 
L 194.728709 125.991659 
L 201.773599 126.761379 
L 208.818489 127.734699 
L 215.863379 128.913918 
L 222.908268 130.295573 
L 230.959571 132.112485 
L 239.010874 134.166979 
L 247.062176 136.437172 
L 256.119892 139.213342 
L 267.190433 142.846119 
L 293.357166 151.54793 
L 300.402056 153.616251 
L 306.440533 155.185824 
L 312.47901 156.515237 
L 317.511074 157.404061 
L 322.543138 158.066262 
L 327.575202 158.47823 
L 331.600854 158.614269 
L 335.626505 158.56918 
L 339.652156 158.337197 
L 343.677807 157.913947 
L 347.703459 157.297597 
L 351.72911 156.489086 
L 355.754761 155.491941 
L 360.786826 153.987912 
L 365.81889 152.21324 
L 370.850954 150.189319 
L 375.883018 147.942168 
L 381.921495 144.993881 
L 388.966385 141.280745 
L 398.0241 136.228637 
L 418.152357 124.912557 
L 425.197246 121.23162 
L 431.235723 118.290683 
L 437.2742 115.58825 
L 443.312677 113.156713 
L 448.344741 111.355015 
L 453.376805 109.770404 
L 458.40887 108.410867 
L 463.440934 107.282235 
L 468.472998 106.38773 
L 473.505062 105.729579 
L 478.537126 105.30609 
L 483.56919 105.114913 
L 488.601254 105.150454 
L 493.633319 105.405976 
L 498.665383 105.872364 
L 503.697447 106.537912 
L 509.735924 107.581594 
L 515.774401 108.866786 
L 521.812878 110.364459 
L 528.857767 112.337117 
L 536.90907 114.821703 
L 547.979611 118.496353 
L 554.018088 120.561134 
L 554.018088 120.561134 
" style="fill:none;stroke:#bcbd22;stroke-linecap:square;stroke-width:1.5;"/>
   </g>
   <g id="line2d_24">
    <path clip-path="url(#p9963c48fa9)" d="M 51.818088 135.014606 
L 58.862978 138.720753 
L 64.901455 141.656258 
L 70.939932 144.333658 
L 75.971996 146.349597 
L 81.00406 148.159541 
L 86.036124 149.757116 
L 91.068188 151.139664 
L 96.100252 152.306676 
L 101.132317 153.25984 
L 106.164381 154.003227 
L 111.196445 154.54204 
L 116.228509 154.883194 
L 121.260573 155.034863 
L 127.29905 154.980389 
L 133.337527 154.687518 
L 139.376004 154.179031 
L 146.420894 153.350052 
L 154.472196 152.151945 
L 164.536325 150.396631 
L 196.741535 144.550583 
L 208.818489 142.713016 
L 240.017286 138.161714 
L 248.068589 136.640885 
L 255.113479 135.075619 
L 262.158369 133.264273 
L 269.203258 131.202698 
L 276.248148 128.912899 
L 285.305864 125.710364 
L 308.453359 117.360729 
L 314.491836 115.474681 
L 320.530313 113.840985 
L 325.562377 112.715673 
L 330.594441 111.837924 
L 335.626505 111.232778 
L 339.652156 110.958388 
L 343.677807 110.878459 
L 347.703459 110.997657 
L 351.72911 111.319081 
L 355.754761 111.843082 
L 359.780413 112.567966 
L 363.806064 113.490713 
L 367.831715 114.606636 
L 372.863779 116.26402 
L 377.895844 118.200869 
L 382.927908 120.401937 
L 387.959972 122.851839 
L 392.992036 125.534058 
L 399.030513 129.036397 
L 405.06899 132.8196 
L 411.107467 136.85073 
L 418.152357 141.818263 
L 427.210072 148.516928 
L 451.36398 166.61242 
L 457.402457 170.770133 
L 462.434521 173.991345 
L 467.466585 176.936783 
L 471.492236 179.062422 
L 475.517888 180.958677 
L 479.543539 182.607164 
L 483.56919 183.99257 
L 487.594842 185.103879 
L 491.620493 185.935181 
L 495.646144 186.485694 
L 499.671795 186.759935 
L 503.697447 186.766963 
L 507.723098 186.522202 
L 511.748749 186.044733 
L 515.774401 185.35918 
L 520.806465 184.25085 
L 525.838529 182.920325 
L 532.883419 180.806386 
L 552.005262 174.892082 
L 554.018088 174.341798 
L 554.018088 174.341798 
" style="fill:none;stroke:#17becf;stroke-linecap:square;stroke-width:1.5;"/>
   </g>
   <g id="line2d_25">
    <path clip-path="url(#p9963c48fa9)" d="M 51.818088 145.8 
L 554.018088 145.8 
L 554.018088 145.8 
" style="fill:none;stroke:#000000;stroke-dasharray:7.4,3.2;stroke-dashoffset:0;stroke-width:2;"/>
   </g>
   <g id="line2d_26">
    <path clip-path="url(#p9963c48fa9)" d="M 51.818088 201.24 
L 554.018088 201.24 
L 554.018088 201.24 
" style="fill:none;stroke:#000000;stroke-dasharray:5.55,2.4;stroke-dashoffset:0;stroke-width:1.5;"/>
   </g>
   <g id="line2d_27">
    <path clip-path="url(#p9963c48fa9)" d="M 51.818088 90.36 
L 554.018088 90.36 
L 554.018088 90.36 
" style="fill:none;stroke:#000000;stroke-dasharray:5.55,2.4;stroke-dashoffset:0;stroke-width:1.5;"/>
   </g>
   <g id="line2d_28"/>
   <g id="line2d_29"/>
   <g id="patch_3">
    <path d="M 51.818088 284.4 
L 51.818088 7.2 
" style="fill:none;stroke:#000000;stroke-linecap:square;stroke-linejoin:miter;stroke-width:0.8;"/>
   </g>
   <g id="patch_4">
    <path d="M 554.018088 284.4 
L 554.018088 7.2 
" style="fill:none;stroke:#000000;stroke-linecap:square;stroke-linejoin:miter;stroke-width:0.8;"/>
   </g>
   <g id="patch_5">
    <path d="M 51.818088 284.4 
L 554.018088 284.4 
" style="fill:none;stroke:#000000;stroke-linecap:square;stroke-linejoin:miter;stroke-width:0.8;"/>
   </g>
   <g id="patch_6">
    <path d="M 51.818088 7.2 
L 554.018088 7.2 
" style="fill:none;stroke:#000000;stroke-linecap:square;stroke-linejoin:miter;stroke-width:0.8;"/>
   </g>
  </g>
 </g>
 <defs>
  <clipPath id="p9963c48fa9">
   <rect height="277.2" width="502.2" x="51.818088" y="7.2"/>
  </clipPath>
 </defs>
</svg>
